<?xml version="1.0" encoding="UTF-8" standalone="no"?>
<!DOCTYPE svg PUBLIC "-//W3C//DTD SVG 1.1//EN"
 "http://www.w3.org/Graphics/SVG/1.1/DTD/svg11.dtd">
<!-- Generated by graphviz version 2.38.0 (20140413.2041)
 -->
<!-- Title: G Pages: 1 -->
<svg width="651pt" height="1031pt"
 viewBox="0.00 0.00 650.69 1031.33" xmlns="http://www.w3.org/2000/svg" xmlns:xlink="http://www.w3.org/1999/xlink">
<g id="graph0" class="graph" transform="scale(1 1) rotate(0) translate(4 1027.33)">
<title>G</title>
<polygon fill="white" stroke="none" points="-4,4 -4,-1027.33 646.694,-1027.33 646.694,4 -4,4"/>
<!-- ba -->
<g id="node1" class="node"><title>ba</title>
<ellipse fill="lightgreen" stroke="black" cx="357.097" cy="-18" rx="61.99" ry="18"/>
<text text-anchor="middle" x="357.097" y="-14.3" font-family="Times,serif" font-size="14.00">before &amp; after</text>
</g>
<!-- point -->
<g id="node2" class="node"><title>point</title>
<ellipse fill="lightgreen" stroke="black" cx="435.097" cy="-164" rx="28.6953" ry="18"/>
<text text-anchor="middle" x="435.097" y="-160.3" font-family="Times,serif" font-size="14.00">point</text>
</g>
<!-- before -->
<g id="node4" class="node"><title>before</title>
<ellipse fill="lightgreen" stroke="black" cx="435.097" cy="-91" rx="33.2948" ry="18"/>
<text text-anchor="middle" x="435.097" y="-87.3" font-family="Times,serif" font-size="14.00">before</text>
</g>
<!-- point&#45;&gt;before -->
<g id="edge15" class="edge"><title>point&#45;&gt;before</title>
<path fill="none" stroke="black" d="M435.097,-145.813C435.097,-137.789 435.097,-128.047 435.097,-119.069"/>
<polygon fill="black" stroke="black" points="438.597,-119.029 435.097,-109.029 431.597,-119.029 438.597,-119.029"/>
</g>
<!-- after -->
<g id="node5" class="node"><title>after</title>
<ellipse fill="lightgreen" stroke="black" cx="357.097" cy="-91" rx="27" ry="18"/>
<text text-anchor="middle" x="357.097" y="-87.3" font-family="Times,serif" font-size="14.00">after</text>
</g>
<!-- point&#45;&gt;after -->
<g id="edge16" class="edge"><title>point&#45;&gt;after</title>
<path fill="none" stroke="black" d="M419.312,-148.632C407.958,-138.297 392.476,-124.205 379.797,-112.663"/>
<polygon fill="black" stroke="black" points="382.078,-110.007 372.327,-105.863 377.366,-115.183 382.078,-110.007"/>
</g>
<!-- around -->
<g id="node3" class="node"><title>around</title>
<ellipse fill="lightgreen" stroke="black" cx="81.0969" cy="-164" rx="35.194" ry="18"/>
<text text-anchor="middle" x="81.0969" y="-160.3" font-family="Times,serif" font-size="14.00">around</text>
</g>
<!-- before&#45;&gt;ba -->
<g id="edge1" class="edge"><title>before&#45;&gt;ba</title>
<path fill="none" stroke="black" d="M418.555,-74.9427C408.064,-65.3927 394.283,-52.8487 382.43,-42.0596"/>
<polygon fill="black" stroke="black" points="384.724,-39.4153 374.973,-35.2721 380.012,-44.5919 384.724,-39.4153"/>
</g>
<!-- after&#45;&gt;ba -->
<g id="edge2" class="edge"><title>after&#45;&gt;ba</title>
<path fill="none" stroke="black" d="M357.097,-72.8129C357.097,-64.7895 357.097,-55.0475 357.097,-46.0691"/>
<polygon fill="black" stroke="black" points="360.597,-46.0288 357.097,-36.0288 353.597,-46.0289 360.597,-46.0288"/>
</g>
<!-- uPoint -->
<g id="node6" class="node"><title>uPoint</title>
<ellipse fill="none" stroke="black" cx="614.097" cy="-878.333" rx="28.6953" ry="18"/>
<text text-anchor="middle" x="614.097" y="-874.633" font-family="Times,serif" font-size="14.00">point</text>
</g>
<!-- uPoint&#45;&gt;point -->
<g id="edge5" class="edge"><title>uPoint&#45;&gt;point</title>
<path fill="none" stroke="black" d="M619.505,-860.645C625.727,-839.932 635.097,-803.413 635.097,-771.333 635.097,-771.333 635.097,-771.333 635.097,-271 635.097,-198.675 531.726,-175.556 473.616,-168.274"/>
<polygon fill="black" stroke="black" points="473.662,-164.756 463.328,-167.09 472.862,-171.71 473.662,-164.756"/>
</g>
<!-- uTest -->
<g id="node7" class="node"><title>uTest</title>
<ellipse fill="none" stroke="black" cx="570.097" cy="-770.333" rx="27" ry="18"/>
<text text-anchor="middle" x="570.097" y="-766.633" font-family="Times,serif" font-size="14.00">test</text>
</g>
<!-- uTest&#45;&gt;point -->
<g id="edge6" class="edge"><title>uTest&#45;&gt;point</title>
<path fill="none" stroke="black" d="M577.05,-752.776C585.05,-732.193 597.097,-695.807 597.097,-663.333 597.097,-663.333 597.097,-663.333 597.097,-271 597.097,-211.662 520.051,-183.754 472.226,-172.146"/>
<polygon fill="black" stroke="black" points="472.742,-168.674 462.212,-169.849 471.176,-175.496 472.742,-168.674"/>
</g>
<!-- root -->
<g id="node8" class="node"><title>root</title>
<ellipse fill="none" stroke="black" cx="323.097" cy="-1005.33" rx="27" ry="18"/>
<text text-anchor="middle" x="323.097" y="-1001.63" font-family="Times,serif" font-size="14.00">root</text>
</g>
<!-- root&#45;&gt;uPoint -->
<g id="edge3" class="edge"><title>root&#45;&gt;uPoint</title>
<path fill="none" stroke="black" d="M350.229,-1002.99C403.953,-999.903 521.578,-990.824 555.097,-969.333 578.586,-954.273 594.749,-926.154 604.139,-905.338"/>
<polygon fill="black" stroke="black" points="607.385,-906.65 608.093,-896.079 600.947,-903.901 607.385,-906.65"/>
</g>
<!-- root&#45;&gt;uTest -->
<g id="edge4" class="edge"><title>root&#45;&gt;uTest</title>
<path fill="none" stroke="black" d="M343.889,-993.624C362.243,-983.675 389.246,-967.798 410.097,-950.333 468.373,-901.521 524.822,-831.409 552.469,-795.119"/>
<polygon fill="black" stroke="black" points="555.313,-797.161 558.549,-787.072 549.728,-792.941 555.313,-797.161"/>
</g>
<!-- uAround -->
<g id="node9" class="node"><title>uAround</title>
<ellipse fill="none" stroke="black" cx="35.0969" cy="-662.333" rx="35.194" ry="18"/>
<text text-anchor="middle" x="35.0969" y="-658.633" font-family="Times,serif" font-size="14.00">around</text>
</g>
<!-- root&#45;&gt;uAround -->
<g id="edge7" class="edge"><title>root&#45;&gt;uAround</title>
<path fill="none" stroke="black" d="M295.974,-1002.64C229.733,-997.752 65.0969,-980.835 65.0969,-933.333 65.0969,-933.333 65.0969,-933.333 65.0969,-769.333 65.0969,-741.265 55.2376,-710.542 46.8232,-689.433"/>
<polygon fill="black" stroke="black" points="50.0466,-688.069 42.979,-680.175 43.5818,-690.753 50.0466,-688.069"/>
</g>
<!-- uTestAround -->
<g id="node10" class="node"><title>uTestAround</title>
<ellipse fill="none" stroke="black" cx="86.0969" cy="-503.037" rx="50.0912" ry="18"/>
<text text-anchor="middle" x="86.0969" y="-499.337" font-family="Times,serif" font-size="14.00">testAround</text>
</g>
<!-- root&#45;&gt;uTestAround -->
<g id="edge8" class="edge"><title>root&#45;&gt;uTestAround</title>
<path fill="none" stroke="black" d="M296.803,-1000.27C244.219,-991.396 131.097,-968.251 131.097,-933.333 131.097,-933.333 131.097,-933.333 131.097,-661.333 131.097,-613.661 111.755,-560.888 98.4324,-530.193"/>
<polygon fill="black" stroke="black" points="101.619,-528.745 94.3506,-521.037 95.2258,-531.596 101.619,-528.745"/>
</g>
<!-- focus -->
<g id="node14" class="node"><title>focus</title>
<ellipse fill="lightblue" stroke="black" cx="301.097" cy="-824.333" rx="29.795" ry="18"/>
<text text-anchor="middle" x="301.097" y="-820.633" font-family="Times,serif" font-size="14.00">focus</text>
</g>
<!-- root&#45;&gt;focus -->
<g id="edge32" class="edge"><title>root&#45;&gt;focus</title>
<path fill="none" stroke="black" d="M320.987,-987.17C317.16,-956.029 309.044,-889.993 304.45,-852.615"/>
<polygon fill="black" stroke="black" points="307.894,-851.943 303.2,-842.444 300.946,-852.797 307.894,-851.943"/>
</g>
<!-- bifocus -->
<g id="node23" class="node"><title>bifocus</title>
<ellipse fill="none" stroke="black" cx="365.097" cy="-932.333" rx="36.2938" ry="18"/>
<text text-anchor="middle" x="365.097" y="-928.633" font-family="Times,serif" font-size="14.00">bifocus</text>
</g>
<!-- root&#45;&gt;bifocus -->
<g id="edge33" class="edge"><title>root&#45;&gt;bifocus</title>
<path fill="none" stroke="black" d="M332.627,-988.222C337.816,-979.451 344.352,-968.402 350.197,-958.521"/>
<polygon fill="black" stroke="black" points="353.234,-960.262 355.313,-949.873 347.209,-956.698 353.234,-960.262"/>
</g>
<!-- uAround&#45;&gt;around -->
<g id="edge9" class="edge"><title>uAround&#45;&gt;around</title>
<path fill="none" stroke="black" d="M32.5291,-643.921C28.4874,-614.96 21.0969,-555.031 21.0969,-504.037 21.0969,-504.037 21.0969,-504.037 21.0969,-271 21.0969,-239.218 41.7768,-208.219 58.855,-188.038"/>
<polygon fill="black" stroke="black" points="61.6559,-190.153 65.6454,-180.338 56.4059,-185.523 61.6559,-190.153"/>
</g>
<!-- uTestAround&#45;&gt;around -->
<g id="edge10" class="edge"><title>uTestAround&#45;&gt;around</title>
<path fill="none" stroke="black" d="M83.9815,-484.793C80.8561,-458.361 75.1529,-406.212 73.0969,-361.74 70.3022,-301.289 75.198,-230.366 78.4847,-192.359"/>
<polygon fill="black" stroke="black" points="81.9967,-192.38 79.402,-182.108 75.0245,-191.756 81.9967,-192.38"/>
</g>
<!-- eqap1 -->
<g id="node11" class="node"><title>eqap1</title>
<ellipse fill="lightblue" stroke="black" cx="325.097" cy="-272" rx="43.5923" ry="18"/>
<text text-anchor="middle" x="325.097" y="-268.3" font-family="Times,serif" font-size="14.00">?(expect)</text>
</g>
<!-- eqap1&#45;&gt;point -->
<g id="edge14" class="edge"><title>eqap1&#45;&gt;point</title>
<path fill="none" stroke="black" d="M336.543,-254.326C347.448,-239.142 364.864,-216.619 383.097,-200 390.051,-193.662 398.239,-187.612 406.034,-182.38"/>
<polygon fill="black" stroke="black" points="408.089,-185.219 414.582,-176.848 404.285,-179.343 408.089,-185.219"/>
</g>
<!-- eqap2 -->
<g id="node12" class="node"><title>eqap2</title>
<ellipse fill="lightblue" stroke="black" cx="262.097" cy="-218" rx="63.8893" ry="18"/>
<text text-anchor="middle" x="262.097" y="-214.3" font-family="Times,serif" font-size="14.00">?(before, after)</text>
</g>
<!-- eqap2&#45;&gt;ba -->
<g id="edge18" class="edge"><title>eqap2&#45;&gt;ba</title>
<path fill="none" stroke="black" d="M267.937,-199.653C277.496,-172.084 297.77,-116.899 321.097,-73 326.252,-63.2989 332.702,-53.1544 338.713,-44.3114"/>
<polygon fill="black" stroke="black" points="341.68,-46.1757 344.514,-35.9669 335.932,-42.1802 341.68,-46.1757"/>
</g>
<!-- eqap1f -->
<g id="node13" class="node"><title>eqap1f</title>
<ellipse fill="lightblue" stroke="black" cx="178.097" cy="-272" rx="42.4939" ry="18"/>
<text text-anchor="middle" x="178.097" y="-268.3" font-family="Times,serif" font-size="14.00">?(a → a)</text>
</g>
<!-- eqap1f&#45;&gt;around -->
<g id="edge20" class="edge"><title>eqap1f&#45;&gt;around</title>
<path fill="none" stroke="black" d="M165.244,-254.768C153.416,-240.084 135.172,-218.059 118.097,-200 113.972,-195.637 109.432,-191.126 104.987,-186.852"/>
<polygon fill="black" stroke="black" points="107.359,-184.278 97.6871,-179.953 102.55,-189.365 107.359,-184.278"/>
</g>
<!-- value -->
<g id="node15" class="node"><title>value</title>
<ellipse fill="lightblue" stroke="black" cx="217.097" cy="-608.333" rx="29.795" ry="18"/>
<text text-anchor="middle" x="217.097" y="-604.633" font-family="Times,serif" font-size="14.00">value</text>
</g>
<!-- focus&#45;&gt;value -->
<g id="edge11" class="edge"><title>focus&#45;&gt;value</title>
<path fill="none" stroke="black" d="M289.334,-807.416C277.136,-790.208 258.309,-761.575 247.097,-734.333 233.793,-702.009 225.538,-662.448 221.135,-636.605"/>
<polygon fill="black" stroke="black" points="224.54,-635.738 219.48,-626.43 217.631,-636.862 224.54,-635.738"/>
</g>
<!-- collection -->
<g id="node19" class="node"><title>collection</title>
<ellipse fill="lightblue" stroke="black" cx="301.097" cy="-716.333" rx="45.4919" ry="18"/>
<text text-anchor="middle" x="301.097" y="-712.633" font-family="Times,serif" font-size="14.00">collection</text>
</g>
<!-- focus&#45;&gt;collection -->
<g id="edge28" class="edge"><title>focus&#45;&gt;collection</title>
<path fill="none" stroke="black" d="M301.097,-806.302C301.097,-789.711 301.097,-764.216 301.097,-744.764"/>
<polygon fill="black" stroke="black" points="304.597,-744.674 301.097,-734.674 297.597,-744.674 304.597,-744.674"/>
</g>
<!-- value&#45;&gt;value -->
<g id="edge27" class="edge"><title>value&#45;&gt;value</title>
<path fill="none" stroke="black" d="M242.232,-618.211C254.322,-619.43 264.994,-616.138 264.994,-608.333 264.994,-602.845 259.718,-599.588 252.383,-598.562"/>
<polygon fill="black" stroke="black" points="252.268,-595.061 242.232,-598.455 252.194,-602.06 252.268,-595.061"/>
<text text-anchor="middle" x="278.994" y="-604.633" font-family="Times,serif" font-size="14.00"> map</text>
</g>
<!-- equal -->
<g id="node16" class="node"><title>equal</title>
<ellipse fill="lightblue" stroke="black" cx="209.097" cy="-397.74" rx="29.795" ry="18"/>
<text text-anchor="middle" x="209.097" y="-394.04" font-family="Times,serif" font-size="14.00">equal</text>
</g>
<!-- value&#45;&gt;equal -->
<g id="edge12" class="edge"><title>value&#45;&gt;equal</title>
<path fill="none" stroke="black" d="M210.664,-590.49C208.803,-584.81 207.024,-578.377 206.097,-572.333 198.259,-521.254 202.265,-460.733 205.766,-426.326"/>
<polygon fill="black" stroke="black" points="209.275,-426.436 206.869,-416.118 202.315,-425.684 209.275,-426.436"/>
</g>
<!-- test1 -->
<g id="node17" class="node"><title>test1</title>
<ellipse fill="lightblue" stroke="black" cx="356.097" cy="-334.87" rx="63.8893" ry="18"/>
<text text-anchor="middle" x="356.097" y="-331.17" font-family="Times,serif" font-size="14.00">test(a → Bool)</text>
</g>
<!-- value&#45;&gt;test1 -->
<g id="edge21" class="edge"><title>value&#45;&gt;test1</title>
<path fill="none" stroke="black" d="M212.845,-590.316C205.466,-556.438 194.36,-479.855 231.097,-433.74 247.65,-412.961 265.958,-430.425 288.097,-415.74 309.42,-401.596 327.821,-378.917 340.084,-361.334"/>
<polygon fill="black" stroke="black" points="343.233,-362.924 345.921,-352.675 337.429,-359.011 343.233,-362.924"/>
</g>
<!-- test2 -->
<g id="node18" class="node"><title>test2</title>
<ellipse fill="lightblue" stroke="black" cx="143.097" cy="-334.87" rx="69.0935" ry="26.7407"/>
<text text-anchor="middle" x="143.097" y="-338.67" font-family="Times,serif" font-size="14.00">testAround</text>
<text text-anchor="middle" x="143.097" y="-323.67" font-family="Times,serif" font-size="14.00">a → a → Bool</text>
</g>
<!-- value&#45;&gt;test2 -->
<g id="edge23" class="edge"><title>value&#45;&gt;test2</title>
<path fill="none" stroke="black" d="M207.067,-591.032C203.851,-585.281 200.502,-578.667 198.097,-572.333 172.013,-503.647 155.95,-418.863 148.355,-371.751"/>
<polygon fill="black" stroke="black" points="151.79,-371.065 146.777,-361.732 144.876,-372.154 151.79,-371.065"/>
</g>
<!-- equal&#45;&gt;eqap1 -->
<g id="edge13" class="edge"><title>equal&#45;&gt;eqap1</title>
<path fill="none" stroke="black" d="M231.522,-385.696C242.061,-379.691 254.227,-371.493 263.097,-361.74 281.218,-341.816 275.326,-329.831 291.097,-308 293.983,-304.004 297.314,-300.017 300.739,-296.24"/>
<polygon fill="black" stroke="black" points="303.418,-298.502 307.785,-288.849 298.352,-293.672 303.418,-298.502"/>
</g>
<!-- equal&#45;&gt;eqap2 -->
<g id="edge17" class="edge"><title>equal&#45;&gt;eqap2</title>
<path fill="none" stroke="black" d="M220.056,-380.919C223.685,-375.099 227.465,-368.32 230.097,-361.74 245.552,-323.098 254.333,-275.437 258.652,-246.138"/>
<polygon fill="black" stroke="black" points="262.119,-246.615 260.045,-236.226 255.187,-245.641 262.119,-246.615"/>
</g>
<!-- equal&#45;&gt;eqap1f -->
<g id="edge19" class="edge"><title>equal&#45;&gt;eqap1f</title>
<path fill="none" stroke="black" d="M214.025,-379.649C218.412,-361.214 222.776,-331.367 213.097,-308 211.222,-303.475 208.448,-299.229 205.266,-295.364"/>
<polygon fill="black" stroke="black" points="207.728,-292.873 198.323,-287.994 202.633,-297.673 207.728,-292.873"/>
</g>
<!-- equal&#45;&gt;equal -->
<g id="edge25" class="edge"><title>equal&#45;&gt;equal</title>
<path fill="none" stroke="black" d="M232.755,-408.885C245.439,-410.779 256.994,-407.064 256.994,-397.74 256.994,-391.038 251.025,-387.234 242.957,-386.328"/>
<polygon fill="black" stroke="black" points="242.66,-382.834 232.755,-386.595 242.843,-389.832 242.66,-382.834"/>
<text text-anchor="middle" x="267.994" y="-394.04" font-family="Times,serif" font-size="14.00"> not</text>
</g>
<!-- test1&#45;&gt;point -->
<g id="edge22" class="edge"><title>test1&#45;&gt;point</title>
<path fill="none" stroke="black" d="M364.811,-316.858C368.913,-308.759 373.831,-298.915 378.097,-290 394.366,-256.002 412.269,-216.347 423.59,-190.974"/>
<polygon fill="black" stroke="black" points="426.861,-192.23 427.731,-181.671 420.466,-189.383 426.861,-192.23"/>
</g>
<!-- test2&#45;&gt;around -->
<g id="edge24" class="edge"><title>test2&#45;&gt;around</title>
<path fill="none" stroke="black" d="M133.68,-308.222C122.126,-276.751 102.63,-223.649 90.9009,-191.703"/>
<polygon fill="black" stroke="black" points="94.1178,-190.31 87.3857,-182.129 87.5467,-192.722 94.1178,-190.31"/>
</g>
<!-- collection&#45;&gt;value -->
<g id="edge31" class="edge"><title>collection&#45;&gt;value</title>
<path fill="none" stroke="black" d="M287.972,-698.771C274.002,-681.142 251.772,-653.09 235.935,-633.105"/>
<polygon fill="black" stroke="black" points="238.536,-630.752 229.582,-625.088 233.05,-635.099 238.536,-630.752"/>
</g>
<!-- collection&#45;&gt;collection -->
<g id="edge26" class="edge"><title>collection&#45;&gt;collection</title>
<path fill="none" stroke="black" d="M338.905,-726.436C352.995,-726.767 364.593,-723.399 364.593,-716.333 364.593,-711.088 358.204,-707.881 349.15,-706.712"/>
<polygon fill="black" stroke="black" points="349.058,-703.204 338.905,-706.23 348.73,-710.196 349.058,-703.204"/>
<text text-anchor="middle" x="378.593" y="-712.633" font-family="Times,serif" font-size="14.00"> map</text>
</g>
<!-- collops -->
<g id="node20" class="node"><title>collops</title>
<ellipse fill="lightblue" stroke="black" cx="388.097" cy="-503.037" rx="156.042" ry="69.0935"/>
<text text-anchor="middle" x="388.097" y="-536.837" font-family="Times,serif" font-size="14.00">assertDistinct</text>
<text text-anchor="middle" x="388.097" y="-521.837" font-family="Times,serif" font-size="14.00">assertExistence(os → Bool, os → as)</text>
<text text-anchor="middle" x="388.097" y="-506.837" font-family="Times,serif" font-size="14.00">assertEqualIgnoringOrder(os → as)</text>
<text text-anchor="middle" x="388.097" y="-491.837" font-family="Times,serif" font-size="14.00">assertContainsAll(os → as)</text>
<text text-anchor="middle" x="388.097" y="-476.837" font-family="Times,serif" font-size="14.00">assertContainsOnly(os → as)</text>
<text text-anchor="middle" x="388.097" y="-461.837" font-family="Times,serif" font-size="14.00">assertContainsNone(os → as)</text>
</g>
<!-- collection&#45;&gt;collops -->
<g id="edge29" class="edge"><title>collection&#45;&gt;collops</title>
<path fill="none" stroke="black" d="M308.069,-698.399C318.513,-673.036 338.868,-623.598 356.436,-580.932"/>
<polygon fill="black" stroke="black" points="359.682,-582.241 360.253,-571.662 353.209,-579.576 359.682,-582.241"/>
</g>
<!-- collops&#45;&gt;point -->
<g id="edge30" class="edge"><title>collops&#45;&gt;point</title>
<path fill="none" stroke="black" d="M406.42,-433.96C411.939,-411.154 417.483,-385.488 421.097,-361.74 430.217,-301.812 433.419,-230.688 434.526,-192.509"/>
<polygon fill="black" stroke="black" points="438.032,-192.296 434.796,-182.208 431.035,-192.112 438.032,-192.296"/>
</g>
<!-- biequal -->
<g id="node21" class="node"><title>biequal</title>
<ellipse fill="none" stroke="black" cx="448.097" cy="-662.333" rx="86.3847" ry="18"/>
<text text-anchor="middle" x="448.097" y="-658.633" font-family="Times,serif" font-size="14.00">assertObsEqualsState</text>
</g>
<!-- biequal&#45;&gt;point -->
<g id="edge38" class="edge"><title>biequal&#45;&gt;point</title>
<path fill="none" stroke="black" d="M473.327,-645.099C495.763,-629.283 527.64,-603.158 545.097,-572.333 560.366,-545.371 559.097,-535.022 559.097,-504.037 559.097,-504.037 559.097,-504.037 559.097,-271 559.097,-223.423 505.702,-192.643 468.988,-177.101"/>
<polygon fill="black" stroke="black" points="470.178,-173.807 459.595,-173.299 467.551,-180.296 470.178,-173.807"/>
</g>
<!-- biequal&#45;&gt;biequal -->
<g id="edge37" class="edge"><title>biequal&#45;&gt;biequal</title>
<path fill="none" stroke="black" d="M520.34,-672.337C538.732,-671.679 552.539,-668.345 552.539,-662.333 552.539,-657.495 543.599,-654.391 530.523,-653.021"/>
<polygon fill="black" stroke="black" points="530.554,-649.515 520.34,-652.329 530.08,-656.499 530.554,-649.515"/>
<text text-anchor="middle" x="563.539" y="-658.633" font-family="Times,serif" font-size="14.00"> not</text>
</g>
<!-- valueB -->
<g id="node22" class="node"><title>valueB</title>
<ellipse fill="none" stroke="black" cx="411.097" cy="-824.333" rx="29.795" ry="18"/>
<text text-anchor="middle" x="411.097" y="-820.633" font-family="Times,serif" font-size="14.00">value</text>
</g>
<!-- valueB&#45;&gt;biequal -->
<g id="edge36" class="edge"><title>valueB&#45;&gt;biequal</title>
<path fill="none" stroke="black" d="M415.057,-806.21C421.483,-778.422 434.231,-723.292 441.877,-690.229"/>
<polygon fill="black" stroke="black" points="445.323,-690.864 444.166,-680.333 438.503,-689.287 445.323,-690.864"/>
</g>
<!-- valueB&#45;&gt;valueB -->
<g id="edge39" class="edge"><title>valueB&#45;&gt;valueB</title>
<path fill="none" stroke="black" d="M436.232,-834.211C448.322,-835.43 458.994,-832.138 458.994,-824.333 458.994,-818.845 453.718,-815.588 446.383,-814.562"/>
<polygon fill="black" stroke="black" points="446.268,-811.061 436.232,-814.455 446.194,-818.06 446.268,-811.061"/>
<text text-anchor="middle" x="478.494" y="-828.133" font-family="Times,serif" font-size="14.00"> map</text>
<text text-anchor="middle" x="478.494" y="-813.133" font-family="Times,serif" font-size="14.00"> bimap</text>
</g>
<!-- bifocus&#45;&gt;focus -->
<g id="edge34" class="edge"><title>bifocus&#45;&gt;focus</title>
<path fill="none" stroke="black" d="M355.097,-914.771C344.657,-897.479 328.161,-870.158 316.146,-850.259"/>
<polygon fill="black" stroke="black" points="318.982,-848.184 310.817,-841.432 312.99,-851.802 318.982,-848.184"/>
</g>
<!-- bifocus&#45;&gt;valueB -->
<g id="edge35" class="edge"><title>bifocus&#45;&gt;valueB</title>
<path fill="none" stroke="black" d="M372.488,-914.302C379.874,-897.28 391.329,-870.886 399.845,-851.261"/>
<polygon fill="black" stroke="black" points="403.106,-852.539 403.876,-841.972 396.684,-849.752 403.106,-852.539"/>
</g>
</g>
</svg>
