<?xml version="1.0" encoding="UTF-8" standalone="no"?>
<!DOCTYPE svg PUBLIC "-//W3C//DTD SVG 1.1//EN"
 "http://www.w3.org/Graphics/SVG/1.1/DTD/svg11.dtd">
<!-- Generated by graphviz version 2.38.0 (20140413.2041)
 -->
<!-- Title: G Pages: 1 -->
<svg width="1751pt" height="1507pt"
 viewBox="0.00 0.00 1750.50 1507.16" xmlns="http://www.w3.org/2000/svg" xmlns:xlink="http://www.w3.org/1999/xlink">
<g id="graph0" class="graph" transform="scale(1 1) rotate(0) translate(4 1503.16)">
<title>G</title>
<polygon fill="white" stroke="none" points="-4,4 -4,-1503.16 1746.5,-1503.16 1746.5,4 -4,4"/>
<!-- Tri -->
<g id="node1" class="node"><title>Tri</title>
<ellipse fill="#ccccff" stroke="black" cx="1604.21" cy="-749.581" rx="27" ry="18"/>
<text text-anchor="middle" x="1604.21" y="-745.881" font-family="Times,serif" font-size="14.00">Tri</text>
</g>
<!-- Result -->
<g id="node5" class="node"><title>Result</title>
<ellipse fill="#ccccff" stroke="black" cx="1709.36" cy="-749.581" rx="33.2948" ry="18"/>
<text text-anchor="middle" x="1709.36" y="-745.881" font-family="Times,serif" font-size="14.00">Result</text>
</g>
<!-- Tri&#45;&gt;Result -->
<g id="edge1" class="edge"><title>Tri&#45;&gt;Result</title>
<path fill="none" stroke="black" d="M1631.29,-749.581C1641.83,-749.581 1654.17,-749.581 1665.9,-749.581"/>
<polygon fill="black" stroke="black" points="1665.98,-753.081 1675.98,-749.581 1665.98,-746.081 1665.98,-753.081"/>
</g>
<!-- Sack -->
<g id="node2" class="node"><title>Sack</title>
<ellipse fill="#ccccff" stroke="black" cx="1486.88" cy="-349.991" rx="27.8951" ry="18"/>
<text text-anchor="middle" x="1486.88" y="-346.291" font-family="Times,serif" font-size="14.00">Sack</text>
</g>
<!-- Name -->
<g id="node8" class="node"><title>Name</title>
<ellipse fill="#ccccff" stroke="black" cx="1172.14" cy="-1421.89" rx="32.4942" ry="18"/>
<text text-anchor="middle" x="1172.14" y="-1418.19" font-family="Times,serif" font-size="14.00">Name</text>
</g>
<!-- Sack&#45;&gt;Name -->
<g id="edge2" class="edge"><title>Sack&#45;&gt;Name</title>
<path fill="none" stroke="black" d="M1481.68,-367.702C1445,-492.631 1225.35,-1240.66 1180.24,-1394.31"/>
<polygon fill="black" stroke="black" points="1176.87,-1393.37 1177.41,-1403.95 1183.58,-1395.34 1176.87,-1393.37"/>
</g>
<!-- Recover -->
<g id="node10" class="node"><title>Recover</title>
<ellipse fill="lightgrey" stroke="black" cx="155.939" cy="-957.811" rx="40.0939" ry="18"/>
<text text-anchor="middle" x="155.939" y="-954.111" font-family="Times,serif" font-size="14.00">Recover</text>
</g>
<!-- Sack&#45;&gt;Recover -->
<g id="edge3" class="edge"><title>Sack&#45;&gt;Recover</title>
<path fill="none" stroke="black" d="M1464.06,-360.413C1307.38,-431.967 391.073,-850.429 193.481,-940.666"/>
<polygon fill="black" stroke="black" points="192.001,-937.494 184.358,-944.832 194.908,-943.862 192.001,-937.494"/>
</g>
<!-- Profunctor -->
<g id="node11" class="node"><title>Profunctor</title>
<ellipse fill="lightgrey" stroke="black" cx="381.094" cy="-191.003" rx="48.1917" ry="18"/>
<text text-anchor="middle" x="381.094" y="-187.303" font-family="Times,serif" font-size="14.00">Profunctor</text>
</g>
<!-- Sack&#45;&gt;Profunctor -->
<g id="edge4" class="edge"><title>Sack&#45;&gt;Profunctor</title>
<path fill="none" stroke="black" d="M1459.54,-346.061C1314.65,-325.228 635.462,-227.576 436.186,-198.925"/>
<polygon fill="black" stroke="black" points="436.629,-195.452 426.233,-197.493 435.633,-202.381 436.629,-195.452"/>
</g>
<!-- Conditional -->
<g id="node12" class="node"><title>Conditional</title>
<ellipse fill="lightgrey" stroke="black" cx="1574.27" cy="-541.351" rx="51.9908" ry="18"/>
<text text-anchor="middle" x="1574.27" y="-537.651" font-family="Times,serif" font-size="14.00">Conditional</text>
</g>
<!-- Sack&#45;&gt;Conditional -->
<g id="edge5" class="edge"><title>Sack&#45;&gt;Conditional</title>
<path fill="none" stroke="black" d="M1494.79,-367.311C1510.04,-400.713 1543.63,-474.258 1561.88,-514.218"/>
<polygon fill="black" stroke="black" points="1558.72,-515.734 1566.06,-523.376 1565.09,-512.826 1558.72,-515.734"/>
</g>
<!-- Show -->
<g id="node13" class="node"><title>Show</title>
<ellipse fill="lightgrey" stroke="black" cx="970.29" cy="-18" rx="30.5947" ry="18"/>
<text text-anchor="middle" x="970.29" y="-14.3" font-family="Times,serif" font-size="14.00">Show</text>
</g>
<!-- Sack&#45;&gt;Show -->
<g id="edge6" class="edge"><title>Sack&#45;&gt;Show</title>
<path fill="none" stroke="black" d="M1466.94,-337.18C1387.55,-286.155 1093.59,-97.2392 999.476,-36.7567"/>
<polygon fill="black" stroke="black" points="1001.31,-33.7755 991.006,-31.3134 997.526,-39.6643 1001.31,-33.7755"/>
</g>
<!-- OS -->
<g id="node3" class="node"><title>OS</title>
<ellipse fill="#ccccff" stroke="black" cx="759.919" cy="-1481.16" rx="27" ry="18"/>
<text text-anchor="middle" x="759.919" y="-1477.46" font-family="Times,serif" font-size="14.00">OS</text>
</g>
<!-- ROS -->
<g id="node4" class="node"><title>ROS</title>
<ellipse fill="#ccccff" stroke="black" cx="558.069" cy="-1421.89" rx="27.8951" ry="18"/>
<text text-anchor="middle" x="558.069" y="-1418.19" font-family="Times,serif" font-size="14.00">ROS</text>
</g>
<!-- ROS&#45;&gt;OS -->
<g id="edge7" class="edge"><title>ROS&#45;&gt;OS</title>
<path fill="none" stroke="black" d="M583.634,-1429.4C619.622,-1439.97 685.315,-1459.26 725.547,-1471.07"/>
<polygon fill="black" stroke="black" points="724.612,-1474.44 735.193,-1473.9 726.584,-1467.73 724.612,-1474.44"/>
</g>
<!-- Id -->
<g id="node6" class="node"><title>Id</title>
<ellipse fill="#ccccff" stroke="black" cx="27" cy="-749.581" rx="27" ry="18"/>
<text text-anchor="middle" x="27" y="-745.881" font-family="Times,serif" font-size="14.00">Id</text>
</g>
<!-- Or -->
<g id="node7" class="node"><title>Or</title>
<ellipse fill="#ccccff" stroke="black" cx="243.33" cy="-1149.17" rx="27" ry="18"/>
<text text-anchor="middle" x="243.33" y="-1145.47" font-family="Times,serif" font-size="14.00">Or</text>
</g>
<!-- Or&#45;&gt;Tri -->
<g id="edge8" class="edge"><title>Or&#45;&gt;Tri</title>
<path fill="none" stroke="black" d="M268.112,-1141.89C433.477,-1093.34 1376.29,-816.503 1569.58,-759.748"/>
<polygon fill="black" stroke="black" points="1570.62,-763.091 1579.23,-756.915 1568.65,-756.375 1570.62,-763.091"/>
</g>
<!-- NamedError -->
<g id="node9" class="node"><title>NamedError</title>
<ellipse fill="#ccccff" stroke="black" cx="1349.11" cy="-1308.16" rx="55.4913" ry="18"/>
<text text-anchor="middle" x="1349.11" y="-1304.46" font-family="Times,serif" font-size="14.00">NamedError</text>
</g>
<!-- NamedError&#45;&gt;Name -->
<g id="edge9" class="edge"><title>NamedError&#45;&gt;Name</title>
<path fill="none" stroke="black" d="M1323.76,-1324.45C1291.65,-1345.09 1236.39,-1380.6 1202.19,-1402.58"/>
<polygon fill="black" stroke="black" points="1200.08,-1399.78 1193.56,-1408.13 1203.87,-1405.67 1200.08,-1399.78"/>
</g>
<!-- Recover&#45;&gt;Or -->
<g id="edge10" class="edge"><title>Recover&#45;&gt;Or</title>
<path fill="none" stroke="black" d="M164.004,-975.471C179.391,-1009.16 213.016,-1082.79 231.154,-1122.51"/>
<polygon fill="black" stroke="black" points="228.073,-1124.19 235.411,-1131.83 234.44,-1121.28 228.073,-1124.19"/>
</g>
<!-- Recover&#45;&gt;Name -->
<g id="edge11" class="edge"><title>Recover&#45;&gt;Name</title>
<path fill="none" stroke="black" d="M184.179,-970.707C328.139,-1036.45 979.668,-1334 1137.59,-1406.11"/>
<polygon fill="black" stroke="black" points="1136.3,-1409.37 1146.85,-1410.34 1139.2,-1403.01 1136.3,-1409.37"/>
</g>
<!-- Conditional&#45;&gt;Tri -->
<g id="edge16" class="edge"><title>Conditional&#45;&gt;Tri</title>
<path fill="none" stroke="black" d="M1576.87,-559.466C1582.11,-595.862 1593.93,-678.085 1600.17,-721.505"/>
<polygon fill="black" stroke="black" points="1596.74,-722.256 1601.63,-731.657 1603.67,-721.26 1596.74,-722.256"/>
</g>
<!-- Conditional&#45;&gt;Or -->
<g id="edge17" class="edge"><title>Conditional&#45;&gt;Or</title>
<path fill="none" stroke="black" d="M1542.68,-555.777C1361.49,-638.524 455.97,-1052.06 274.88,-1134.76"/>
<polygon fill="black" stroke="black" points="273.271,-1131.65 265.629,-1138.99 276.179,-1138.02 273.271,-1131.65"/>
</g>
<!-- ExecutionModel -->
<g id="node14" class="node"><title>ExecutionModel</title>
<ellipse fill="lightgrey" stroke="black" cx="126" cy="-749.581" rx="69.5877" ry="18"/>
<text text-anchor="middle" x="126" y="-745.881" font-family="Times,serif" font-size="14.00">ExecutionModel</text>
</g>
<!-- ExecutionModel&#45;&gt;Id -->
<g id="edge14" class="edge"><title>ExecutionModel&#45;&gt;Id</title>
<path fill="none" stroke="black" d="M56.4352,-749.581C56.3385,-749.581 56.2419,-749.581 56.1454,-749.581"/>
<polygon fill="black" stroke="black" points="64.1383,-746.082 54.1381,-749.581 64.1379,-753.082 64.1383,-746.082"/>
</g>
<!-- ExecutionModel&#45;&gt;Or -->
<g id="edge12" class="edge"><title>ExecutionModel&#45;&gt;Or</title>
<path fill="none" stroke="black" d="M131.346,-767.789C150.057,-831.512 212.677,-1044.78 235.185,-1121.43"/>
<polygon fill="black" stroke="black" points="231.911,-1122.7 238.087,-1131.31 238.627,-1120.73 231.911,-1122.7"/>
</g>
<!-- ExecutionModel&#45;&gt;Recover -->
<g id="edge13" class="edge"><title>ExecutionModel&#45;&gt;Recover</title>
<path fill="none" stroke="black" d="M128.605,-767.696C133.835,-804.077 145.65,-886.25 151.895,-929.684"/>
<polygon fill="black" stroke="black" points="148.431,-930.19 153.319,-939.59 155.36,-929.193 148.431,-930.19"/>
</g>
<!-- NT -->
<g id="node15" class="node"><title>NT</title>
<ellipse fill="lightgrey" stroke="black" cx="155.939" cy="-541.351" rx="27" ry="18"/>
<text text-anchor="middle" x="155.939" y="-537.651" font-family="Times,serif" font-size="14.00">NT</text>
</g>
<!-- ExecutionModel&#45;&gt;NT -->
<g id="edge15" class="edge"><title>ExecutionModel&#45;&gt;NT</title>
<path fill="none" stroke="black" d="M128.605,-731.466C133.837,-695.071 145.659,-612.847 151.902,-569.427"/>
<polygon fill="black" stroke="black" points="155.403,-569.672 153.362,-559.276 148.474,-568.676 155.403,-569.672"/>
</g>
<!-- Action -->
<g id="node16" class="node"><title>Action</title>
<ellipse fill="lightgrey" stroke="black" cx="970.29" cy="-1481.16" rx="34.394" ry="18"/>
<text text-anchor="middle" x="970.29" y="-1477.46" font-family="Times,serif" font-size="14.00">Action</text>
</g>
<!-- Action&#45;&gt;Sack -->
<g id="edge22" class="edge"><title>Action&#45;&gt;Sack</title>
<path fill="none" stroke="black" d="M978.404,-1463.39C1037.63,-1333.72 1403,-533.658 1474.68,-376.696"/>
<polygon fill="black" stroke="black" points="1478,-377.852 1478.97,-367.301 1471.64,-374.944 1478,-377.852"/>
</g>
<!-- Action&#45;&gt;ROS -->
<g id="edge19" class="edge"><title>Action&#45;&gt;ROS</title>
<path fill="none" stroke="black" d="M936.905,-1476.36C860.871,-1465.43 675.246,-1438.74 595.49,-1427.27"/>
<polygon fill="black" stroke="black" points="595.804,-1423.78 585.408,-1425.82 594.808,-1430.71 595.804,-1423.78"/>
</g>
<!-- Action&#45;&gt;Or -->
<g id="edge18" class="edge"><title>Action&#45;&gt;Or</title>
<path fill="none" stroke="black" d="M943.987,-1469.15C832.213,-1418.1 396.803,-1219.26 275.093,-1163.68"/>
<polygon fill="black" stroke="black" points="276.458,-1160.45 265.908,-1159.48 273.55,-1166.82 276.458,-1160.45"/>
</g>
<!-- Action&#45;&gt;Name -->
<g id="edge21" class="edge"><title>Action&#45;&gt;Name</title>
<path fill="none" stroke="black" d="M1000.51,-1472.29C1035.94,-1461.88 1094.75,-1444.62 1133.48,-1433.25"/>
<polygon fill="black" stroke="black" points="1134.74,-1436.52 1143.35,-1430.35 1132.77,-1429.81 1134.74,-1436.52"/>
</g>
<!-- Action&#45;&gt;Conditional -->
<g id="edge23" class="edge"><title>Action&#45;&gt;Conditional</title>
<path fill="none" stroke="black" d="M981.288,-1464.05C1054.2,-1350.6 1467.64,-707.275 1557.17,-567.96"/>
<polygon fill="black" stroke="black" points="1560.36,-569.472 1562.82,-559.167 1554.47,-565.688 1560.36,-569.472"/>
</g>
<!-- Action&#45;&gt;Show -->
<g id="edge24" class="edge"><title>Action&#45;&gt;Show</title>
<path fill="none" stroke="black" d="M970.29,-1462.93C970.29,-1309.51 970.29,-235.212 970.29,-46.325"/>
<polygon fill="black" stroke="black" points="973.79,-46.1052 970.29,-36.1052 966.79,-46.1053 973.79,-46.1052"/>
</g>
<!-- Types -->
<g id="node17" class="node"><title>Types</title>
<ellipse fill="lightgrey" stroke="black" cx="1486.88" cy="-1149.17" rx="32.4942" ry="18"/>
<text text-anchor="middle" x="1486.88" y="-1145.47" font-family="Times,serif" font-size="14.00">Types</text>
</g>
<!-- Action&#45;&gt;Types -->
<g id="edge20" class="edge"><title>Action&#45;&gt;Types</title>
<path fill="none" stroke="black" d="M992.157,-1467.11C1074.11,-1414.44 1363.12,-1228.71 1457.11,-1168.31"/>
<polygon fill="black" stroke="black" points="1459.06,-1171.21 1465.58,-1162.86 1455.27,-1165.32 1459.06,-1171.21"/>
</g>
<!-- Types&#45;&gt;Sack -->
<g id="edge46" class="edge"><title>Types&#45;&gt;Sack</title>
<path fill="none" stroke="black" d="M1486.88,-1130.98C1486.88,-1026.79 1486.88,-506.014 1486.88,-378.302"/>
<polygon fill="black" stroke="black" points="1490.38,-378.156 1486.88,-368.156 1483.38,-378.156 1490.38,-378.156"/>
</g>
<!-- Types&#45;&gt;OS -->
<g id="edge49" class="edge"><title>Types&#45;&gt;OS</title>
<path fill="none" stroke="black" d="M1461.43,-1160.79C1350.96,-1211.24 913.055,-1411.23 791.41,-1466.78"/>
<polygon fill="black" stroke="black" points="789.879,-1463.63 782.236,-1470.97 792.787,-1470 789.879,-1463.63"/>
</g>
<!-- Types&#45;&gt;Or -->
<g id="edge48" class="edge"><title>Types&#45;&gt;Or</title>
<path fill="none" stroke="black" d="M1454.26,-1149.17C1280.49,-1149.17 464.713,-1149.17 280.401,-1149.17"/>
<polygon fill="black" stroke="black" points="280.39,-1145.67 270.39,-1149.17 280.39,-1152.67 280.39,-1145.67"/>
</g>
<!-- Types&#45;&gt;NamedError -->
<g id="edge47" class="edge"><title>Types&#45;&gt;NamedError</title>
<path fill="none" stroke="black" d="M1472.65,-1165.59C1448.57,-1193.38 1399.61,-1249.88 1371.09,-1282.8"/>
<polygon fill="black" stroke="black" points="1368.21,-1280.78 1364.31,-1290.63 1373.5,-1285.36 1368.21,-1280.78"/>
</g>
<!-- Check -->
<g id="node20" class="node"><title>Check</title>
<ellipse fill="lightgrey" stroke="black" cx="759.919" cy="-18" rx="33.2948" ry="18"/>
<text text-anchor="middle" x="759.919" y="-14.3" font-family="Times,serif" font-size="14.00">Check</text>
</g>
<!-- Types&#45;&gt;Check -->
<g id="edge50" class="edge"><title>Types&#45;&gt;Check</title>
<path fill="none" stroke="black" d="M1475.75,-1131.86C1393.17,-1003.36 876.133,-198.833 776.516,-43.8254"/>
<polygon fill="black" stroke="black" points="779.417,-41.866 771.066,-35.3457 773.528,-45.6505 779.417,-41.866"/>
</g>
<!-- ActionOps -->
<g id="node18" class="node"><title>ActionOps</title>
<ellipse fill="lightgrey" stroke="black" cx="381.094" cy="-1308.16" rx="48.9926" ry="18"/>
<text text-anchor="middle" x="381.094" y="-1304.46" font-family="Times,serif" font-size="14.00">ActionOps</text>
</g>
<!-- ActionOps&#45;&gt;Sack -->
<g id="edge32" class="edge"><title>ActionOps&#45;&gt;Sack</title>
<path fill="none" stroke="black" d="M400.287,-1291.53C532.999,-1176.53 1313.43,-500.287 1462.34,-371.257"/>
<polygon fill="black" stroke="black" points="1464.83,-373.727 1470.1,-364.534 1460.25,-368.437 1464.83,-373.727"/>
</g>
<!-- ActionOps&#45;&gt;OS -->
<g id="edge31" class="edge"><title>ActionOps&#45;&gt;OS</title>
<path fill="none" stroke="black" d="M411.774,-1322.17C482.43,-1354.44 656.069,-1433.74 727.955,-1466.57"/>
<polygon fill="black" stroke="black" points="726.852,-1469.91 737.402,-1470.88 729.76,-1463.54 726.852,-1469.91"/>
</g>
<!-- ActionOps&#45;&gt;ROS -->
<g id="edge27" class="edge"><title>ActionOps&#45;&gt;ROS</title>
<path fill="none" stroke="black" d="M405.702,-1323.97C438.135,-1344.82 495.083,-1381.42 529.418,-1403.48"/>
<polygon fill="black" stroke="black" points="527.743,-1406.56 538.048,-1409.03 531.527,-1400.68 527.743,-1406.56"/>
</g>
<!-- ActionOps&#45;&gt;Or -->
<g id="edge30" class="edge"><title>ActionOps&#45;&gt;Or</title>
<path fill="none" stroke="black" d="M366.088,-1290.84C341.273,-1262.2 291.655,-1204.94 263.697,-1172.68"/>
<polygon fill="black" stroke="black" points="266.278,-1170.31 257.084,-1165.04 260.987,-1174.89 266.278,-1170.31"/>
</g>
<!-- ActionOps&#45;&gt;Name -->
<g id="edge28" class="edge"><title>ActionOps&#45;&gt;Name</title>
<path fill="none" stroke="black" d="M426.754,-1314.72C567.847,-1335.01 995.48,-1396.49 1130.69,-1415.93"/>
<polygon fill="black" stroke="black" points="1130.26,-1419.41 1140.65,-1417.37 1131.25,-1412.48 1130.26,-1419.41"/>
</g>
<!-- ActionOps&#45;&gt;Profunctor -->
<g id="edge34" class="edge"><title>ActionOps&#45;&gt;Profunctor</title>
<path fill="none" stroke="black" d="M381.094,-1290.16C381.094,-1161.34 381.094,-380.169 381.094,-219.774"/>
<polygon fill="black" stroke="black" points="384.594,-219.316 381.094,-209.316 377.594,-219.316 384.594,-219.316"/>
</g>
<!-- ActionOps&#45;&gt;ExecutionModel -->
<g id="edge26" class="edge"><title>ActionOps&#45;&gt;ExecutionModel</title>
<path fill="none" stroke="black" d="M372.895,-1290.21C335.753,-1208.88 183.14,-874.7 138.388,-776.707"/>
<polygon fill="black" stroke="black" points="141.506,-775.109 134.168,-767.467 135.139,-778.017 141.506,-775.109"/>
</g>
<!-- ActionOps&#45;&gt;NT -->
<g id="edge25" class="edge"><title>ActionOps&#45;&gt;NT</title>
<path fill="none" stroke="black" d="M375.75,-1289.96C345.92,-1188.37 200.035,-691.529 163.999,-568.801"/>
<polygon fill="black" stroke="black" points="167.309,-567.652 161.134,-559.043 160.593,-569.624 167.309,-567.652"/>
</g>
<!-- ActionOps&#45;&gt;Action -->
<g id="edge33" class="edge"><title>ActionOps&#45;&gt;Action</title>
<path fill="none" stroke="black" d="M419.299,-1319.38C525.277,-1350.49 822.239,-1437.69 930.313,-1469.42"/>
<polygon fill="black" stroke="black" points="929.589,-1472.86 940.17,-1472.32 931.561,-1466.14 929.589,-1472.86"/>
</g>
<!-- ActionOps&#45;&gt;Types -->
<g id="edge29" class="edge"><title>ActionOps&#45;&gt;Types</title>
<path fill="none" stroke="black" d="M426.851,-1301.58C607.788,-1275.57 1271.87,-1180.08 1445.25,-1155.16"/>
<polygon fill="black" stroke="black" points="1445.85,-1158.61 1455.25,-1153.72 1444.85,-1151.68 1445.85,-1158.61"/>
</g>
<!-- CheckOps -->
<g id="node19" class="node"><title>CheckOps</title>
<ellipse fill="lightgrey" stroke="black" cx="1574.27" cy="-957.811" rx="47.3916" ry="18"/>
<text text-anchor="middle" x="1574.27" y="-954.111" font-family="Times,serif" font-size="14.00">CheckOps</text>
</g>
<!-- CheckOps&#45;&gt;OS -->
<g id="edge36" class="edge"><title>CheckOps&#45;&gt;OS</title>
<path fill="none" stroke="black" d="M1549.9,-973.474C1431.27,-1049.71 914.872,-1381.58 788.1,-1463.05"/>
<polygon fill="black" stroke="black" points="786.177,-1460.13 779.656,-1468.48 789.961,-1466.02 786.177,-1460.13"/>
</g>
<!-- CheckOps&#45;&gt;Or -->
<g id="edge37" class="edge"><title>CheckOps&#45;&gt;Or</title>
<path fill="none" stroke="black" d="M1529.61,-964.232C1323.62,-993.849 467.39,-1116.96 279.77,-1143.93"/>
<polygon fill="black" stroke="black" points="279.255,-1140.47 269.855,-1145.36 280.251,-1147.4 279.255,-1140.47"/>
</g>
<!-- CheckOps&#45;&gt;Name -->
<g id="edge38" class="edge"><title>CheckOps&#45;&gt;Name</title>
<path fill="none" stroke="black" d="M1559.24,-975.156C1497.7,-1046.18 1264.81,-1314.94 1193.21,-1397.57"/>
<polygon fill="black" stroke="black" points="1190.51,-1395.35 1186.61,-1405.2 1195.8,-1399.93 1190.51,-1395.35"/>
</g>
<!-- CheckOps&#45;&gt;Profunctor -->
<g id="edge35" class="edge"><title>CheckOps&#45;&gt;Profunctor</title>
<path fill="none" stroke="black" d="M1549.89,-942.146C1398.52,-844.861 587.719,-323.794 413.911,-212.094"/>
<polygon fill="black" stroke="black" points="415.735,-209.105 405.43,-206.643 411.95,-214.994 415.735,-209.105"/>
</g>
<!-- CheckOps&#45;&gt;Types -->
<g id="edge39" class="edge"><title>CheckOps&#45;&gt;Types</title>
<path fill="none" stroke="black" d="M1566.05,-975.814C1550.61,-1009.61 1517.24,-1082.7 1499.14,-1122.32"/>
<polygon fill="black" stroke="black" points="1495.86,-1121.08 1494.89,-1131.63 1502.23,-1123.99 1495.86,-1121.08"/>
</g>
<!-- CheckOps&#45;&gt;Check -->
<g id="edge40" class="edge"><title>CheckOps&#45;&gt;Check</title>
<path fill="none" stroke="black" d="M1559.44,-940.696C1460.52,-826.533 896.657,-175.805 780.748,-42.0379"/>
<polygon fill="black" stroke="black" points="783.258,-39.5908 774.065,-34.3253 777.968,-44.1749 783.258,-39.5908"/>
</g>
<!-- Check&#45;&gt;Tri -->
<g id="edge45" class="edge"><title>Check&#45;&gt;Tri</title>
<path fill="none" stroke="black" d="M777.553,-33.2801C885.308,-126.651 1454.5,-619.854 1579.8,-728.428"/>
<polygon fill="black" stroke="black" points="1577.87,-731.39 1587.72,-735.293 1582.45,-726.099 1577.87,-731.39"/>
</g>
<!-- Check&#45;&gt;Name -->
<g id="edge44" class="edge"><title>Check&#45;&gt;Name</title>
<path fill="none" stroke="black" d="M765.206,-36.0063C808.952,-184.993 1110.73,-1212.76 1164.09,-1394.47"/>
<polygon fill="black" stroke="black" points="1160.73,-1395.48 1166.91,-1404.08 1167.45,-1393.5 1160.73,-1395.48"/>
</g>
<!-- Check&#45;&gt;Profunctor -->
<g id="edge41" class="edge"><title>Check&#45;&gt;Profunctor</title>
<path fill="none" stroke="black" d="M734.475,-29.6199C669.885,-59.1172 499.177,-137.077 421.096,-172.735"/>
<polygon fill="black" stroke="black" points="419.244,-169.733 411.601,-177.071 422.152,-176.101 419.244,-169.733"/>
</g>
<!-- Check&#45;&gt;Conditional -->
<g id="edge42" class="edge"><title>Check&#45;&gt;Conditional</title>
<path fill="none" stroke="black" d="M781.701,-31.9984C893.696,-103.974 1404.73,-432.396 1540.87,-519.885"/>
<polygon fill="black" stroke="black" points="1538.98,-522.832 1549.28,-525.294 1542.76,-516.943 1538.98,-522.832"/>
</g>
<!-- Check&#45;&gt;Show -->
<g id="edge43" class="edge"><title>Check&#45;&gt;Show</title>
<path fill="none" stroke="black" d="M793.253,-18C830.157,-18 889.666,-18 929.368,-18"/>
<polygon fill="black" stroke="black" points="929.507,-21.5001 939.507,-18 929.507,-14.5001 929.507,-21.5001"/>
</g>
<!-- CoreExports -->
<g id="node21" class="node"><title>CoreExports</title>
<ellipse fill="lightgrey" stroke="black" cx="1349.11" cy="-191.003" rx="55.4913" ry="18"/>
<text text-anchor="middle" x="1349.11" y="-187.303" font-family="Times,serif" font-size="14.00">CoreExports</text>
</g>
<!-- CoreExports&#45;&gt;Sack -->
<g id="edge58" class="edge"><title>CoreExports&#45;&gt;Sack</title>
<path fill="none" stroke="black" d="M1364.38,-208.625C1389.31,-237.395 1438.76,-294.459 1466.6,-326.591"/>
<polygon fill="black" stroke="black" points="1463.99,-328.925 1473.19,-334.191 1469.28,-324.341 1463.99,-328.925"/>
</g>
<!-- CoreExports&#45;&gt;Name -->
<g id="edge51" class="edge"><title>CoreExports&#45;&gt;Name</title>
<path fill="none" stroke="black" d="M1346.48,-209.359C1326.6,-347.629 1200.46,-1224.94 1176.18,-1393.8"/>
<polygon fill="black" stroke="black" points="1172.69,-1393.48 1174.73,-1403.88 1179.62,-1394.48 1172.69,-1393.48"/>
</g>
<!-- CoreExports&#45;&gt;Conditional -->
<g id="edge53" class="edge"><title>CoreExports&#45;&gt;Conditional</title>
<path fill="none" stroke="black" d="M1360.59,-208.859C1397.55,-266.376 1513.64,-447.017 1557.38,-515.068"/>
<polygon fill="black" stroke="black" points="1554.47,-517.012 1562.82,-523.532 1560.36,-513.227 1554.47,-517.012"/>
</g>
<!-- CoreExports&#45;&gt;Show -->
<g id="edge56" class="edge"><title>CoreExports&#45;&gt;Show</title>
<path fill="none" stroke="black" d="M1316.82,-176.253C1245.75,-143.8 1076.42,-66.4685 1004.04,-33.4132"/>
<polygon fill="black" stroke="black" points="1005.44,-30.2071 994.894,-29.2366 1002.54,-36.5746 1005.44,-30.2071"/>
</g>
<!-- CoreExports&#45;&gt;Action -->
<g id="edge57" class="edge"><title>CoreExports&#45;&gt;Action</title>
<path fill="none" stroke="black" d="M1343.76,-209.242C1302.03,-351.359 1029.18,-1280.59 978.414,-1453.49"/>
<polygon fill="black" stroke="black" points="975.044,-1452.55 975.585,-1463.13 981.761,-1454.52 975.044,-1452.55"/>
</g>
<!-- CoreExports&#45;&gt;CheckOps -->
<g id="edge52" class="edge"><title>CoreExports&#45;&gt;CheckOps</title>
<path fill="none" stroke="black" d="M1354.46,-209.202C1384.26,-310.685 1529.86,-806.556 1566.09,-929.96"/>
<polygon fill="black" stroke="black" points="1562.8,-931.174 1568.98,-939.782 1569.52,-929.201 1562.8,-931.174"/>
</g>
<!-- PCompose -->
<g id="node22" class="node"><title>PCompose</title>
<ellipse fill="lightgrey" stroke="black" cx="1172.14" cy="-77.2684" rx="49.2915" ry="18"/>
<text text-anchor="middle" x="1172.14" y="-73.5684" font-family="Times,serif" font-size="14.00">PCompose</text>
</g>
<!-- CoreExports&#45;&gt;PCompose -->
<g id="edge54" class="edge"><title>CoreExports&#45;&gt;PCompose</title>
<path fill="none" stroke="black" d="M1323.76,-174.708C1292.61,-154.691 1239.69,-120.682 1205.33,-98.6002"/>
<polygon fill="black" stroke="black" points="1206.9,-95.4468 1196.59,-92.9848 1203.11,-101.336 1206.9,-95.4468"/>
</g>
<!-- PointOps -->
<g id="node23" class="node"><title>PointOps</title>
<ellipse fill="lightgrey" stroke="black" cx="558.069" cy="-77.2684" rx="43.5923" ry="18"/>
<text text-anchor="middle" x="558.069" y="-73.5684" font-family="Times,serif" font-size="14.00">PointOps</text>
</g>
<!-- CoreExports&#45;&gt;PointOps -->
<g id="edge55" class="edge"><title>CoreExports&#45;&gt;PointOps</title>
<path fill="none" stroke="black" d="M1298.43,-183.716C1156.04,-163.244 753.493,-105.366 609.82,-84.7091"/>
<polygon fill="black" stroke="black" points="609.925,-81.1882 599.529,-83.2293 608.929,-88.1169 609.925,-81.1882"/>
</g>
<!-- PCompose&#45;&gt;Sack -->
<g id="edge62" class="edge"><title>PCompose&#45;&gt;Sack</title>
<path fill="none" stroke="black" d="M1191.35,-93.9179C1245.89,-141.178 1401.63,-276.126 1462.28,-328.68"/>
<polygon fill="black" stroke="black" points="1460.01,-331.341 1469.86,-335.245 1464.59,-326.051 1460.01,-331.341"/>
</g>
<!-- PCompose&#45;&gt;Types -->
<g id="edge60" class="edge"><title>PCompose&#45;&gt;Types</title>
<path fill="none" stroke="black" d="M1177.47,-95.4235C1214.54,-221.686 1433.77,-968.299 1478.8,-1121.65"/>
<polygon fill="black" stroke="black" points="1475.44,-1122.66 1481.62,-1131.26 1482.16,-1120.68 1475.44,-1122.66"/>
</g>
<!-- ToInvariant -->
<g id="node25" class="node"><title>ToInvariant</title>
<ellipse fill="lightgrey" stroke="black" cx="243.33" cy="-349.991" rx="51.9908" ry="18"/>
<text text-anchor="middle" x="243.33" y="-346.291" font-family="Times,serif" font-size="14.00">ToInvariant</text>
</g>
<!-- PCompose&#45;&gt;ToInvariant -->
<g id="edge61" class="edge"><title>PCompose&#45;&gt;ToInvariant</title>
<path fill="none" stroke="black" d="M1133.41,-88.6397C985.698,-132.013 457.722,-287.04 292.87,-335.445"/>
<polygon fill="black" stroke="black" points="291.609,-332.167 283,-338.343 293.581,-338.884 291.609,-332.167"/>
</g>
<!-- PointOps&#45;&gt;Profunctor -->
<g id="edge66" class="edge"><title>PointOps&#45;&gt;Profunctor</title>
<path fill="none" stroke="black" d="M534.202,-92.6072C503.15,-112.563 448.757,-147.519 413.859,-169.946"/>
<polygon fill="black" stroke="black" points="411.953,-167.011 405.433,-175.362 415.738,-172.9 411.953,-167.011"/>
</g>
<!-- PointOps&#45;&gt;Types -->
<g id="edge67" class="edge"><title>PointOps&#45;&gt;Types</title>
<path fill="none" stroke="black" d="M573.035,-94.5395C681.01,-219.15 1340.3,-980.014 1466.14,-1125.23"/>
<polygon fill="black" stroke="black" points="1463.5,-1127.54 1472.69,-1132.8 1468.79,-1122.95 1463.5,-1127.54"/>
</g>
<!-- PointOps&#45;&gt;Check -->
<g id="edge68" class="edge"><title>PointOps&#45;&gt;Check</title>
<path fill="none" stroke="black" d="M593.691,-66.8088C629.279,-56.3594 683.85,-40.3359 720.665,-29.5258"/>
<polygon fill="black" stroke="black" points="721.939,-32.7997 730.548,-26.6241 719.967,-26.0832 721.939,-32.7997"/>
</g>
<!-- CoreExports2 -->
<g id="node24" class="node"><title>CoreExports2</title>
<ellipse fill="lightgrey" stroke="black" cx="294.787" cy="-1407.76" rx="59.5901" ry="18"/>
<text text-anchor="middle" x="294.787" y="-1404.06" font-family="Times,serif" font-size="14.00">CoreExports2</text>
</g>
<!-- CoreExports2&#45;&gt;ActionOps -->
<g id="edge59" class="edge"><title>CoreExports2&#45;&gt;ActionOps</title>
<path fill="none" stroke="black" d="M310.217,-1389.96C323.924,-1374.14 344.103,-1350.85 359.428,-1333.16"/>
<polygon fill="black" stroke="black" points="362.183,-1335.33 366.087,-1325.48 356.893,-1330.74 362.183,-1335.33"/>
</g>
<!-- ToInvariant&#45;&gt;Profunctor -->
<g id="edge63" class="edge"><title>ToInvariant&#45;&gt;Profunctor</title>
<path fill="none" stroke="black" d="M258.336,-332.674C282.765,-304.481 331.233,-248.546 359.408,-216.03"/>
<polygon fill="black" stroke="black" points="362.203,-218.149 366.107,-208.299 356.913,-213.565 362.203,-218.149"/>
</g>
<!-- ToInvariant&#45;&gt;Types -->
<g id="edge64" class="edge"><title>ToInvariant&#45;&gt;Types</title>
<path fill="none" stroke="black" d="M268.171,-365.955C425.726,-467.21 1284.87,-1019.35 1456.89,-1129.9"/>
<polygon fill="black" stroke="black" points="1455.15,-1132.94 1465.45,-1135.4 1458.93,-1127.05 1455.15,-1132.94"/>
</g>
<!-- ToInvariant&#45;&gt;Check -->
<g id="edge65" class="edge"><title>ToInvariant&#45;&gt;Check</title>
<path fill="none" stroke="black" d="M268.246,-333.979C353.97,-278.887 636.58,-97.2651 729.795,-37.359"/>
<polygon fill="black" stroke="black" points="731.943,-40.1394 738.463,-31.7885 728.159,-34.2506 731.943,-40.1394"/>
</g>
</g>
</svg>
