<?xml version="1.0" encoding="UTF-8" standalone="no"?>
<!DOCTYPE svg PUBLIC "-//W3C//DTD SVG 1.1//EN"
 "http://www.w3.org/Graphics/SVG/1.1/DTD/svg11.dtd">
<!-- Generated by graphviz version 2.38.0 (20140413.2041)
 -->
<!-- Title: G Pages: 1 -->
<svg width="989pt" height="260pt"
 viewBox="0.00 0.00 988.93 260.00" xmlns="http://www.w3.org/2000/svg" xmlns:xlink="http://www.w3.org/1999/xlink">
<g id="graph0" class="graph" transform="scale(1 1) rotate(0) translate(4 256)">
<title>G</title>
<polygon fill="white" stroke="none" points="-4,4 -4,-256 984.934,-256 984.934,4 -4,4"/>
<!-- c -->
<g id="node1" class="node"><title>c</title>
<ellipse fill="green" stroke="black" cx="286.892" cy="-234" rx="33.2948" ry="18"/>
<text text-anchor="middle" x="286.892" y="-230.3" font-family="Times,serif" font-size="14.00">Check</text>
</g>
<!-- cc -->
<g id="node2" class="node"><title>cc</title>
<ellipse fill="none" stroke="black" cx="140.892" cy="-162" rx="74.187" ry="18"/>
<text text-anchor="middle" x="140.892" y="-158.3" font-family="Times,serif" font-size="14.00">Check.Composite</text>
</g>
<!-- c&#45;&gt;cc -->
<g id="edge1" class="edge"><title>c&#45;&gt;cc</title>
<path fill="none" stroke="black" d="M253.633,-217.054C229.445,-205.457 196.884,-189.846 172.974,-178.382"/>
<polygon fill="black" stroke="black" points="252.252,-220.274 262.783,-221.441 255.279,-213.962 252.252,-220.274"/>
</g>
<!-- cp -->
<g id="node3" class="node"><title>cp</title>
<ellipse fill="none" stroke="black" cx="286.892" cy="-162" rx="53.8905" ry="18"/>
<text text-anchor="middle" x="286.892" y="-158.3" font-family="Times,serif" font-size="14.00">Check.Point</text>
</g>
<!-- c&#45;&gt;cp -->
<g id="edge2" class="edge"><title>c&#45;&gt;cp</title>
<path fill="none" stroke="black" d="M280.301,-206.005C279.951,-197.362 280.177,-188.03 280.979,-180.275"/>
<polygon fill="black" stroke="black" points="276.815,-206.327 281.013,-216.055 283.797,-205.832 276.815,-206.327"/>
</g>
<!-- c&#45;&gt;cp -->
<g id="edge11" class="edge"><title>c&#45;&gt;cp</title>
<path fill="none" stroke="red" stroke-dasharray="5,2" d="M292.77,-216.055C293.588,-208.346 293.83,-199.027 293.497,-190.364"/>
<polygon fill="red" stroke="red" points="292.804,-180.275 297.979,-189.944 293.147,-185.264 293.489,-190.252 293.489,-190.252 293.489,-190.252 293.147,-185.264 289,-190.56 292.804,-180.275 292.804,-180.275"/>
</g>
<!-- ca -->
<g id="node6" class="node"><title>ca</title>
<ellipse fill="green" stroke="black" cx="487.892" cy="-162" rx="62.2891" ry="18"/>
<text text-anchor="middle" x="487.892" y="-158.3" font-family="Times,serif" font-size="14.00">Check.Around</text>
</g>
<!-- c&#45;&gt;ca -->
<g id="edge3" class="edge"><title>c&#45;&gt;ca</title>
<path fill="none" stroke="black" d="M322.118,-218.798C356.799,-206.14 409.572,-187.787 446.29,-175.631"/>
<polygon fill="black" stroke="black" points="320.587,-215.632 312.41,-222.369 323.003,-222.202 320.587,-215.632"/>
</g>
<!-- c&#45;&gt;ca -->
<g id="edge12" class="edge"><title>c&#45;&gt;ca</title>
<path fill="none" stroke="red" stroke-dasharray="5,2" d="M315.293,-224.695C348.704,-213.878 404.278,-194.685 443.382,-180.571"/>
<polygon fill="red" stroke="red" points="452.945,-177.1 445.08,-184.741 448.245,-178.806 443.545,-180.511 443.545,-180.511 443.545,-180.511 448.245,-178.806 442.01,-176.281 452.945,-177.1 452.945,-177.1"/>
</g>
<!-- cpc -->
<g id="node4" class="node"><title>cpc</title>
<ellipse fill="none" stroke="black" cx="94.8916" cy="-90" rx="94.7833" ry="18"/>
<text text-anchor="middle" x="94.8916" y="-86.3" font-family="Times,serif" font-size="14.00">Check.Point.Composite</text>
</g>
<!-- cp&#45;&gt;cpc -->
<g id="edge4" class="edge"><title>cp&#45;&gt;cpc</title>
<path fill="none" stroke="black" d="M242.15,-144.688C210.274,-133.066 167.729,-117.555 136.568,-106.194"/>
<polygon fill="black" stroke="black" points="241.082,-148.024 251.676,-148.161 243.48,-141.447 241.082,-148.024"/>
</g>
<!-- cps -->
<g id="node5" class="node"><title>cps</title>
<ellipse fill="lightblue" stroke="black" cx="286.892" cy="-90" rx="79.0865" ry="18"/>
<text text-anchor="middle" x="286.892" y="-86.3" font-family="Times,serif" font-size="14.00">Check.Point.Single</text>
</g>
<!-- cp&#45;&gt;cps -->
<g id="edge5" class="edge"><title>cp&#45;&gt;cps</title>
<path fill="none" stroke="black" d="M280.301,-134.005C279.951,-125.362 280.177,-116.03 280.979,-108.275"/>
<polygon fill="black" stroke="black" points="276.815,-134.327 281.013,-144.055 283.797,-133.832 276.815,-134.327"/>
</g>
<!-- cp&#45;&gt;cps -->
<g id="edge13" class="edge"><title>cp&#45;&gt;cps</title>
<path fill="none" stroke="red" stroke-dasharray="5,2" d="M292.77,-144.055C293.588,-136.346 293.83,-127.027 293.497,-118.364"/>
<polygon fill="red" stroke="red" points="292.804,-108.275 297.979,-117.944 293.147,-113.264 293.489,-118.252 293.489,-118.252 293.489,-118.252 293.147,-113.264 289,-118.56 292.804,-108.275 292.804,-108.275"/>
</g>
<!-- cac -->
<g id="node7" class="node"><title>cac</title>
<ellipse fill="none" stroke="black" cx="487.892" cy="-90" rx="103.182" ry="18"/>
<text text-anchor="middle" x="487.892" y="-86.3" font-family="Times,serif" font-size="14.00">Check.Around.Composite</text>
</g>
<!-- ca&#45;&gt;cac -->
<g id="edge6" class="edge"><title>ca&#45;&gt;cac</title>
<path fill="none" stroke="black" d="M487.892,-133.665C487.892,-125.054 487.892,-115.791 487.892,-108.104"/>
<polygon fill="black" stroke="black" points="484.392,-133.697 487.892,-143.697 491.392,-133.697 484.392,-133.697"/>
</g>
<!-- cas -->
<g id="node8" class="node"><title>cas</title>
<ellipse fill="none" stroke="black" cx="695.892" cy="-90" rx="87.1846" ry="18"/>
<text text-anchor="middle" x="695.892" y="-86.3" font-family="Times,serif" font-size="14.00">Check.Around.Single</text>
</g>
<!-- ca&#45;&gt;cas -->
<g id="edge7" class="edge"><title>ca&#45;&gt;cas</title>
<path fill="none" stroke="black" d="M536.562,-144.62C571.597,-132.83 618.45,-117.062 652.27,-105.68"/>
<polygon fill="black" stroke="black" points="535.376,-141.327 527.015,-147.834 537.609,-147.961 535.376,-141.327"/>
</g>
<!-- caa -->
<g id="node9" class="node"><title>caa</title>
<ellipse fill="none" stroke="black" cx="505.892" cy="-18" rx="83.3857" ry="18"/>
<text text-anchor="middle" x="505.892" y="-14.3" font-family="Times,serif" font-size="14.00">Check.Around.After</text>
</g>
<!-- ca&#45;&gt;caa -->
<g id="edge14" class="edge"><title>ca&#45;&gt;caa</title>
<path fill="none" stroke="red" stroke-dasharray="5,2" d="M549.851,-159.264C629.618,-155.572 761.596,-144.035 791.892,-108 802.188,-95.7532 802.123,-84.3013 791.892,-72 791.783,-71.869 661.62,-47.7866 576.953,-32.1335"/>
<polygon fill="red" stroke="red" points="566.865,-30.2685 577.516,-27.6615 571.781,-31.1775 576.698,-32.0865 576.698,-32.0865 576.698,-32.0865 571.781,-31.1775 575.88,-36.5115 566.865,-30.2685 566.865,-30.2685"/>
</g>
<!-- cab -->
<g id="node10" class="node"><title>cab</title>
<ellipse fill="none" stroke="black" cx="695.892" cy="-18" rx="89.0842" ry="18"/>
<text text-anchor="middle" x="695.892" y="-14.3" font-family="Times,serif" font-size="14.00">Check.Around.Before</text>
</g>
<!-- ca&#45;&gt;cab -->
<g id="edge15" class="edge"><title>ca&#45;&gt;cab</title>
<path fill="none" stroke="red" stroke-dasharray="5,2" d="M549.912,-159.956C633.931,-157.078 777.215,-146.495 809.892,-108 820.246,-95.8021 818.496,-85.4893 809.892,-72 799.097,-55.0778 781.347,-43.474 763.031,-35.5514"/>
<polygon fill="red" stroke="red" points="753.73,-31.8432 764.686,-31.3667 758.375,-33.6949 763.019,-35.5467 763.019,-35.5467 763.019,-35.5467 758.375,-33.6949 761.353,-39.7267 753.73,-31.8432 753.73,-31.8432"/>
</g>
<!-- cad -->
<g id="node11" class="node"><title>cad</title>
<ellipse fill="lightblue" stroke="black" cx="891.892" cy="-18" rx="89.0842" ry="18"/>
<text text-anchor="middle" x="891.892" y="-14.3" font-family="Times,serif" font-size="14.00">Check.Around.Dunno</text>
</g>
<!-- ca&#45;&gt;cad -->
<g id="edge16" class="edge"><title>ca&#45;&gt;cad</title>
<path fill="none" stroke="red" stroke-dasharray="5,2" d="M548.238,-157.177C633.017,-150.875 782.146,-136.11 827.892,-108 851.828,-93.2913 869.44,-65.9518 880.062,-45.4393"/>
<polygon fill="red" stroke="red" points="884.58,-36.2846 884.19,-47.2436 882.368,-40.7683 880.155,-45.252 880.155,-45.252 880.155,-45.252 882.368,-40.7683 876.119,-43.2604 884.58,-36.2846 884.58,-36.2846"/>
</g>
<!-- cas&#45;&gt;caa -->
<g id="edge8" class="edge"><title>cas&#45;&gt;caa</title>
<path fill="none" stroke="black" d="M645.374,-70.3884C614.366,-58.9641 575.19,-44.5311 546.257,-33.8716"/>
<polygon fill="black" stroke="black" points="644.538,-73.8103 655.132,-73.9832 646.958,-67.2419 644.538,-73.8103"/>
</g>
<!-- cas&#45;&gt;cab -->
<g id="edge9" class="edge"><title>cas&#45;&gt;cab</title>
<path fill="none" stroke="black" d="M695.892,-61.6651C695.892,-53.0537 695.892,-43.7913 695.892,-36.1043"/>
<polygon fill="black" stroke="black" points="692.392,-61.6966 695.892,-71.6966 699.392,-61.6967 692.392,-61.6966"/>
</g>
<!-- cas&#45;&gt;cad -->
<g id="edge10" class="edge"><title>cas&#45;&gt;cad</title>
<path fill="none" stroke="black" d="M747.105,-70.7097C779.159,-59.2615 819.94,-44.697 850.048,-33.9443"/>
<polygon fill="black" stroke="black" points="745.698,-67.4953 737.458,-74.1548 748.053,-74.0875 745.698,-67.4953"/>
</g>
<!-- caa&#45;&gt;cps -->
<g id="edge18" class="edge"><title>caa&#45;&gt;cps</title>
<path fill="none" stroke="red" stroke-dasharray="5,2" d="M461.156,-33.2989C426.235,-44.4611 377.595,-60.008 340.574,-71.8411"/>
<polygon fill="red" stroke="red" points="330.946,-74.9187 339.101,-67.5876 335.709,-73.3963 340.471,-71.874 340.471,-71.874 340.471,-71.874 335.709,-73.3963 341.841,-76.1604 330.946,-74.9187 330.946,-74.9187"/>
</g>
<!-- cab&#45;&gt;cps -->
<g id="edge17" class="edge"><title>cab&#45;&gt;cps</title>
<path fill="none" stroke="red" stroke-dasharray="5,2" d="M631.07,-30.3481C620.004,-32.2558 608.62,-34.1996 597.892,-36 499.314,-52.5423 474.325,-54.6215 375.892,-72 369.23,-73.176 362.296,-74.4366 355.368,-75.7202"/>
<polygon fill="red" stroke="red" points="345.255,-77.61 354.258,-71.3496 350.17,-76.6915 355.085,-75.773 355.085,-75.773 355.085,-75.773 350.17,-76.6915 355.911,-80.1965 345.255,-77.61 345.255,-77.61"/>
</g>
</g>
</svg>
