<?xml version="1.0" encoding="UTF-8" standalone="no"?>
<!DOCTYPE svg PUBLIC "-//W3C//DTD SVG 1.1//EN"
 "http://www.w3.org/Graphics/SVG/1.1/DTD/svg11.dtd">
<!-- Generated by graphviz version 2.42.3 (0)
 -->
<!-- Title: G Pages: 1 -->
<svg width="917pt" height="838pt"
 viewBox="0.00 0.00 916.95 838.22" xmlns="http://www.w3.org/2000/svg" xmlns:xlink="http://www.w3.org/1999/xlink">
<g id="graph0" class="graph" transform="scale(1 1) rotate(0) translate(4 834.22)">
<title>G</title>
<polygon fill="white" stroke="transparent" points="-4,4 -4,-834.22 912.95,-834.22 912.95,4 -4,4"/>
<!-- root -->
<g id="node1" class="node">
<title>root</title>
<ellipse fill="#444444" stroke="black" cx="388.89" cy="-812.22" rx="27" ry="18"/>
<text text-anchor="middle" x="388.89" y="-808.52" font-family="Times,serif" font-size="14.00" fill="white">Dsl</text>
</g>
<!-- Focus -->
<g id="node4" class="node">
<title>Focus</title>
<ellipse fill="lightgrey" stroke="black" cx="388.89" cy="-725.22" rx="37.89" ry="18"/>
<text text-anchor="middle" x="388.89" y="-721.52" font-family="Times,serif" font-size="14.00">Focus</text>
</g>
<!-- root&#45;&gt;Focus -->
<g id="edge2" class="edge">
<title>root&#45;&gt;Focus</title>
<path fill="none" stroke="black" d="M388.89,-794.02C388.89,-782.38 388.89,-766.77 388.89,-753.46"/>
<polygon fill="black" stroke="black" points="392.39,-753.4 388.89,-743.4 385.39,-753.4 392.39,-753.4"/>
<text text-anchor="start" x="388.89" y="-765.02" font-family="Times,serif" font-size="14.00">.focus</text>
</g>
<!-- Point -->
<g id="node2" class="node">
<title>Point</title>
<ellipse fill="#9bd858" stroke="black" cx="404.89" cy="-154.5" rx="34.39" ry="18"/>
<text text-anchor="middle" x="404.89" y="-150.8" font-family="Times,serif" font-size="14.00">Point</text>
</g>
<!-- Around -->
<g id="node3" class="node">
<title>Around</title>
<ellipse fill="#9bd858" stroke="black" cx="228.89" cy="-18" rx="44.39" ry="18"/>
<text text-anchor="middle" x="228.89" y="-14.3" font-family="Times,serif" font-size="14.00">Around</text>
</g>
<!-- Point&#45;&gt;Around -->
<g id="edge1" class="edge">
<title>Point&#45;&gt;Around</title>
<path fill="none" stroke="#555555" d="M386.06,-139.11C355.03,-115.39 292.99,-67.99 256.84,-40.35"/>
<polygon fill="#555555" stroke="#555555" points="258.74,-37.4 248.67,-34.11 254.49,-42.96 258.74,-37.4"/>
<text text-anchor="start" x="332.89" y="-87.8" font-family="Times,serif" font-size="14.00" fill="#111111">.before</text>
<text text-anchor="start" x="332.89" y="-72.8" font-family="Times,serif" font-size="14.00" fill="#111111">.after</text>
<text text-anchor="start" x="332.89" y="-57.8" font-family="Times,serif" font-size="14.00" fill="#111111">.beforeAndAfter</text>
</g>
<!-- FocusValue -->
<g id="node5" class="node">
<title>FocusValue</title>
<ellipse fill="#dfab62" stroke="black" cx="135.89" cy="-494.61" rx="41.02" ry="26.74"/>
<text text-anchor="middle" x="135.89" y="-498.41" font-family="Times,serif" font-size="14.00">Value</text>
<text text-anchor="middle" x="135.89" y="-483.41" font-family="Times,serif" font-size="14.00">Focus</text>
</g>
<!-- Focus&#45;&gt;FocusValue -->
<g id="edge3" class="edge">
<title>Focus&#45;&gt;FocusValue</title>
<path fill="none" stroke="#dfab62" d="M354.89,-717.13C294.01,-702.27 168.91,-661.35 127.89,-569.48 122.54,-557.49 122.71,-543.36 124.86,-530.68"/>
<polygon fill="#dfab62" stroke="#dfab62" points="128.28,-531.4 126.93,-520.89 121.43,-529.95 128.28,-531.4"/>
<text text-anchor="start" x="183.89" y="-610.65" font-family="Times,serif" font-size="14.00" fill="#785005">.value</text>
</g>
<!-- FocusOption -->
<g id="node7" class="node">
<title>FocusOption</title>
<ellipse fill="#ff9e93" stroke="black" cx="305.89" cy="-614.35" rx="45.92" ry="26.74"/>
<text text-anchor="middle" x="305.89" y="-618.15" font-family="Times,serif" font-size="14.00">Option</text>
<text text-anchor="middle" x="305.89" y="-603.15" font-family="Times,serif" font-size="14.00">Focus</text>
</g>
<!-- Focus&#45;&gt;FocusOption -->
<g id="edge11" class="edge">
<title>Focus&#45;&gt;FocusOption</title>
<path fill="none" stroke="#ff9e93" d="M376.65,-708.16C364.44,-692.14 345.36,-667.12 330.09,-647.09"/>
<polygon fill="#ff9e93" stroke="#ff9e93" points="332.87,-644.96 324.03,-639.13 327.3,-649.21 332.87,-644.96"/>
<text text-anchor="start" x="362.89" y="-670.52" font-family="Times,serif" font-size="14.00" fill="#be4343">.option</text>
</g>
<!-- FocusColl -->
<g id="node9" class="node">
<title>FocusColl</title>
<ellipse fill="#cf9ed3" stroke="black" cx="549.89" cy="-614.35" rx="62.45" ry="26.74"/>
<text text-anchor="middle" x="549.89" y="-618.15" font-family="Times,serif" font-size="14.00">Collection</text>
<text text-anchor="middle" x="549.89" y="-603.15" font-family="Times,serif" font-size="14.00">Focus</text>
</g>
<!-- Focus&#45;&gt;FocusColl -->
<g id="edge18" class="edge">
<title>Focus&#45;&gt;FocusColl</title>
<path fill="none" stroke="#cf9ed3" d="M409.94,-709.99C434.95,-693.08 477.26,-664.47 508.82,-643.12"/>
<polygon fill="#cf9ed3" stroke="#cf9ed3" points="511.1,-645.81 517.42,-637.31 507.17,-640.01 511.1,-645.81"/>
<text text-anchor="start" x="483.89" y="-670.52" font-family="Times,serif" font-size="14.00" fill="#6e4373">.collection</text>
</g>
<!-- BiFocus -->
<g id="node11" class="node">
<title>BiFocus</title>
<ellipse fill="#90d1ba" stroke="black" cx="782.89" cy="-614.35" rx="62.87" ry="26.74"/>
<text text-anchor="middle" x="782.89" y="-618.15" font-family="Times,serif" font-size="14.00">Value Pair</text>
<text text-anchor="middle" x="782.89" y="-603.15" font-family="Times,serif" font-size="14.00">Focus</text>
</g>
<!-- Focus&#45;&gt;BiFocus -->
<g id="edge26" class="edge">
<title>Focus&#45;&gt;BiFocus</title>
<path fill="none" stroke="#90d1ba" d="M424.1,-718.34C459.07,-712.2 514.08,-701.72 560.89,-689.22 618.29,-673.89 682.57,-651.96 727.13,-635.98"/>
<polygon fill="#90d1ba" stroke="#90d1ba" points="728.39,-639.25 736.61,-632.57 726.02,-632.66 728.39,-639.25"/>
<text text-anchor="start" x="659.89" y="-678.02" font-family="Times,serif" font-size="14.00" fill="#32715d">.compare</text>
<text text-anchor="start" x="659.89" y="-663.02" font-family="Times,serif" font-size="14.00" fill="#32715d">.obsAndState</text>
</g>
<!-- FocusValue&#45;&gt;Point -->
<g id="edge7" class="edge">
<title>FocusValue&#45;&gt;Point</title>
<path fill="none" stroke="#dfab62" d="M160.61,-472.54C168.34,-465.55 176.72,-457.56 183.89,-449.74 211.05,-420.13 215.33,-410.54 238.89,-378 257.84,-351.84 254.41,-337.85 279.89,-318 298.2,-303.74 312.91,-316.81 328.89,-300 357.76,-269.64 336.38,-246.52 356.89,-210 363.36,-198.49 372.56,-187.28 381.19,-178.05"/>
<polygon fill="#dfab62" stroke="#dfab62" points="383.77,-180.41 388.22,-170.8 378.74,-175.54 383.77,-180.41"/>
<text text-anchor="start" x="279.89" y="-351.8" font-family="Times,serif" font-size="14.00" fill="#785005">.assert(…)</text>
<text text-anchor="start" x="279.89" y="-336.8" font-family="Times,serif" font-size="14.00" fill="#785005">.test</text>
</g>
<!-- FocusValue&#45;&gt;Around -->
<g id="edge9" class="edge">
<title>FocusValue&#45;&gt;Around</title>
<path fill="none" stroke="#dfab62" d="M113.31,-471.78C67.28,-424.53 -29.8,-309.02 9.89,-210 45.57,-121.01 81.76,-110.95 158.89,-54 168.18,-47.14 179.02,-40.98 189.35,-35.81"/>
<polygon fill="#dfab62" stroke="#dfab62" points="191.14,-38.83 198.64,-31.34 188.11,-32.52 191.14,-38.83"/>
<text text-anchor="start" x="9.89" y="-251.3" font-family="Times,serif" font-size="14.00" fill="#785005">.testAround</text>
</g>
<!-- FocusValue&#45;&gt;FocusValue -->
<g id="edge4" class="edge">
<title>FocusValue&#45;&gt;FocusValue</title>
<path fill="none" stroke="#dfab62" d="M173.64,-505.48C185.53,-505.31 194.91,-501.69 194.91,-494.61 194.91,-489.74 190.47,-486.51 183.84,-484.91"/>
<polygon fill="#dfab62" stroke="#dfab62" points="183.97,-481.4 173.64,-483.74 183.17,-488.36 183.97,-481.4"/>
<text text-anchor="start" x="194.91" y="-498.41" font-family="Times,serif" font-size="14.00" fill="#785005">.map</text>
<text text-anchor="start" x="194.91" y="-483.41" font-family="Times,serif" font-size="14.00" fill="#785005">.rename</text>
</g>
<!-- FocusValueAO -->
<g id="node6" class="node">
<title>FocusValueAO</title>
<ellipse fill="#dfab62" stroke="black" cx="118.89" cy="-348" rx="65.11" ry="26.74"/>
<text text-anchor="middle" x="118.89" y="-351.8" font-family="Times,serif" font-size="14.00">Value</text>
<text text-anchor="middle" x="118.89" y="-336.8" font-family="Times,serif" font-size="14.00">Assertions</text>
</g>
<!-- FocusValue&#45;&gt;FocusValueAO -->
<g id="edge5" class="edge">
<title>FocusValue&#45;&gt;FocusValueAO</title>
<path fill="none" stroke="#dfab62" d="M132.85,-467.76C130.15,-444.77 126.17,-410.91 123.15,-385.22"/>
<polygon fill="#dfab62" stroke="#dfab62" points="126.61,-384.64 121.96,-375.12 119.66,-385.46 126.61,-384.64"/>
<text text-anchor="start" x="130.89" y="-419.17" font-family="Times,serif" font-size="14.00" fill="#785005">.assert</text>
</g>
<!-- FocusValueAO&#45;&gt;Point -->
<g id="edge8" class="edge">
<title>FocusValueAO&#45;&gt;Point</title>
<path fill="none" stroke="#dfab62" d="M111.34,-321.22C104.13,-290.7 97.93,-240.19 124.89,-210 141.98,-190.87 213.69,-196.76 238.89,-192 281.86,-183.89 330.7,-172.94 364.22,-165.16"/>
<polygon fill="#dfab62" stroke="#dfab62" points="365.16,-168.53 374.11,-162.85 363.57,-161.71 365.16,-168.53"/>
<text text-anchor="start" x="124.89" y="-251.3" font-family="Times,serif" font-size="14.00" fill="#785005">.equal{,By}{,WhenDefined}</text>
</g>
<!-- FocusValueAO&#45;&gt;Around -->
<g id="edge10" class="edge">
<title>FocusValueAO&#45;&gt;Around</title>
<path fill="none" stroke="#dfab62" d="M109.68,-320.95C107.7,-314.21 105.9,-306.91 104.89,-300 99.12,-260.42 93.54,-248.35 104.89,-210 124.85,-142.62 176.87,-76.73 206.81,-42.74"/>
<polygon fill="#dfab62" stroke="#dfab62" points="209.5,-44.98 213.56,-35.2 204.28,-40.32 209.5,-44.98"/>
<text text-anchor="start" x="149.89" y="-180.8" font-family="Times,serif" font-size="14.00" fill="#785005">.beforeAndAfter(By)</text>
<text text-anchor="start" x="149.89" y="-165.8" font-family="Times,serif" font-size="14.00" fill="#785005">.change(To)</text>
<text text-anchor="start" x="149.89" y="-150.8" font-family="Times,serif" font-size="14.00" fill="#785005">.noChange</text>
<text text-anchor="start" x="149.89" y="-135.8" font-family="Times,serif" font-size="14.00" fill="#785005">.{de,inc}rease(By)</text>
<text text-anchor="start" x="149.89" y="-120.8" font-family="Times,serif" font-size="14.00" fill="#785005">.{de,inc}rement</text>
</g>
<!-- FocusValueAO&#45;&gt;FocusValueAO -->
<g id="edge6" class="edge">
<title>FocusValueAO&#45;&gt;FocusValueAO</title>
<path fill="none" stroke="#dfab62" d="M174.79,-361.79C190.18,-361.12 201.95,-356.53 201.95,-348 201.95,-341.47 195.05,-337.25 184.91,-335.33"/>
<polygon fill="#dfab62" stroke="#dfab62" points="185.11,-331.83 174.79,-334.21 184.35,-338.78 185.11,-331.83"/>
<text text-anchor="start" x="201.95" y="-344.3" font-family="Times,serif" font-size="14.00" fill="#785005">.not</text>
</g>
<!-- FocusOption&#45;&gt;Point -->
<g id="edge16" class="edge">
<title>FocusOption&#45;&gt;Point</title>
<path fill="none" stroke="#ff9e93" d="M300.66,-587.64C290.92,-536.79 272.92,-425.68 294.89,-396 311.21,-373.97 335.21,-398.06 353.89,-378 404.66,-323.5 408.38,-229.11 406.76,-182.77"/>
<polygon fill="#ff9e93" stroke="#ff9e93" points="410.25,-182.42 406.29,-172.59 403.26,-182.74 410.25,-182.42"/>
<text text-anchor="start" x="294.89" y="-419.17" font-family="Times,serif" font-size="14.00" fill="#be4343">.assert(…)</text>
</g>
<!-- FocusOption&#45;&gt;FocusValue -->
<g id="edge14" class="edge">
<title>FocusOption&#45;&gt;FocusValue</title>
<path fill="none" stroke="#ff9e93" d="M261.5,-607.16C218.66,-600.21 158.11,-587.51 142.89,-569.48 134.24,-559.23 131.47,-545.09 131.22,-531.93"/>
<polygon fill="#ff9e93" stroke="#ff9e93" points="134.73,-531.76 131.51,-521.67 127.73,-531.57 134.73,-531.76"/>
<text text-anchor="start" x="142.89" y="-558.28" font-family="Times,serif" font-size="14.00" fill="#be4343">.is{Defined,Empty}</text>
<text text-anchor="start" x="142.89" y="-543.28" font-family="Times,serif" font-size="14.00" fill="#be4343">.value(By)</text>
</g>
<!-- FocusOption&#45;&gt;FocusOption -->
<g id="edge12" class="edge">
<title>FocusOption&#45;&gt;FocusOption</title>
<path fill="none" stroke="#ff9e93" d="M348.03,-625.19C360.33,-624.82 369.86,-621.2 369.86,-614.35 369.86,-609.53 365.15,-606.31 358.07,-604.7"/>
<polygon fill="#ff9e93" stroke="#ff9e93" points="358.37,-601.21 348.03,-603.51 357.55,-608.16 358.37,-601.21"/>
<text text-anchor="start" x="369.86" y="-625.65" font-family="Times,serif" font-size="14.00" fill="#be4343">.filter</text>
<text text-anchor="start" x="369.86" y="-610.65" font-family="Times,serif" font-size="14.00" fill="#be4343">.map</text>
<text text-anchor="start" x="369.86" y="-595.65" font-family="Times,serif" font-size="14.00" fill="#be4343">.mapOption</text>
</g>
<!-- FocusOptionAO -->
<g id="node8" class="node">
<title>FocusOptionAO</title>
<ellipse fill="#ff9e93" stroke="black" cx="442.89" cy="-422.87" rx="65.11" ry="26.74"/>
<text text-anchor="middle" x="442.89" y="-426.67" font-family="Times,serif" font-size="14.00">Option</text>
<text text-anchor="middle" x="442.89" y="-411.67" font-family="Times,serif" font-size="14.00">Assertions</text>
</g>
<!-- FocusOption&#45;&gt;FocusOptionAO -->
<g id="edge13" class="edge">
<title>FocusOption&#45;&gt;FocusOptionAO</title>
<path fill="none" stroke="#ff9e93" d="M349.91,-606.54C373.22,-600.63 400.36,-589.69 416.89,-569.48 441.94,-538.85 446.26,-492.34 445.72,-460.17"/>
<polygon fill="#ff9e93" stroke="#ff9e93" points="449.21,-459.73 445.38,-449.85 442.21,-459.96 449.21,-459.73"/>
<text text-anchor="start" x="433.89" y="-550.78" font-family="Times,serif" font-size="14.00" fill="#be4343">.assert</text>
</g>
<!-- FocusOptionAO&#45;&gt;Point -->
<g id="edge17" class="edge">
<title>FocusOptionAO&#45;&gt;Point</title>
<path fill="none" stroke="#ff9e93" d="M439.18,-395.84C431.96,-345.25 416.1,-234.08 408.76,-182.62"/>
<polygon fill="#ff9e93" stroke="#ff9e93" points="412.21,-181.99 407.33,-172.59 405.28,-182.98 412.21,-181.99"/>
<text text-anchor="start" x="436.89" y="-366.8" font-family="Times,serif" font-size="14.00" fill="#be4343">.contains</text>
<text text-anchor="start" x="436.89" y="-351.8" font-family="Times,serif" font-size="14.00" fill="#be4343">.equal(By)</text>
<text text-anchor="start" x="436.89" y="-336.8" font-family="Times,serif" font-size="14.00" fill="#be4343">.exists</text>
<text text-anchor="start" x="436.89" y="-321.8" font-family="Times,serif" font-size="14.00" fill="#be4343">.forall</text>
</g>
<!-- FocusOptionAO&#45;&gt;FocusOptionAO -->
<g id="edge15" class="edge">
<title>FocusOptionAO&#45;&gt;FocusOptionAO</title>
<path fill="none" stroke="#ff9e93" d="M499.96,-435.86C514.77,-435.06 525.95,-430.73 525.95,-422.87 525.95,-416.91 519.53,-412.98 509.97,-411.08"/>
<polygon fill="#ff9e93" stroke="#ff9e93" points="510.3,-407.6 499.96,-409.88 509.47,-414.55 510.3,-407.6"/>
<text text-anchor="start" x="525.95" y="-419.17" font-family="Times,serif" font-size="14.00" fill="#be4343">.not</text>
</g>
<!-- FocusColl&#45;&gt;Point -->
<g id="edge23" class="edge">
<title>FocusColl&#45;&gt;Point</title>
<path fill="none" stroke="#cf9ed3" d="M554.81,-587.44C561.67,-546.21 571.54,-463.43 554.89,-396 532.78,-306.38 462.54,-218.98 426.57,-178.65"/>
<polygon fill="#cf9ed3" stroke="#cf9ed3" points="428.96,-176.07 419.65,-171 423.77,-180.77 428.96,-176.07"/>
<text text-anchor="start" x="562.89" y="-419.17" font-family="Times,serif" font-size="14.00" fill="#6e4373">.assert(…)</text>
</g>
<!-- FocusColl&#45;&gt;FocusValue -->
<g id="edge21" class="edge">
<title>FocusColl&#45;&gt;FocusValue</title>
<path fill="none" stroke="#cf9ed3" d="M500.98,-597.51C488.64,-593.87 475.35,-590.26 462.89,-587.48 410.69,-575.83 394.59,-586.55 343.89,-569.48 317.5,-560.6 314.65,-550.05 288.89,-539.48 254.9,-525.53 214.94,-514.24 184.39,-506.61"/>
<polygon fill="#cf9ed3" stroke="#cf9ed3" points="184.95,-503.14 174.41,-504.16 183.29,-509.94 184.95,-503.14"/>
<text text-anchor="start" x="343.89" y="-558.28" font-family="Times,serif" font-size="14.00" fill="#6e4373">.size</text>
<text text-anchor="start" x="343.89" y="-543.28" font-family="Times,serif" font-size="14.00" fill="#6e4373">.value(By)</text>
</g>
<!-- FocusColl&#45;&gt;FocusColl -->
<g id="edge19" class="edge">
<title>FocusColl&#45;&gt;FocusColl</title>
<path fill="none" stroke="#cf9ed3" d="M607.22,-624.99C620.42,-624.07 630.12,-620.52 630.12,-614.35 630.12,-609.86 625,-606.77 617.14,-605.06"/>
<polygon fill="#cf9ed3" stroke="#cf9ed3" points="617.6,-601.59 607.22,-603.71 616.66,-608.52 617.6,-601.59"/>
<text text-anchor="start" x="630.12" y="-625.65" font-family="Times,serif" font-size="14.00" fill="#6e4373">.filter</text>
<text text-anchor="start" x="630.12" y="-610.65" font-family="Times,serif" font-size="14.00" fill="#6e4373">.map</text>
<text text-anchor="start" x="630.12" y="-595.65" font-family="Times,serif" font-size="14.00" fill="#6e4373">.mapColl</text>
</g>
<!-- FocusCollAO -->
<g id="node10" class="node">
<title>FocusCollAO</title>
<ellipse fill="#cf9ed3" stroke="black" cx="652.89" cy="-348" rx="65.11" ry="26.74"/>
<text text-anchor="middle" x="652.89" y="-351.8" font-family="Times,serif" font-size="14.00">Collection</text>
<text text-anchor="middle" x="652.89" y="-336.8" font-family="Times,serif" font-size="14.00">Assertions</text>
</g>
<!-- FocusColl&#45;&gt;FocusCollAO -->
<g id="edge20" class="edge">
<title>FocusColl&#45;&gt;FocusCollAO</title>
<path fill="none" stroke="#cf9ed3" d="M574.6,-589.34C580.31,-583.15 586.11,-576.31 590.89,-569.48 625.18,-520.57 637.67,-507.75 651.89,-449.74 657.03,-428.81 657.45,-404.7 656.51,-385.31"/>
<polygon fill="#cf9ed3" stroke="#cf9ed3" points="659.99,-384.84 655.87,-375.08 653,-385.28 659.99,-384.84"/>
<text text-anchor="start" x="646.89" y="-490.91" font-family="Times,serif" font-size="14.00" fill="#6e4373">.assert</text>
</g>
<!-- FocusCollAO&#45;&gt;Point -->
<g id="edge24" class="edge">
<title>FocusCollAO&#45;&gt;Point</title>
<path fill="none" stroke="#cf9ed3" d="M612.35,-326.92C601.4,-319.77 590.49,-310.76 582.89,-300 559.08,-266.28 587.78,-240.45 559.89,-210 531.23,-178.69 483.51,-165.37 448.58,-159.7"/>
<polygon fill="#cf9ed3" stroke="#cf9ed3" points="449.05,-156.23 438.64,-158.23 448.03,-163.15 449.05,-156.23"/>
<text text-anchor="start" x="582.89" y="-288.8" font-family="Times,serif" font-size="14.00" fill="#6e4373">.contains(All,Any,None,Only)</text>
<text text-anchor="start" x="582.89" y="-273.8" font-family="Times,serif" font-size="14.00" fill="#6e4373">.distinct</text>
<text text-anchor="start" x="582.89" y="-258.8" font-family="Times,serif" font-size="14.00" fill="#6e4373">.equal(IgnoringOrder)(By)</text>
<text text-anchor="start" x="582.89" y="-243.8" font-family="Times,serif" font-size="14.00" fill="#6e4373">.existenceOf(All(By))</text>
<text text-anchor="start" x="582.89" y="-228.8" font-family="Times,serif" font-size="14.00" fill="#6e4373">.exists</text>
<text text-anchor="start" x="582.89" y="-213.8" font-family="Times,serif" font-size="14.00" fill="#6e4373">.forall</text>
</g>
<!-- FocusCollAO&#45;&gt;Around -->
<g id="edge25" class="edge">
<title>FocusCollAO&#45;&gt;Around</title>
<path fill="none" stroke="#cf9ed3" d="M716.14,-341.43C743.48,-335.51 773.02,-323.63 789.89,-300 813.14,-267.45 811.45,-243.69 789.89,-210 700.72,-70.64 610.24,-101.95 451.89,-54 395.23,-36.84 327.78,-27.75 282.01,-23.17"/>
<polygon fill="#cf9ed3" stroke="#cf9ed3" points="282.3,-19.68 272.02,-22.21 281.63,-26.65 282.3,-19.68"/>
<text text-anchor="start" x="775.89" y="-150.8" font-family="Times,serif" font-size="14.00" fill="#6e4373">.elemChanges(By)</text>
</g>
<!-- FocusCollAO&#45;&gt;FocusCollAO -->
<g id="edge22" class="edge">
<title>FocusCollAO&#45;&gt;FocusCollAO</title>
<path fill="none" stroke="#cf9ed3" d="M708.79,-361.79C724.18,-361.12 735.95,-356.53 735.95,-348 735.95,-341.47 729.05,-337.25 718.91,-335.33"/>
<polygon fill="#cf9ed3" stroke="#cf9ed3" points="719.11,-331.83 708.79,-334.21 718.35,-338.78 719.11,-331.83"/>
<text text-anchor="start" x="735.95" y="-344.3" font-family="Times,serif" font-size="14.00" fill="#6e4373">.not</text>
</g>
<!-- BiFocus&#45;&gt;BiFocus -->
<g id="edge27" class="edge">
<title>BiFocus&#45;&gt;BiFocus</title>
<path fill="none" stroke="#90d1ba" d="M840.73,-624.99C854.04,-624.07 863.83,-620.52 863.83,-614.35 863.83,-609.86 858.66,-606.77 850.73,-605.06"/>
<polygon fill="#90d1ba" stroke="#90d1ba" points="851.11,-601.58 840.73,-603.71 850.18,-608.51 851.11,-601.58"/>
<text text-anchor="start" x="863.83" y="-610.65" font-family="Times,serif" font-size="14.00" fill="#32715d">.map</text>
</g>
<!-- BiFocusAO -->
<g id="node12" class="node">
<title>BiFocusAO</title>
<ellipse fill="#90d1ba" stroke="black" cx="797.89" cy="-422.87" rx="65.11" ry="26.74"/>
<text text-anchor="middle" x="797.89" y="-426.67" font-family="Times,serif" font-size="14.00">Value Pair</text>
<text text-anchor="middle" x="797.89" y="-411.67" font-family="Times,serif" font-size="14.00">Assertions</text>
</g>
<!-- BiFocus&#45;&gt;BiFocusAO -->
<g id="edge28" class="edge">
<title>BiFocus&#45;&gt;BiFocusAO</title>
<path fill="none" stroke="#90d1ba" d="M784.95,-587.4C787.56,-554.47 792.07,-497.47 795.02,-460.22"/>
<polygon fill="#90d1ba" stroke="#90d1ba" points="798.54,-460.05 795.84,-449.81 791.56,-459.5 798.54,-460.05"/>
<text text-anchor="start" x="788.89" y="-550.78" font-family="Times,serif" font-size="14.00" fill="#32715d">.assert</text>
</g>
<!-- BiFocusAO&#45;&gt;Point -->
<g id="edge30" class="edge">
<title>BiFocusAO&#45;&gt;Point</title>
<path fill="none" stroke="#90d1ba" d="M805.63,-396.12C817.17,-351.85 832.86,-261.16 785.89,-210 741.45,-161.58 540.35,-155.4 449.58,-155.13"/>
<polygon fill="#90d1ba" stroke="#90d1ba" points="449.34,-151.63 439.34,-155.12 449.34,-158.63 449.34,-151.63"/>
<text text-anchor="start" x="817.89" y="-344.3" font-family="Times,serif" font-size="14.00" fill="#32715d">.equal</text>
</g>
<!-- BiFocusAO&#45;&gt;BiFocusAO -->
<g id="edge29" class="edge">
<title>BiFocusAO&#45;&gt;BiFocusAO</title>
<path fill="none" stroke="#90d1ba" d="M854.96,-435.86C869.77,-435.06 880.95,-430.73 880.95,-422.87 880.95,-416.91 874.53,-412.98 864.97,-411.08"/>
<polygon fill="#90d1ba" stroke="#90d1ba" points="865.3,-407.6 854.96,-409.88 864.47,-414.55 865.3,-407.6"/>
<text text-anchor="start" x="880.95" y="-419.17" font-family="Times,serif" font-size="14.00" fill="#32715d">.not</text>
</g>
</g>
</svg>
