<?xml version="1.0" encoding="UTF-8" standalone="no"?>
<!DOCTYPE svg PUBLIC "-//W3C//DTD SVG 1.1//EN"
 "http://www.w3.org/Graphics/SVG/1.1/DTD/svg11.dtd">
<!-- Generated by graphviz version 2.38.0 (20140413.2041)
 -->
<!-- Title: G Pages: 1 -->
<svg width="742pt" height="461pt"
 viewBox="0.00 0.00 742.30 460.74" xmlns="http://www.w3.org/2000/svg" xmlns:xlink="http://www.w3.org/1999/xlink">
<g id="graph0" class="graph" transform="scale(1 1) rotate(0) translate(4 456.74)">
<title>G</title>
<polygon fill="white" stroke="none" points="-4,4 -4,-456.74 738.304,-456.74 738.304,4 -4,4"/>
<!-- root -->
<g id="node1" class="node"><title>root</title>
<ellipse fill="#333333" stroke="black" cx="239.304" cy="-434.74" rx="27" ry="18"/>
<text text-anchor="middle" x="239.304" y="-431.04" font-family="Times,serif" font-size="14.00" fill="white">Dsl</text>
</g>
<!-- action -->
<g id="node2" class="node"><title>action</title>
<ellipse fill="#e4e4e4" stroke="black" cx="187.304" cy="-230.87" rx="37.4533" ry="26.7407"/>
<text text-anchor="middle" x="187.304" y="-234.67" font-family="Times,serif" font-size="14.00">Action</text>
<text text-anchor="middle" x="187.304" y="-219.67" font-family="Times,serif" font-size="14.00">Dsl</text>
</g>
<!-- root&#45;&gt;action -->
<g id="edge5" class="edge"><title>root&#45;&gt;action</title>
<path fill="none" stroke="black" d="M217.058,-424.524C206.313,-418.805 194.442,-410.314 188.304,-398.74 166.558,-357.742 171.635,-302.715 178.481,-267.268"/>
<polygon fill="black" stroke="black" points="181.929,-267.879 180.536,-257.376 175.075,-266.455 181.929,-267.879"/>
<text text-anchor="middle" x="206.804" y="-372.54" font-family="Times,serif" font-size="14.00">.action</text>
</g>
<!-- Action -->
<g id="node3" class="node"><title>Action</title>
<ellipse fill="lightgreen" stroke="black" cx="152.304" cy="-37.5" rx="34.394" ry="18"/>
<text text-anchor="middle" x="152.304" y="-33.8" font-family="Times,serif" font-size="14.00">Action</text>
</g>
<!-- root&#45;&gt;Action -->
<g id="edge1" class="edge"><title>root&#45;&gt;Action</title>
<path fill="none" stroke="black" d="M216.252,-425.021C166.466,-404.724 50.0216,-348.988 8.30368,-257.74 -28.032,-178.265 71.0214,-94.7473 122.905,-57.9052"/>
<polygon fill="black" stroke="black" points="125.194,-60.5762 131.4,-51.9896 121.194,-54.8317 125.194,-60.5762"/>
<text text-anchor="start" x="8.30368" y="-242.17" font-family="Times,serif" font-size="14.00">.chooseAction(Attempt)</text>
<text text-anchor="start" x="8.30368" y="-227.17" font-family="Times,serif" font-size="14.00">.emptyAction</text>
<text text-anchor="start" x="8.30368" y="-212.17" font-family="Times,serif" font-size="14.00">.print</text>
</g>
<!-- Invariant -->
<g id="node4" class="node"><title>Invariant</title>
<ellipse fill="lightgreen" stroke="black" cx="462.304" cy="-37.5" rx="42.4939" ry="18"/>
<text text-anchor="middle" x="462.304" y="-33.8" font-family="Times,serif" font-size="14.00">Invariant</text>
</g>
<!-- root&#45;&gt;Invariant -->
<g id="edge4" class="edge"><title>root&#45;&gt;Invariant</title>
<path fill="none" stroke="black" d="M266.405,-433.652C312.197,-432.674 407.138,-427.046 481.304,-398.74 528.636,-380.675 552.344,-380.379 576.304,-335.74 628.159,-239.13 531.182,-113.75 484.906,-62.2086"/>
<polygon fill="black" stroke="black" points="487.273,-59.6101 477.945,-54.5862 482.104,-64.3306 487.273,-59.6101"/>
<text text-anchor="start" x="589.304" y="-234.67" font-family="Times,serif" font-size="14.00">.chooseInvariant(Attempt)</text>
<text text-anchor="start" x="589.304" y="-219.67" font-family="Times,serif" font-size="14.00">.emptyInvariant</text>
</g>
<!-- Point -->
<g id="node5" class="node"><title>Point</title>
<ellipse fill="lightblue" stroke="black" cx="423.304" cy="-305.74" rx="29.4969" ry="18"/>
<text text-anchor="middle" x="423.304" y="-302.04" font-family="Times,serif" font-size="14.00">Point</text>
</g>
<!-- root&#45;&gt;Point -->
<g id="edge3" class="edge"><title>root&#45;&gt;Point</title>
<path fill="none" stroke="black" d="M257.619,-421.099C290.102,-398.678 357.953,-351.846 395.978,-325.601"/>
<polygon fill="black" stroke="black" points="398.273,-328.27 404.515,-319.709 394.296,-322.509 398.273,-328.27"/>
<text text-anchor="start" x="353.304" y="-387.54" font-family="Times,serif" font-size="14.00">.choosePoint(Attempt)</text>
<text text-anchor="start" x="353.304" y="-372.54" font-family="Times,serif" font-size="14.00">.point</text>
<text text-anchor="start" x="353.304" y="-357.54" font-family="Times,serif" font-size="14.00">.test</text>
</g>
<!-- Around -->
<g id="node6" class="node"><title>Around</title>
<ellipse fill="lightblue" stroke="black" cx="273.304" cy="-156" rx="37.8943" ry="18"/>
<text text-anchor="middle" x="273.304" y="-152.3" font-family="Times,serif" font-size="14.00">Around</text>
</g>
<!-- root&#45;&gt;Around -->
<g id="edge2" class="edge"><title>root&#45;&gt;Around</title>
<path fill="none" stroke="black" d="M239.437,-416.593C239.85,-387.501 241.531,-326.67 248.304,-275.74 252.537,-243.906 260.593,-207.881 266.419,-183.944"/>
<polygon fill="black" stroke="black" points="269.834,-184.712 268.839,-174.164 263.039,-183.03 269.834,-184.712"/>
<text text-anchor="start" x="248.304" y="-324.54" font-family="Times,serif" font-size="14.00">.around</text>
<text text-anchor="start" x="248.304" y="-309.54" font-family="Times,serif" font-size="14.00">.chooseAround(Attempt)</text>
<text text-anchor="start" x="248.304" y="-294.54" font-family="Times,serif" font-size="14.00">.emptyAround</text>
<text text-anchor="start" x="248.304" y="-279.54" font-family="Times,serif" font-size="14.00">.testAround</text>
</g>
<!-- action&#45;&gt;Action -->
<g id="edge6" class="edge"><title>action&#45;&gt;Action</title>
<path fill="none" stroke="black" d="M170.821,-206.698C167.037,-200.276 163.487,-193.109 161.304,-186 148.894,-145.592 148.73,-96.0976 150.19,-65.9521"/>
<polygon fill="black" stroke="black" points="153.695,-65.9602 150.781,-55.7739 146.707,-65.554 153.695,-65.9602"/>
<text text-anchor="start" x="161.304" y="-174.8" font-family="Times,serif" font-size="14.00">.apply</text>
<text text-anchor="start" x="161.304" y="-159.8" font-family="Times,serif" font-size="14.00">.attempt</text>
<text text-anchor="start" x="161.304" y="-144.8" font-family="Times,serif" font-size="14.00">.update(By)</text>
<text text-anchor="start" x="161.304" y="-129.8" font-family="Times,serif" font-size="14.00">.full</text>
</g>
<!-- Action&#45;&gt;Action -->
<g id="edge11" class="edge"><title>Action&#45;&gt;Action</title>
<path fill="none" stroke="black" d="M179.289,-48.7816C192.746,-50.3426 204.751,-46.582 204.751,-37.5 204.751,-30.8304 198.277,-27.0307 189.507,-26.1009"/>
<polygon fill="black" stroke="black" points="189.248,-22.6036 179.289,-26.2184 189.328,-29.6031 189.248,-22.6036"/>
<text text-anchor="start" x="204.751" y="-63.8" font-family="Times,serif" font-size="14.00">.group(…)</text>
<text text-anchor="start" x="204.751" y="-48.8" font-family="Times,serif" font-size="14.00">.rename(…)</text>
<text text-anchor="start" x="204.751" y="-33.8" font-family="Times,serif" font-size="14.00">.times</text>
<text text-anchor="start" x="204.751" y="-18.8" font-family="Times,serif" font-size="14.00">.updateState(Attempt)(By)</text>
<text text-anchor="start" x="204.751" y="-3.8" font-family="Times,serif" font-size="14.00">.when/unless/skip</text>
</g>
<!-- Invariant&#45;&gt;Invariant -->
<g id="edge14" class="edge"><title>Invariant&#45;&gt;Invariant</title>
<path fill="none" stroke="black" d="M495.148,-48.9434C509.842,-50.0332 522.55,-46.2188 522.55,-37.5 522.55,-30.8928 515.252,-27.1021 505.322,-26.1278"/>
<polygon fill="black" stroke="black" points="505.172,-22.6267 495.148,-26.0566 505.123,-29.6266 505.172,-22.6267"/>
<text text-anchor="start" x="522.55" y="-41.3" font-family="Times,serif" font-size="14.00">.rename(…)</text>
<text text-anchor="start" x="522.55" y="-26.3" font-family="Times,serif" font-size="14.00">.when/unless/skip</text>
</g>
<!-- Point&#45;&gt;Invariant -->
<g id="edge7" class="edge"><title>Point&#45;&gt;Invariant</title>
<path fill="none" stroke="#888888" stroke-dasharray="5,2" d="M433.896,-288.933C439.214,-280.137 445.177,-268.766 448.304,-257.74 467.304,-190.736 466.321,-107.772 464.196,-65.7071"/>
<polygon fill="#888888" stroke="#888888" points="467.689,-65.475 463.628,-55.6894 460.7,-65.8716 467.689,-65.475"/>
<text text-anchor="middle" x="491.304" y="-152.3" font-family="Times,serif" font-size="14.00" fill="#555555">(implicit)</text>
</g>
<!-- Point&#45;&gt;Point -->
<g id="edge13" class="edge"><title>Point&#45;&gt;Point</title>
<path fill="none" stroke="black" d="M445.174,-318.045C458.247,-320.779 470.551,-316.678 470.551,-305.74 470.551,-297.708 463.915,-293.362 455.213,-292.703"/>
<polygon fill="black" stroke="black" points="454.893,-289.217 445.174,-293.435 455.402,-296.199 454.893,-289.217"/>
<text text-anchor="start" x="470.551" y="-309.54" font-family="Times,serif" font-size="14.00">.rename(…)</text>
<text text-anchor="start" x="470.551" y="-294.54" font-family="Times,serif" font-size="14.00">.when/unless/skip</text>
</g>
<!-- Point&#45;&gt;Around -->
<g id="edge9" class="edge"><title>Point&#45;&gt;Around</title>
<path fill="none" stroke="black" d="M404.324,-292.025C387.809,-280.816 365.3,-265.15 357.304,-257.74 331.905,-234.207 307.044,-203.09 291.043,-181.7"/>
<polygon fill="black" stroke="black" points="293.711,-179.423 284.955,-173.458 288.081,-183.582 293.711,-179.423"/>
<text text-anchor="start" x="357.304" y="-242.17" font-family="Times,serif" font-size="14.00">.after</text>
<text text-anchor="start" x="357.304" y="-227.17" font-family="Times,serif" font-size="14.00">.before</text>
<text text-anchor="start" x="357.304" y="-212.17" font-family="Times,serif" font-size="14.00">.beforeAndAfter</text>
</g>
<!-- Around&#45;&gt;Action -->
<g id="edge10" class="edge"><title>Around&#45;&gt;Action</title>
<path fill="none" stroke="black" stroke-dasharray="1,5" d="M256.985,-139.288C235.549,-118.649 197.842,-82.3447 174.015,-59.4035"/>
<ellipse fill="black" stroke="black" cx="170.862" cy="-56.3685" rx="4.00002" ry="4.00002"/>
</g>
<!-- Around&#45;&gt;Invariant -->
<g id="edge8" class="edge"><title>Around&#45;&gt;Invariant</title>
<path fill="none" stroke="#888888" stroke-dasharray="5,2" d="M295.727,-141.178C329.221,-120.533 392.456,-81.554 430.647,-58.0135"/>
<polygon fill="#888888" stroke="#888888" points="432.644,-60.8937 439.32,-52.6669 428.971,-54.9347 432.644,-60.8937"/>
<text text-anchor="middle" x="400.304" y="-96.8" font-family="Times,serif" font-size="14.00" fill="#555555">(implicit)</text>
</g>
<!-- Around&#45;&gt;Around -->
<g id="edge12" class="edge"><title>Around&#45;&gt;Around</title>
<path fill="none" stroke="black" d="M304.795,-166.036C317.895,-166.728 329,-163.383 329,-156 329,-150.636 323.138,-147.403 314.908,-146.302"/>
<polygon fill="black" stroke="black" points="314.906,-142.8 304.795,-145.964 314.673,-149.796 314.906,-142.8"/>
<text text-anchor="start" x="329" y="-159.8" font-family="Times,serif" font-size="14.00">.rename(…)</text>
<text text-anchor="start" x="329" y="-144.8" font-family="Times,serif" font-size="14.00">.when/unless/skip</text>
</g>
</g>
</svg>
