<?xml version="1.0" encoding="UTF-8" standalone="no"?>
<!DOCTYPE svg PUBLIC "-//W3C//DTD SVG 1.1//EN"
 "http://www.w3.org/Graphics/SVG/1.1/DTD/svg11.dtd">
<!-- Generated by graphviz version 2.42.3 (0)
 -->
<!-- Title: G Pages: 1 -->
<svg width="902pt" height="838pt"
 viewBox="0.00 0.00 902.33 838.22" xmlns="http://www.w3.org/2000/svg" xmlns:xlink="http://www.w3.org/1999/xlink">
<g id="graph0" class="graph" transform="scale(1 1) rotate(0) translate(4 834.22)">
<title>G</title>
<polygon fill="white" stroke="transparent" points="-4,4 -4,-834.22 898.33,-834.22 898.33,4 -4,4"/>
<!-- root -->
<g id="node1" class="node">
<title>root</title>
<ellipse fill="#444444" stroke="black" cx="374.28" cy="-812.22" rx="27" ry="18"/>
<text text-anchor="middle" x="374.28" y="-808.52" font-family="Times,serif" font-size="14.00" fill="white">Dsl</text>
</g>
<!-- Focus -->
<g id="node4" class="node">
<title>Focus</title>
<ellipse fill="lightgrey" stroke="black" cx="374.28" cy="-725.22" rx="37.89" ry="18"/>
<text text-anchor="middle" x="374.28" y="-721.52" font-family="Times,serif" font-size="14.00">Focus</text>
</g>
<!-- root&#45;&gt;Focus -->
<g id="edge2" class="edge">
<title>root&#45;&gt;Focus</title>
<path fill="none" stroke="black" d="M374.28,-794.02C374.28,-782.38 374.28,-766.77 374.28,-753.46"/>
<polygon fill="black" stroke="black" points="377.78,-753.4 374.28,-743.4 370.78,-753.4 377.78,-753.4"/>
<text text-anchor="start" x="374.28" y="-765.02" font-family="Times,serif" font-size="14.00">.focus</text>
</g>
<!-- Point -->
<g id="node2" class="node">
<title>Point</title>
<ellipse fill="#9bd858" stroke="black" cx="390.28" cy="-154.5" rx="34.39" ry="18"/>
<text text-anchor="middle" x="390.28" y="-150.8" font-family="Times,serif" font-size="14.00">Point</text>
</g>
<!-- Around -->
<g id="node3" class="node">
<title>Around</title>
<ellipse fill="#9bd858" stroke="black" cx="228.28" cy="-18" rx="44.39" ry="18"/>
<text text-anchor="middle" x="228.28" y="-14.3" font-family="Times,serif" font-size="14.00">Around</text>
</g>
<!-- Point&#45;&gt;Around -->
<g id="edge1" class="edge">
<title>Point&#45;&gt;Around</title>
<path fill="none" stroke="#555555" d="M372.64,-138.85C344.21,-115.25 288.11,-68.67 254.84,-41.05"/>
<polygon fill="#555555" stroke="#555555" points="256.83,-38.15 246.9,-34.46 252.36,-43.54 256.83,-38.15"/>
<text text-anchor="start" x="324.28" y="-87.8" font-family="Times,serif" font-size="14.00" fill="#111111">.before</text>
<text text-anchor="start" x="324.28" y="-72.8" font-family="Times,serif" font-size="14.00" fill="#111111">.after</text>
<text text-anchor="start" x="324.28" y="-57.8" font-family="Times,serif" font-size="14.00" fill="#111111">.beforeAndAfter</text>
</g>
<!-- FocusValue -->
<g id="node5" class="node">
<title>FocusValue</title>
<ellipse fill="#dfab62" stroke="black" cx="121.28" cy="-494.61" rx="41.02" ry="26.74"/>
<text text-anchor="middle" x="121.28" y="-498.41" font-family="Times,serif" font-size="14.00">Value</text>
<text text-anchor="middle" x="121.28" y="-483.41" font-family="Times,serif" font-size="14.00">Focus</text>
</g>
<!-- Focus&#45;&gt;FocusValue -->
<g id="edge3" class="edge">
<title>Focus&#45;&gt;FocusValue</title>
<path fill="none" stroke="#dfab62" d="M340.28,-717.13C279.4,-702.27 154.3,-661.35 113.28,-569.48 107.93,-557.49 108.1,-543.36 110.24,-530.68"/>
<polygon fill="#dfab62" stroke="#dfab62" points="113.67,-531.4 112.32,-520.89 106.82,-529.95 113.67,-531.4"/>
<text text-anchor="start" x="169.28" y="-610.65" font-family="Times,serif" font-size="14.00" fill="#785005">.value</text>
</g>
<!-- FocusOption -->
<g id="node7" class="node">
<title>FocusOption</title>
<ellipse fill="#ff9e93" stroke="black" cx="291.28" cy="-614.35" rx="45.92" ry="26.74"/>
<text text-anchor="middle" x="291.28" y="-618.15" font-family="Times,serif" font-size="14.00">Option</text>
<text text-anchor="middle" x="291.28" y="-603.15" font-family="Times,serif" font-size="14.00">Focus</text>
</g>
<!-- Focus&#45;&gt;FocusOption -->
<g id="edge11" class="edge">
<title>Focus&#45;&gt;FocusOption</title>
<path fill="none" stroke="#ff9e93" d="M362.03,-708.16C349.83,-692.14 330.75,-667.12 315.48,-647.09"/>
<polygon fill="#ff9e93" stroke="#ff9e93" points="318.26,-644.96 309.41,-639.13 312.69,-649.21 318.26,-644.96"/>
<text text-anchor="start" x="348.28" y="-670.52" font-family="Times,serif" font-size="14.00" fill="#be4343">.option</text>
</g>
<!-- FocusColl -->
<g id="node9" class="node">
<title>FocusColl</title>
<ellipse fill="#cf9ed3" stroke="black" cx="535.28" cy="-614.35" rx="62.45" ry="26.74"/>
<text text-anchor="middle" x="535.28" y="-618.15" font-family="Times,serif" font-size="14.00">Collection</text>
<text text-anchor="middle" x="535.28" y="-603.15" font-family="Times,serif" font-size="14.00">Focus</text>
</g>
<!-- Focus&#45;&gt;FocusColl -->
<g id="edge18" class="edge">
<title>Focus&#45;&gt;FocusColl</title>
<path fill="none" stroke="#cf9ed3" d="M395.33,-709.99C420.34,-693.08 462.65,-664.47 494.21,-643.12"/>
<polygon fill="#cf9ed3" stroke="#cf9ed3" points="496.48,-645.81 502.81,-637.31 492.56,-640.01 496.48,-645.81"/>
<text text-anchor="start" x="469.28" y="-670.52" font-family="Times,serif" font-size="14.00" fill="#6e4373">.collection</text>
</g>
<!-- BiFocus -->
<g id="node11" class="node">
<title>BiFocus</title>
<ellipse fill="#90d1ba" stroke="black" cx="768.28" cy="-614.35" rx="62.87" ry="26.74"/>
<text text-anchor="middle" x="768.28" y="-618.15" font-family="Times,serif" font-size="14.00">Value Pair</text>
<text text-anchor="middle" x="768.28" y="-603.15" font-family="Times,serif" font-size="14.00">Focus</text>
</g>
<!-- Focus&#45;&gt;BiFocus -->
<g id="edge26" class="edge">
<title>Focus&#45;&gt;BiFocus</title>
<path fill="none" stroke="#90d1ba" d="M409.49,-718.34C444.46,-712.2 499.47,-701.72 546.28,-689.22 603.68,-673.89 667.96,-651.96 712.52,-635.98"/>
<polygon fill="#90d1ba" stroke="#90d1ba" points="713.78,-639.25 722,-632.57 711.41,-632.66 713.78,-639.25"/>
<text text-anchor="start" x="645.28" y="-678.02" font-family="Times,serif" font-size="14.00" fill="#32715d">.compare</text>
<text text-anchor="start" x="645.28" y="-663.02" font-family="Times,serif" font-size="14.00" fill="#32715d">.obsAndState</text>
</g>
<!-- FocusValue&#45;&gt;Point -->
<g id="edge7" class="edge">
<title>FocusValue&#45;&gt;Point</title>
<path fill="none" stroke="#dfab62" d="M146,-472.54C153.73,-465.55 162.11,-457.56 169.28,-449.74 257.57,-353.47 257.51,-311.86 339.28,-210 348.11,-199 358.66,-187.49 367.86,-177.91"/>
<polygon fill="#dfab62" stroke="#dfab62" points="370.43,-180.28 374.9,-170.67 365.42,-175.4 370.43,-180.28"/>
<text text-anchor="start" x="264.28" y="-351.8" font-family="Times,serif" font-size="14.00" fill="#785005">.assert(…)</text>
<text text-anchor="start" x="264.28" y="-336.8" font-family="Times,serif" font-size="14.00" fill="#785005">.test</text>
</g>
<!-- FocusValue&#45;&gt;Around -->
<g id="edge9" class="edge">
<title>FocusValue&#45;&gt;Around</title>
<path fill="none" stroke="#dfab62" d="M98.75,-471.94C77.61,-450.22 46.82,-414.81 30.28,-378 -0.42,-309.65 -12.06,-279.36 16.28,-210 50.06,-127.32 141.4,-66.37 192.48,-37.55"/>
<polygon fill="#dfab62" stroke="#dfab62" points="194.47,-40.44 201.52,-32.54 191.08,-34.32 194.47,-40.44"/>
<text text-anchor="start" x="16.28" y="-251.3" font-family="Times,serif" font-size="14.00" fill="#785005">.testAround</text>
</g>
<!-- FocusValue&#45;&gt;FocusValue -->
<g id="edge4" class="edge">
<title>FocusValue&#45;&gt;FocusValue</title>
<path fill="none" stroke="#dfab62" d="M159.02,-505.48C170.91,-505.31 180.29,-501.69 180.29,-494.61 180.29,-489.74 175.86,-486.51 169.23,-484.91"/>
<polygon fill="#dfab62" stroke="#dfab62" points="169.36,-481.4 159.02,-483.74 168.56,-488.36 169.36,-481.4"/>
<text text-anchor="start" x="180.29" y="-498.41" font-family="Times,serif" font-size="14.00" fill="#785005">.map</text>
<text text-anchor="start" x="180.29" y="-483.41" font-family="Times,serif" font-size="14.00" fill="#785005">.rename</text>
</g>
<!-- FocusValueAO -->
<g id="node6" class="node">
<title>FocusValueAO</title>
<ellipse fill="#dfab62" stroke="black" cx="104.28" cy="-348" rx="65.11" ry="26.74"/>
<text text-anchor="middle" x="104.28" y="-351.8" font-family="Times,serif" font-size="14.00">Value</text>
<text text-anchor="middle" x="104.28" y="-336.8" font-family="Times,serif" font-size="14.00">Assertions</text>
</g>
<!-- FocusValue&#45;&gt;FocusValueAO -->
<g id="edge5" class="edge">
<title>FocusValue&#45;&gt;FocusValueAO</title>
<path fill="none" stroke="#dfab62" d="M118.24,-467.76C115.54,-444.77 111.56,-410.91 108.54,-385.22"/>
<polygon fill="#dfab62" stroke="#dfab62" points="111.99,-384.64 107.35,-375.12 105.04,-385.46 111.99,-384.64"/>
<text text-anchor="start" x="116.28" y="-419.17" font-family="Times,serif" font-size="14.00" fill="#785005">.assert</text>
</g>
<!-- FocusValueAO&#45;&gt;Point -->
<g id="edge8" class="edge">
<title>FocusValueAO&#45;&gt;Point</title>
<path fill="none" stroke="#dfab62" d="M110.34,-321.04C119.55,-281.85 136.2,-211.9 138.28,-210 157.18,-192.67 227.18,-197.29 252.28,-192 286.08,-184.88 323.98,-174.69 351.5,-166.89"/>
<polygon fill="#dfab62" stroke="#dfab62" points="352.49,-170.25 361.14,-164.13 350.57,-163.52 352.49,-170.25"/>
<text text-anchor="start" x="138.28" y="-251.3" font-family="Times,serif" font-size="14.00" fill="#785005">.equal{,By,Option}</text>
</g>
<!-- FocusValueAO&#45;&gt;Around -->
<g id="edge10" class="edge">
<title>FocusValueAO&#45;&gt;Around</title>
<path fill="none" stroke="#dfab62" d="M103.74,-321.09C103.88,-293.04 106.24,-247.31 118.28,-210 139.08,-145.54 183.7,-78.91 209.26,-43.93"/>
<polygon fill="#dfab62" stroke="#dfab62" points="212.19,-45.85 215.32,-35.73 206.56,-41.69 212.19,-45.85"/>
<text text-anchor="start" x="160.28" y="-180.8" font-family="Times,serif" font-size="14.00" fill="#785005">.beforeAndAfter(By)</text>
<text text-anchor="start" x="160.28" y="-165.8" font-family="Times,serif" font-size="14.00" fill="#785005">.change(To)</text>
<text text-anchor="start" x="160.28" y="-150.8" font-family="Times,serif" font-size="14.00" fill="#785005">.noChange</text>
<text text-anchor="start" x="160.28" y="-135.8" font-family="Times,serif" font-size="14.00" fill="#785005">.{de,inc}rease(By)</text>
<text text-anchor="start" x="160.28" y="-120.8" font-family="Times,serif" font-size="14.00" fill="#785005">.{de,inc}rement</text>
</g>
<!-- FocusValueAO&#45;&gt;FocusValueAO -->
<g id="edge6" class="edge">
<title>FocusValueAO&#45;&gt;FocusValueAO</title>
<path fill="none" stroke="#dfab62" d="M160.18,-361.79C175.57,-361.12 187.33,-356.53 187.33,-348 187.33,-341.47 180.44,-337.25 170.3,-335.33"/>
<polygon fill="#dfab62" stroke="#dfab62" points="170.5,-331.83 160.18,-334.21 169.73,-338.78 170.5,-331.83"/>
<text text-anchor="start" x="187.33" y="-344.3" font-family="Times,serif" font-size="14.00" fill="#785005">.not</text>
</g>
<!-- FocusOption&#45;&gt;Point -->
<g id="edge16" class="edge">
<title>FocusOption&#45;&gt;Point</title>
<path fill="none" stroke="#ff9e93" d="M286.05,-587.64C276.31,-536.79 258.3,-425.68 280.28,-396 296.59,-373.97 320.59,-398.06 339.28,-378 390.05,-323.5 393.76,-229.11 392.15,-182.77"/>
<polygon fill="#ff9e93" stroke="#ff9e93" points="395.64,-182.42 391.68,-172.59 388.64,-182.74 395.64,-182.42"/>
<text text-anchor="start" x="280.28" y="-419.17" font-family="Times,serif" font-size="14.00" fill="#be4343">.assert(…)</text>
</g>
<!-- FocusOption&#45;&gt;FocusValue -->
<g id="edge14" class="edge">
<title>FocusOption&#45;&gt;FocusValue</title>
<path fill="none" stroke="#ff9e93" d="M246.89,-607.16C204.05,-600.21 143.5,-587.51 128.28,-569.48 119.62,-559.23 116.85,-545.09 116.61,-531.93"/>
<polygon fill="#ff9e93" stroke="#ff9e93" points="120.12,-531.76 116.9,-521.67 113.12,-531.57 120.12,-531.76"/>
<text text-anchor="start" x="128.28" y="-558.28" font-family="Times,serif" font-size="14.00" fill="#be4343">.is{Defined,Empty}</text>
<text text-anchor="start" x="128.28" y="-543.28" font-family="Times,serif" font-size="14.00" fill="#be4343">.value(By)</text>
</g>
<!-- FocusOption&#45;&gt;FocusOption -->
<g id="edge12" class="edge">
<title>FocusOption&#45;&gt;FocusOption</title>
<path fill="none" stroke="#ff9e93" d="M333.42,-625.19C345.72,-624.82 355.24,-621.2 355.24,-614.35 355.24,-609.53 350.53,-606.31 343.46,-604.7"/>
<polygon fill="#ff9e93" stroke="#ff9e93" points="343.76,-601.21 333.42,-603.51 342.94,-608.16 343.76,-601.21"/>
<text text-anchor="start" x="355.24" y="-625.65" font-family="Times,serif" font-size="14.00" fill="#be4343">.filter</text>
<text text-anchor="start" x="355.24" y="-610.65" font-family="Times,serif" font-size="14.00" fill="#be4343">.map</text>
<text text-anchor="start" x="355.24" y="-595.65" font-family="Times,serif" font-size="14.00" fill="#be4343">.mapOption</text>
</g>
<!-- FocusOptionAO -->
<g id="node8" class="node">
<title>FocusOptionAO</title>
<ellipse fill="#ff9e93" stroke="black" cx="428.28" cy="-422.87" rx="65.11" ry="26.74"/>
<text text-anchor="middle" x="428.28" y="-426.67" font-family="Times,serif" font-size="14.00">Option</text>
<text text-anchor="middle" x="428.28" y="-411.67" font-family="Times,serif" font-size="14.00">Assertions</text>
</g>
<!-- FocusOption&#45;&gt;FocusOptionAO -->
<g id="edge13" class="edge">
<title>FocusOption&#45;&gt;FocusOptionAO</title>
<path fill="none" stroke="#ff9e93" d="M335.29,-606.54C358.6,-600.63 385.75,-589.69 402.28,-569.48 427.33,-538.85 431.65,-492.34 431.11,-460.17"/>
<polygon fill="#ff9e93" stroke="#ff9e93" points="434.6,-459.73 430.77,-449.85 427.6,-459.96 434.6,-459.73"/>
<text text-anchor="start" x="419.28" y="-550.78" font-family="Times,serif" font-size="14.00" fill="#be4343">.assert</text>
</g>
<!-- FocusOptionAO&#45;&gt;Point -->
<g id="edge17" class="edge">
<title>FocusOptionAO&#45;&gt;Point</title>
<path fill="none" stroke="#ff9e93" d="M424.57,-395.84C417.35,-345.25 401.49,-234.08 394.15,-182.62"/>
<polygon fill="#ff9e93" stroke="#ff9e93" points="397.6,-181.99 392.72,-172.59 390.67,-182.98 397.6,-181.99"/>
<text text-anchor="start" x="422.28" y="-366.8" font-family="Times,serif" font-size="14.00" fill="#be4343">.contains</text>
<text text-anchor="start" x="422.28" y="-351.8" font-family="Times,serif" font-size="14.00" fill="#be4343">.equal(By)</text>
<text text-anchor="start" x="422.28" y="-336.8" font-family="Times,serif" font-size="14.00" fill="#be4343">.exists</text>
<text text-anchor="start" x="422.28" y="-321.8" font-family="Times,serif" font-size="14.00" fill="#be4343">.forall</text>
</g>
<!-- FocusOptionAO&#45;&gt;FocusOptionAO -->
<g id="edge15" class="edge">
<title>FocusOptionAO&#45;&gt;FocusOptionAO</title>
<path fill="none" stroke="#ff9e93" d="M485.34,-435.86C500.16,-435.06 511.33,-430.73 511.33,-422.87 511.33,-416.91 504.92,-412.98 495.36,-411.08"/>
<polygon fill="#ff9e93" stroke="#ff9e93" points="495.69,-407.6 485.34,-409.88 494.86,-414.55 495.69,-407.6"/>
<text text-anchor="start" x="511.33" y="-419.17" font-family="Times,serif" font-size="14.00" fill="#be4343">.not</text>
</g>
<!-- FocusColl&#45;&gt;Point -->
<g id="edge23" class="edge">
<title>FocusColl&#45;&gt;Point</title>
<path fill="none" stroke="#cf9ed3" d="M540.19,-587.44C547.06,-546.21 556.92,-463.43 540.28,-396 518.16,-306.38 447.92,-218.98 411.96,-178.65"/>
<polygon fill="#cf9ed3" stroke="#cf9ed3" points="414.34,-176.07 405.04,-171 409.15,-180.77 414.34,-176.07"/>
<text text-anchor="start" x="548.28" y="-419.17" font-family="Times,serif" font-size="14.00" fill="#6e4373">.assert(…)</text>
</g>
<!-- FocusColl&#45;&gt;FocusValue -->
<g id="edge21" class="edge">
<title>FocusColl&#45;&gt;FocusValue</title>
<path fill="none" stroke="#cf9ed3" d="M486.36,-597.51C474.02,-593.87 460.74,-590.26 448.28,-587.48 396.07,-575.83 379.98,-586.55 329.28,-569.48 302.89,-560.6 300.04,-550.05 274.28,-539.48 240.29,-525.53 200.33,-514.24 169.77,-506.61"/>
<polygon fill="#cf9ed3" stroke="#cf9ed3" points="170.34,-503.14 159.79,-504.16 168.67,-509.94 170.34,-503.14"/>
<text text-anchor="start" x="329.28" y="-558.28" font-family="Times,serif" font-size="14.00" fill="#6e4373">.size</text>
<text text-anchor="start" x="329.28" y="-543.28" font-family="Times,serif" font-size="14.00" fill="#6e4373">.value(By)</text>
</g>
<!-- FocusColl&#45;&gt;FocusColl -->
<g id="edge19" class="edge">
<title>FocusColl&#45;&gt;FocusColl</title>
<path fill="none" stroke="#cf9ed3" d="M592.61,-624.99C605.81,-624.07 615.51,-620.52 615.51,-614.35 615.51,-609.86 610.39,-606.77 602.53,-605.06"/>
<polygon fill="#cf9ed3" stroke="#cf9ed3" points="602.99,-601.59 592.61,-603.71 602.05,-608.52 602.99,-601.59"/>
<text text-anchor="start" x="615.51" y="-625.65" font-family="Times,serif" font-size="14.00" fill="#6e4373">.filter</text>
<text text-anchor="start" x="615.51" y="-610.65" font-family="Times,serif" font-size="14.00" fill="#6e4373">.map</text>
<text text-anchor="start" x="615.51" y="-595.65" font-family="Times,serif" font-size="14.00" fill="#6e4373">.mapColl</text>
</g>
<!-- FocusCollAO -->
<g id="node10" class="node">
<title>FocusCollAO</title>
<ellipse fill="#cf9ed3" stroke="black" cx="638.28" cy="-348" rx="65.11" ry="26.74"/>
<text text-anchor="middle" x="638.28" y="-351.8" font-family="Times,serif" font-size="14.00">Collection</text>
<text text-anchor="middle" x="638.28" y="-336.8" font-family="Times,serif" font-size="14.00">Assertions</text>
</g>
<!-- FocusColl&#45;&gt;FocusCollAO -->
<g id="edge20" class="edge">
<title>FocusColl&#45;&gt;FocusCollAO</title>
<path fill="none" stroke="#cf9ed3" d="M559.98,-589.34C565.69,-583.15 571.49,-576.31 576.28,-569.48 610.56,-520.57 623.05,-507.75 637.28,-449.74 642.41,-428.81 642.84,-404.7 641.9,-385.31"/>
<polygon fill="#cf9ed3" stroke="#cf9ed3" points="645.37,-384.84 641.26,-375.08 638.39,-385.28 645.37,-384.84"/>
<text text-anchor="start" x="632.28" y="-490.91" font-family="Times,serif" font-size="14.00" fill="#6e4373">.assert</text>
</g>
<!-- FocusCollAO&#45;&gt;Point -->
<g id="edge24" class="edge">
<title>FocusCollAO&#45;&gt;Point</title>
<path fill="none" stroke="#cf9ed3" d="M597.74,-326.92C586.79,-319.77 575.88,-310.76 568.28,-300 544.47,-266.28 573.16,-240.45 545.28,-210 516.61,-178.69 468.9,-165.37 433.97,-159.7"/>
<polygon fill="#cf9ed3" stroke="#cf9ed3" points="434.43,-156.23 424.03,-158.23 433.41,-163.15 434.43,-156.23"/>
<text text-anchor="start" x="568.28" y="-288.8" font-family="Times,serif" font-size="14.00" fill="#6e4373">.contains(All,Any,None,Only)</text>
<text text-anchor="start" x="568.28" y="-273.8" font-family="Times,serif" font-size="14.00" fill="#6e4373">.distinct</text>
<text text-anchor="start" x="568.28" y="-258.8" font-family="Times,serif" font-size="14.00" fill="#6e4373">.equal(IgnoringOrder)(By)</text>
<text text-anchor="start" x="568.28" y="-243.8" font-family="Times,serif" font-size="14.00" fill="#6e4373">.existenceOf(All(By))</text>
<text text-anchor="start" x="568.28" y="-228.8" font-family="Times,serif" font-size="14.00" fill="#6e4373">.exists</text>
<text text-anchor="start" x="568.28" y="-213.8" font-family="Times,serif" font-size="14.00" fill="#6e4373">.forall</text>
</g>
<!-- FocusCollAO&#45;&gt;Around -->
<g id="edge25" class="edge">
<title>FocusCollAO&#45;&gt;Around</title>
<path fill="none" stroke="#cf9ed3" d="M701.53,-341.43C728.87,-335.51 758.4,-323.63 775.28,-300 798.53,-267.45 796.72,-243.77 775.28,-210 687.88,-72.37 599.02,-102.23 443.28,-54 389.6,-37.38 325.81,-28.26 281.72,-23.53"/>
<polygon fill="#cf9ed3" stroke="#cf9ed3" points="281.82,-20.03 271.51,-22.48 281.1,-26.99 281.82,-20.03"/>
<text text-anchor="start" x="761.28" y="-150.8" font-family="Times,serif" font-size="14.00" fill="#6e4373">.elemChanges(By)</text>
</g>
<!-- FocusCollAO&#45;&gt;FocusCollAO -->
<g id="edge22" class="edge">
<title>FocusCollAO&#45;&gt;FocusCollAO</title>
<path fill="none" stroke="#cf9ed3" d="M694.18,-361.79C709.57,-361.12 721.33,-356.53 721.33,-348 721.33,-341.47 714.44,-337.25 704.3,-335.33"/>
<polygon fill="#cf9ed3" stroke="#cf9ed3" points="704.5,-331.83 694.18,-334.21 703.73,-338.78 704.5,-331.83"/>
<text text-anchor="start" x="721.33" y="-344.3" font-family="Times,serif" font-size="14.00" fill="#6e4373">.not</text>
</g>
<!-- BiFocus&#45;&gt;BiFocus -->
<g id="edge27" class="edge">
<title>BiFocus&#45;&gt;BiFocus</title>
<path fill="none" stroke="#90d1ba" d="M826.12,-624.99C839.43,-624.07 849.21,-620.52 849.21,-614.35 849.21,-609.86 844.05,-606.77 836.12,-605.06"/>
<polygon fill="#90d1ba" stroke="#90d1ba" points="836.49,-601.58 826.12,-603.71 835.56,-608.51 836.49,-601.58"/>
<text text-anchor="start" x="849.21" y="-610.65" font-family="Times,serif" font-size="14.00" fill="#32715d">.map</text>
</g>
<!-- BiFocusAO -->
<g id="node12" class="node">
<title>BiFocusAO</title>
<ellipse fill="#90d1ba" stroke="black" cx="783.28" cy="-422.87" rx="65.11" ry="26.74"/>
<text text-anchor="middle" x="783.28" y="-426.67" font-family="Times,serif" font-size="14.00">Value Pair</text>
<text text-anchor="middle" x="783.28" y="-411.67" font-family="Times,serif" font-size="14.00">Assertions</text>
</g>
<!-- BiFocus&#45;&gt;BiFocusAO -->
<g id="edge28" class="edge">
<title>BiFocus&#45;&gt;BiFocusAO</title>
<path fill="none" stroke="#90d1ba" d="M770.33,-587.4C772.94,-554.47 777.45,-497.47 780.4,-460.22"/>
<polygon fill="#90d1ba" stroke="#90d1ba" points="783.93,-460.05 781.23,-449.81 776.95,-459.5 783.93,-460.05"/>
<text text-anchor="start" x="774.28" y="-550.78" font-family="Times,serif" font-size="14.00" fill="#32715d">.assert</text>
</g>
<!-- BiFocusAO&#45;&gt;Point -->
<g id="edge30" class="edge">
<title>BiFocusAO&#45;&gt;Point</title>
<path fill="none" stroke="#90d1ba" d="M791.01,-396.12C802.55,-351.85 818.24,-261.16 771.28,-210 726.84,-161.58 525.74,-155.4 434.97,-155.13"/>
<polygon fill="#90d1ba" stroke="#90d1ba" points="434.73,-151.63 424.72,-155.12 434.72,-158.63 434.73,-151.63"/>
<text text-anchor="start" x="803.28" y="-344.3" font-family="Times,serif" font-size="14.00" fill="#32715d">.equal</text>
</g>
<!-- BiFocusAO&#45;&gt;BiFocusAO -->
<g id="edge29" class="edge">
<title>BiFocusAO&#45;&gt;BiFocusAO</title>
<path fill="none" stroke="#90d1ba" d="M840.34,-435.86C855.16,-435.06 866.33,-430.73 866.33,-422.87 866.33,-416.91 859.92,-412.98 850.36,-411.08"/>
<polygon fill="#90d1ba" stroke="#90d1ba" points="850.69,-407.6 840.34,-409.88 849.86,-414.55 850.69,-407.6"/>
<text text-anchor="start" x="866.33" y="-419.17" font-family="Times,serif" font-size="14.00" fill="#32715d">.not</text>
</g>
</g>
</svg>
