<?xml version="1.0" encoding="UTF-8" standalone="no"?>
<!DOCTYPE svg PUBLIC "-//W3C//DTD SVG 1.1//EN"
 "http://www.w3.org/Graphics/SVG/1.1/DTD/svg11.dtd">
<!-- Generated by graphviz version 2.40.1 (20161225.0304)
 -->
<!-- Title: G Pages: 1 -->
<svg width="893pt" height="862pt"
 viewBox="0.00 0.00 892.55 861.96" xmlns="http://www.w3.org/2000/svg" xmlns:xlink="http://www.w3.org/1999/xlink">
<g id="graph0" class="graph" transform="scale(1 1) rotate(0) translate(4 857.9605)">
<title>G</title>
<polygon fill="#ffffff" stroke="transparent" points="-4,4 -4,-857.9605 888.5529,-857.9605 888.5529,4 -4,4"/>
<!-- root -->
<g id="node1" class="node">
<title>root</title>
<ellipse fill="#444444" stroke="#000000" cx="441.5529" cy="-835.9605" rx="27" ry="18"/>
<text text-anchor="middle" x="441.5529" y="-832.2605" font-family="Times,serif" font-size="14.00" fill="#ffffff">Dsl</text>
</g>
<!-- Focus -->
<g id="node4" class="node">
<title>Focus</title>
<ellipse fill="#d3d3d3" stroke="#000000" cx="441.5529" cy="-748.9605" rx="38.1938" ry="18"/>
<text text-anchor="middle" x="441.5529" y="-745.2605" font-family="Times,serif" font-size="14.00" fill="#000000">Focus</text>
</g>
<!-- root&#45;&gt;Focus -->
<g id="edge2" class="edge">
<title>root&#45;&gt;Focus</title>
<path fill="none" stroke="#000000" d="M441.5529,-817.934C441.5529,-806.1522 441.5529,-790.5211 441.5529,-777.1185"/>
<polygon fill="#000000" stroke="#000000" points="445.053,-776.9638 441.5529,-766.9638 438.053,-776.9639 445.053,-776.9638"/>
<text text-anchor="start" x="441.5529" y="-788.7605" font-family="Times,serif" font-size="14.00" fill="#000000">.focus</text>
</g>
<!-- Point -->
<g id="node2" class="node">
<title>Point</title>
<ellipse fill="#9bd858" stroke="#000000" cx="379.5529" cy="-154.5" rx="35.194" ry="18"/>
<text text-anchor="middle" x="379.5529" y="-150.8" font-family="Times,serif" font-size="14.00" fill="#000000">Point</text>
</g>
<!-- Around -->
<g id="node3" class="node">
<title>Around</title>
<ellipse fill="#9bd858" stroke="#000000" cx="260.5529" cy="-18" rx="44.6926" ry="18"/>
<text text-anchor="middle" x="260.5529" y="-14.3" font-family="Times,serif" font-size="14.00" fill="#000000">Around</text>
</g>
<!-- Point&#45;&gt;Around -->
<g id="edge1" class="edge">
<title>Point&#45;&gt;Around</title>
<path fill="none" stroke="#555555" d="M365.1988,-138.0349C344.6064,-114.4143 306.5125,-70.7183 282.4075,-43.0685"/>
<polygon fill="#555555" stroke="#555555" points="284.918,-40.6219 275.7084,-35.3842 279.6416,-45.2219 284.918,-40.6219"/>
<text text-anchor="start" x="331.5529" y="-87.8" font-family="Times,serif" font-size="14.00" fill="#111111">.before</text>
<text text-anchor="start" x="331.5529" y="-72.8" font-family="Times,serif" font-size="14.00" fill="#111111">.after</text>
<text text-anchor="start" x="331.5529" y="-57.8" font-family="Times,serif" font-size="14.00" fill="#111111">.beforeAndAfter</text>
</g>
<!-- FocusValue -->
<g id="node5" class="node">
<title>FocusValue</title>
<ellipse fill="#dfab62" stroke="#000000" cx="117.5529" cy="-494.6102" rx="41.9398" ry="26.7407"/>
<text text-anchor="middle" x="117.5529" y="-498.4102" font-family="Times,serif" font-size="14.00" fill="#000000">Value</text>
<text text-anchor="middle" x="117.5529" y="-483.4102" font-family="Times,serif" font-size="14.00" fill="#000000">Focus</text>
</g>
<!-- Focus&#45;&gt;FocusValue -->
<g id="edge3" class="edge">
<title>Focus&#45;&gt;FocusValue</title>
<path fill="none" stroke="#dfab62" d="M406.3461,-741.8126C355.9193,-730.5844 261.3025,-705.7804 189.5529,-664.9605 147.1729,-640.8495 126.8355,-637.5603 106.5529,-593.2203 97.644,-573.7445 99.983,-549.9273 104.7458,-530.5793"/>
<polygon fill="#dfab62" stroke="#dfab62" points="108.1263,-531.4862 107.4107,-520.9156 101.3782,-529.6253 108.1263,-531.4862"/>
<text text-anchor="start" x="189.5529" y="-634.3904" font-family="Times,serif" font-size="14.00" fill="#785005">.value</text>
</g>
<!-- FocusOption -->
<g id="node7" class="node">
<title>FocusOption</title>
<ellipse fill="#ff9e93" stroke="#000000" cx="287.5529" cy="-638.0904" rx="45.9239" ry="26.7407"/>
<text text-anchor="middle" x="287.5529" y="-641.8904" font-family="Times,serif" font-size="14.00" fill="#000000">Option</text>
<text text-anchor="middle" x="287.5529" y="-626.8904" font-family="Times,serif" font-size="14.00" fill="#000000">Focus</text>
</g>
<!-- Focus&#45;&gt;FocusOption -->
<g id="edge11" class="edge">
<title>Focus&#45;&gt;FocusOption</title>
<path fill="none" stroke="#ff9e93" d="M420.4628,-733.7769C395.9159,-716.1047 354.9218,-686.5916 324.9396,-665.0064"/>
<polygon fill="#ff9e93" stroke="#ff9e93" points="326.9585,-662.1472 316.798,-659.1449 322.8686,-667.8281 326.9585,-662.1472"/>
<text text-anchor="start" x="387.5529" y="-694.2605" font-family="Times,serif" font-size="14.00" fill="#be4343">.option</text>
</g>
<!-- FocusColl -->
<g id="node9" class="node">
<title>FocusColl</title>
<ellipse fill="#cf9ed3" stroke="#000000" cx="538.5529" cy="-638.0904" rx="62.8651" ry="26.7407"/>
<text text-anchor="middle" x="538.5529" y="-641.8904" font-family="Times,serif" font-size="14.00" fill="#000000">Collection</text>
<text text-anchor="middle" x="538.5529" y="-626.8904" font-family="Times,serif" font-size="14.00" fill="#000000">Focus</text>
</g>
<!-- Focus&#45;&gt;FocusColl -->
<g id="edge18" class="edge">
<title>Focus&#45;&gt;FocusColl</title>
<path fill="none" stroke="#cf9ed3" d="M456.2852,-732.1217C470.4152,-715.9712 492.1366,-691.1439 509.712,-671.0554"/>
<polygon fill="#cf9ed3" stroke="#cf9ed3" points="512.5139,-673.1682 516.4644,-663.3374 507.2456,-668.5589 512.5139,-673.1682"/>
<text text-anchor="start" x="499.5529" y="-694.2605" font-family="Times,serif" font-size="14.00" fill="#6e4373">.collection</text>
</g>
<!-- BiFocus -->
<g id="node11" class="node">
<title>BiFocus</title>
<ellipse fill="#90d1ba" stroke="#000000" cx="729.5529" cy="-566.3503" rx="64.1938" ry="26.7407"/>
<text text-anchor="middle" x="729.5529" y="-570.1503" font-family="Times,serif" font-size="14.00" fill="#000000">Value Pair</text>
<text text-anchor="middle" x="729.5529" y="-555.1503" font-family="Times,serif" font-size="14.00" fill="#000000">Focus</text>
</g>
<!-- Focus&#45;&gt;BiFocus -->
<g id="edge26" class="edge">
<title>Focus&#45;&gt;BiFocus</title>
<path fill="none" stroke="#90d1ba" d="M476.4822,-741.4747C538.0418,-727.6227 662.2217,-696.5161 692.5529,-664.9605 708.7045,-648.1569 717.9448,-623.6399 723.1521,-603.2563"/>
<polygon fill="#90d1ba" stroke="#90d1ba" points="726.6029,-603.8691 725.4599,-593.3361 719.785,-602.2829 726.6029,-603.8691"/>
<text text-anchor="start" x="666.5529" y="-701.7605" font-family="Times,serif" font-size="14.00" fill="#32715d">.compare</text>
<text text-anchor="start" x="666.5529" y="-686.7605" font-family="Times,serif" font-size="14.00" fill="#32715d">.obsAndState</text>
</g>
<!-- FocusValue&#45;&gt;Point -->
<g id="edge7" class="edge">
<title>FocusValue&#45;&gt;Point</title>
<path fill="none" stroke="#dfab62" d="M142.7311,-472.5315C150.321,-465.4958 158.503,-457.5143 165.5529,-449.7401 192.5419,-419.9786 196.9883,-410.5401 220.5529,-378 239.4966,-351.8409 243.3139,-344.6552 261.5529,-318 294.4116,-269.9793 301.0135,-256.8263 335.5529,-210 343.1176,-199.7443 351.7688,-188.6961 359.387,-179.178"/>
<polygon fill="#dfab62" stroke="#dfab62" points="362.2134,-181.2486 365.7625,-171.2658 356.7628,-176.8565 362.2134,-181.2486"/>
<text text-anchor="start" x="261.5529" y="-351.8" font-family="Times,serif" font-size="14.00" fill="#785005">.assert(…)</text>
<text text-anchor="start" x="261.5529" y="-336.8" font-family="Times,serif" font-size="14.00" fill="#785005">.test</text>
</g>
<!-- FocusValue&#45;&gt;Around -->
<g id="edge9" class="edge">
<title>FocusValue&#45;&gt;Around</title>
<path fill="none" stroke="#dfab62" d="M93.5879,-472.1447C72.0242,-450.338 41.5027,-415.1664 26.5529,-378 -1.3427,-308.6488 -11.8261,-278.2998 18.5529,-210 57.8842,-121.5733 162.0118,-62.409 220.0431,-35.1906"/>
<polygon fill="#dfab62" stroke="#dfab62" points="221.6623,-38.2984 229.2872,-30.9424 218.7393,-31.938 221.6623,-38.2984"/>
<text text-anchor="start" x="18.5529" y="-251.3" font-family="Times,serif" font-size="14.00" fill="#785005">.testAround</text>
</g>
<!-- FocusValue&#45;&gt;FocusValue -->
<g id="edge4" class="edge">
<title>FocusValue&#45;&gt;FocusValue</title>
<path fill="none" stroke="#dfab62" d="M153.9987,-507.728C166.847,-507.9378 177.2722,-503.5653 177.2722,-494.6102 177.2722,-488.1737 171.8865,-484.1046 164.0864,-482.4027"/>
<polygon fill="#dfab62" stroke="#dfab62" points="164.2728,-478.9054 153.9987,-481.4924 163.6436,-485.8771 164.2728,-478.9054"/>
<text text-anchor="start" x="177.2722" y="-498.4102" font-family="Times,serif" font-size="14.00" fill="#785005">.map</text>
<text text-anchor="start" x="177.2722" y="-483.4102" font-family="Times,serif" font-size="14.00" fill="#785005">.rename</text>
</g>
<!-- FocusValueAO -->
<g id="node6" class="node">
<title>FocusValueAO</title>
<ellipse fill="#dfab62" stroke="#000000" cx="100.5529" cy="-348" rx="65.1077" ry="26.7407"/>
<text text-anchor="middle" x="100.5529" y="-351.8" font-family="Times,serif" font-size="14.00" fill="#000000">Value</text>
<text text-anchor="middle" x="100.5529" y="-336.8" font-family="Times,serif" font-size="14.00" fill="#000000">Assertions</text>
</g>
<!-- FocusValue&#45;&gt;FocusValueAO -->
<g id="edge5" class="edge">
<title>FocusValue&#45;&gt;FocusValueAO</title>
<path fill="none" stroke="#dfab62" d="M114.4349,-467.7196C111.7558,-444.615 107.865,-411.0602 104.8837,-385.3492"/>
<polygon fill="#dfab62" stroke="#dfab62" points="108.3374,-384.7469 103.7088,-375.2166 101.384,-385.5532 108.3374,-384.7469"/>
<text text-anchor="start" x="112.5529" y="-419.1701" font-family="Times,serif" font-size="14.00" fill="#785005">.assert</text>
</g>
<!-- FocusValueAO&#45;&gt;Point -->
<g id="edge8" class="edge">
<title>FocusValueAO&#45;&gt;Point</title>
<path fill="none" stroke="#dfab62" d="M118.3757,-321.9747C122.7021,-315.0188 127.0775,-307.379 130.5529,-300 148.5188,-261.8555 128.5614,-237.4649 160.5529,-210 196.4776,-179.1585 219.6056,-203.4287 265.5529,-192 291.1519,-185.6326 319.3142,-176.391 341.2428,-168.6757"/>
<polygon fill="#dfab62" stroke="#dfab62" points="342.6023,-171.9069 350.8478,-165.254 340.2532,-165.3128 342.6023,-171.9069"/>
<text text-anchor="start" x="160.5529" y="-251.3" font-family="Times,serif" font-size="14.00" fill="#785005">.equal(By)</text>
</g>
<!-- FocusValueAO&#45;&gt;Around -->
<g id="edge10" class="edge">
<title>FocusValueAO&#45;&gt;Around</title>
<path fill="none" stroke="#dfab62" d="M103.5218,-320.9465C107.306,-292.4826 115.2762,-246.7964 130.5529,-210 157.8463,-144.2594 209.4577,-77.7335 238.7718,-42.8715"/>
<polygon fill="#dfab62" stroke="#dfab62" points="241.5564,-44.9997 245.3681,-35.1142 236.2237,-40.4651 241.5564,-44.9997"/>
<text text-anchor="start" x="182.5529" y="-180.8" font-family="Times,serif" font-size="14.00" fill="#785005">.beforeAndAfter(By)</text>
<text text-anchor="start" x="182.5529" y="-165.8" font-family="Times,serif" font-size="14.00" fill="#785005">.change(To)</text>
<text text-anchor="start" x="182.5529" y="-150.8" font-family="Times,serif" font-size="14.00" fill="#785005">.noChange</text>
<text text-anchor="start" x="182.5529" y="-135.8" font-family="Times,serif" font-size="14.00" fill="#785005">.{de,inc}rease(By)</text>
<text text-anchor="start" x="182.5529" y="-120.8" font-family="Times,serif" font-size="14.00" fill="#785005">.{de,inc}rement</text>
</g>
<!-- FocusValueAO&#45;&gt;FocusValueAO -->
<g id="edge6" class="edge">
<title>FocusValueAO&#45;&gt;FocusValueAO</title>
<path fill="none" stroke="#dfab62" d="M156.4486,-361.7903C171.8428,-361.1241 183.6068,-356.5273 183.6068,-348 183.6068,-341.4713 176.711,-337.2465 166.5697,-335.3258"/>
<polygon fill="#dfab62" stroke="#dfab62" points="166.7721,-331.827 156.4486,-334.2097 166.0047,-338.7848 166.7721,-331.827"/>
<text text-anchor="start" x="183.6068" y="-344.3" font-family="Times,serif" font-size="14.00" fill="#785005">.not</text>
</g>
<!-- FocusOption&#45;&gt;Point -->
<g id="edge16" class="edge">
<title>FocusOption&#45;&gt;Point</title>
<path fill="none" stroke="#ff9e93" d="M285.4712,-610.9761C282.777,-574.3977 278.2294,-507.2014 276.5529,-449.7401 275.8564,-425.8658 262.3402,-415.1955 276.5529,-396 292.8668,-373.9667 317.178,-398.3462 335.5529,-378 385.1026,-323.1345 385.7494,-229.22 382.4923,-182.542"/>
<polygon fill="#ff9e93" stroke="#ff9e93" points="385.9777,-182.2193 381.6814,-172.5347 379.0006,-182.7848 385.9777,-182.2193"/>
<text text-anchor="start" x="276.5529" y="-419.1701" font-family="Times,serif" font-size="14.00" fill="#be4343">.assert(…)</text>
</g>
<!-- FocusOption&#45;&gt;FocusValue -->
<g id="edge14" class="edge">
<title>FocusOption&#45;&gt;FocusValue</title>
<path fill="none" stroke="#ff9e93" d="M242.6591,-631.6223C199.7625,-624.45 139.4829,-611.4386 124.5529,-593.2203 110.7497,-576.377 108.9097,-552.0059 110.5649,-531.7067"/>
<polygon fill="#ff9e93" stroke="#ff9e93" points="114.0704,-531.8514 111.7042,-521.5242 107.1138,-531.073 114.0704,-531.8514"/>
<text text-anchor="start" x="124.5529" y="-570.1503" font-family="Times,serif" font-size="14.00" fill="#be4343">.is{Defined,Empty}</text>
<text text-anchor="start" x="124.5529" y="-555.1503" font-family="Times,serif" font-size="14.00" fill="#be4343">.value(By)</text>
</g>
<!-- FocusOption&#45;&gt;FocusOption -->
<g id="edge12" class="edge">
<title>FocusOption&#45;&gt;FocusOption</title>
<path fill="none" stroke="#ff9e93" d="M329.6901,-648.9329C341.9887,-648.5581 351.5149,-644.9439 351.5149,-638.0904 351.5149,-633.2715 346.8053,-630.0541 339.7338,-628.4382"/>
<polygon fill="#ff9e93" stroke="#ff9e93" points="340.0326,-624.9492 329.6901,-627.2479 339.2087,-631.9006 340.0326,-624.9492"/>
<text text-anchor="start" x="351.5149" y="-649.3904" font-family="Times,serif" font-size="14.00" fill="#be4343">.filter</text>
<text text-anchor="start" x="351.5149" y="-634.3904" font-family="Times,serif" font-size="14.00" fill="#be4343">.map</text>
<text text-anchor="start" x="351.5149" y="-619.3904" font-family="Times,serif" font-size="14.00" fill="#be4343">.mapOption</text>
</g>
<!-- FocusOptionAO -->
<g id="node8" class="node">
<title>FocusOptionAO</title>
<ellipse fill="#ff9e93" stroke="#000000" cx="424.5529" cy="-422.8701" rx="65.1077" ry="26.7407"/>
<text text-anchor="middle" x="424.5529" y="-426.6701" font-family="Times,serif" font-size="14.00" fill="#000000">Option</text>
<text text-anchor="middle" x="424.5529" y="-411.6701" font-family="Times,serif" font-size="14.00" fill="#000000">Assertions</text>
</g>
<!-- FocusOption&#45;&gt;FocusOptionAO -->
<g id="edge13" class="edge">
<title>FocusOption&#45;&gt;FocusOptionAO</title>
<path fill="none" stroke="#ff9e93" d="M332.0653,-630.9502C355.3806,-624.8659 382.3732,-613.6826 398.5529,-593.2203 428.4896,-555.36 431.0199,-497.5634 428.7975,-459.9948"/>
<polygon fill="#ff9e93" stroke="#ff9e93" points="432.2844,-459.6861 428.0635,-449.9683 425.3031,-460.1972 432.2844,-459.6861"/>
<text text-anchor="start" x="423.5529" y="-562.6503" font-family="Times,serif" font-size="14.00" fill="#be4343">.assert</text>
</g>
<!-- FocusOptionAO&#45;&gt;Point -->
<g id="edge17" class="edge">
<title>FocusOptionAO&#45;&gt;Point</title>
<path fill="none" stroke="#ff9e93" d="M419.9905,-395.6604C411.4168,-344.5289 392.9824,-234.5903 384.2824,-182.7056"/>
<polygon fill="#ff9e93" stroke="#ff9e93" points="387.6863,-181.8406 382.5807,-172.5572 380.7827,-182.9983 387.6863,-181.8406"/>
<text text-anchor="start" x="416.5529" y="-366.8" font-family="Times,serif" font-size="14.00" fill="#be4343">.contains</text>
<text text-anchor="start" x="416.5529" y="-351.8" font-family="Times,serif" font-size="14.00" fill="#be4343">.equal(By)</text>
<text text-anchor="start" x="416.5529" y="-336.8" font-family="Times,serif" font-size="14.00" fill="#be4343">.exists</text>
<text text-anchor="start" x="416.5529" y="-321.8" font-family="Times,serif" font-size="14.00" fill="#be4343">.forall</text>
</g>
<!-- FocusOptionAO&#45;&gt;FocusOptionAO -->
<g id="edge15" class="edge">
<title>FocusOptionAO&#45;&gt;FocusOptionAO</title>
<path fill="none" stroke="#ff9e93" d="M481.6156,-435.8597C496.4334,-435.0613 507.6068,-430.7314 507.6068,-422.8701 507.6068,-416.9126 501.1901,-412.9833 491.6334,-411.082"/>
<polygon fill="#ff9e93" stroke="#ff9e93" points="491.9613,-407.5963 481.6156,-409.8804 491.1276,-414.5465 491.9613,-407.5963"/>
<text text-anchor="start" x="507.6068" y="-419.1701" font-family="Times,serif" font-size="14.00" fill="#be4343">.not</text>
</g>
<!-- FocusColl&#45;&gt;Point -->
<g id="edge23" class="edge">
<title>FocusColl&#45;&gt;Point</title>
<path fill="none" stroke="#cf9ed3" d="M542.5803,-611.017C548.3935,-565.6605 556.4051,-471.8324 536.5529,-396 512.9251,-305.745 440.354,-218.78 402.724,-178.2433"/>
<polygon fill="#cf9ed3" stroke="#cf9ed3" points="405.0909,-175.6514 395.6887,-170.7678 399.9933,-180.4488 405.0909,-175.6514"/>
<text text-anchor="start" x="546.5529" y="-419.1701" font-family="Times,serif" font-size="14.00" fill="#6e4373">.assert(…)</text>
</g>
<!-- FocusColl&#45;&gt;FocusValue -->
<g id="edge21" class="edge">
<title>FocusColl&#45;&gt;FocusValue</title>
<path fill="none" stroke="#cf9ed3" d="M487.6985,-622.0811C474.0988,-618.162 459.3449,-614.2333 445.5529,-611.2203 392.8655,-599.7104 373.8447,-617.2277 325.5529,-593.2203 294.95,-578.0066 300.0482,-556.7438 270.5529,-539.4802 239.1087,-521.0759 199.5535,-509.7354 168.5398,-503.0601"/>
<polygon fill="#cf9ed3" stroke="#cf9ed3" points="168.8734,-499.5556 158.3737,-500.9717 167.4648,-506.4125 168.8734,-499.5556"/>
<text text-anchor="start" x="325.5529" y="-570.1503" font-family="Times,serif" font-size="14.00" fill="#6e4373">.size</text>
<text text-anchor="start" x="325.5529" y="-555.1503" font-family="Times,serif" font-size="14.00" fill="#6e4373">.value(By)</text>
</g>
<!-- FocusColl&#45;&gt;FocusColl -->
<g id="edge19" class="edge">
<title>FocusColl&#45;&gt;FocusColl</title>
<path fill="none" stroke="#cf9ed3" d="M596.3882,-648.7258C609.704,-647.8094 619.4854,-644.2642 619.4854,-638.0904 619.4854,-633.6047 614.3219,-630.5067 606.3908,-628.7964"/>
<polygon fill="#cf9ed3" stroke="#cf9ed3" points="606.7647,-625.3153 596.3882,-627.455 605.8342,-632.2532 606.7647,-625.3153"/>
<text text-anchor="start" x="619.4854" y="-649.3904" font-family="Times,serif" font-size="14.00" fill="#6e4373">.filter</text>
<text text-anchor="start" x="619.4854" y="-634.3904" font-family="Times,serif" font-size="14.00" fill="#6e4373">.map</text>
<text text-anchor="start" x="619.4854" y="-619.3904" font-family="Times,serif" font-size="14.00" fill="#6e4373">.mapColl</text>
</g>
<!-- FocusCollAO -->
<g id="node10" class="node">
<title>FocusCollAO</title>
<ellipse fill="#cf9ed3" stroke="#000000" cx="629.5529" cy="-348" rx="65.1077" ry="26.7407"/>
<text text-anchor="middle" x="629.5529" y="-351.8" font-family="Times,serif" font-size="14.00" fill="#000000">Collection</text>
<text text-anchor="middle" x="629.5529" y="-336.8" font-family="Times,serif" font-size="14.00" fill="#000000">Assertions</text>
</g>
<!-- FocusColl&#45;&gt;FocusCollAO -->
<g id="edge20" class="edge">
<title>FocusColl&#45;&gt;FocusCollAO</title>
<path fill="none" stroke="#cf9ed3" d="M559.4633,-612.7451C564.081,-606.5584 568.7305,-599.8163 572.5529,-593.2203 607.2964,-533.2671 619.7189,-517.6379 633.5529,-449.7401 637.8607,-428.5977 637.1511,-404.4869 635.2295,-385.045"/>
<polygon fill="#cf9ed3" stroke="#cf9ed3" points="638.7017,-384.6016 634.098,-375.0593 631.7462,-385.3898 638.7017,-384.6016"/>
<text text-anchor="start" x="629.5529" y="-490.9102" font-family="Times,serif" font-size="14.00" fill="#6e4373">.assert</text>
</g>
<!-- FocusCollAO&#45;&gt;Point -->
<g id="edge24" class="edge">
<title>FocusCollAO&#45;&gt;Point</title>
<path fill="none" stroke="#cf9ed3" d="M586.125,-327.8505C574.3923,-320.5566 562.7031,-311.2763 554.5529,-300 530.3687,-266.5393 559.2523,-240.6143 531.5529,-210 504.0522,-179.6053 458.5239,-165.8287 424.4508,-159.6008"/>
<polygon fill="#cf9ed3" stroke="#cf9ed3" points="424.7169,-156.0968 414.2767,-157.9003 423.5629,-163.001 424.7169,-156.0968"/>
<text text-anchor="start" x="554.5529" y="-288.8" font-family="Times,serif" font-size="14.00" fill="#6e4373">.contains(All,Any,None,Only)</text>
<text text-anchor="start" x="554.5529" y="-273.8" font-family="Times,serif" font-size="14.00" fill="#6e4373">.distinct</text>
<text text-anchor="start" x="554.5529" y="-258.8" font-family="Times,serif" font-size="14.00" fill="#6e4373">.equal(IgnoringOrder)(By)</text>
<text text-anchor="start" x="554.5529" y="-243.8" font-family="Times,serif" font-size="14.00" fill="#6e4373">.existenceOf(All(By))</text>
<text text-anchor="start" x="554.5529" y="-228.8" font-family="Times,serif" font-size="14.00" fill="#6e4373">.exists</text>
<text text-anchor="start" x="554.5529" y="-213.8" font-family="Times,serif" font-size="14.00" fill="#6e4373">.forall</text>
</g>
<!-- FocusCollAO&#45;&gt;Around -->
<g id="edge25" class="edge">
<title>FocusCollAO&#45;&gt;Around</title>
<path fill="none" stroke="#cf9ed3" d="M686.5845,-335.0704C719.7062,-326.2789 756.7845,-313.7732 766.5529,-300 789.6933,-267.3729 787.6471,-243.9858 766.5529,-210 684.1657,-77.2617 599.6986,-103.5981 451.5529,-54 406.3184,-38.8558 352.7983,-29.4594 313.9375,-24.0809"/>
<polygon fill="#cf9ed3" stroke="#cf9ed3" points="314.2633,-20.5933 303.887,-22.734 313.3335,-27.5313 314.2633,-20.5933"/>
<text text-anchor="start" x="753.5529" y="-150.8" font-family="Times,serif" font-size="14.00" fill="#6e4373">.elemChanges(By)</text>
</g>
<!-- FocusCollAO&#45;&gt;FocusCollAO -->
<g id="edge22" class="edge">
<title>FocusCollAO&#45;&gt;FocusCollAO</title>
<path fill="none" stroke="#cf9ed3" d="M685.4486,-361.7903C700.8428,-361.1241 712.6068,-356.5273 712.6068,-348 712.6068,-341.4713 705.711,-337.2465 695.5697,-335.3258"/>
<polygon fill="#cf9ed3" stroke="#cf9ed3" points="695.7721,-331.827 685.4486,-334.2097 695.0047,-338.7848 695.7721,-331.827"/>
<text text-anchor="start" x="712.6068" y="-344.3" font-family="Times,serif" font-size="14.00" fill="#6e4373">.not</text>
</g>
<!-- BiFocus&#45;&gt;BiFocus -->
<g id="edge27" class="edge">
<title>BiFocus&#45;&gt;BiFocus</title>
<path fill="none" stroke="#90d1ba" d="M786.1298,-579.3399C800.8214,-578.5415 811.8997,-574.2116 811.8997,-566.3503 811.8997,-560.3929 805.5376,-556.4635 796.0623,-554.5622"/>
<polygon fill="#90d1ba" stroke="#90d1ba" points="796.4777,-551.087 786.1298,-553.3607 795.637,-558.0363 796.4777,-551.087"/>
<text text-anchor="start" x="811.8997" y="-562.6503" font-family="Times,serif" font-size="14.00" fill="#32715d">.map</text>
</g>
<!-- BiFocusAO -->
<g id="node12" class="node">
<title>BiFocusAO</title>
<ellipse fill="#90d1ba" stroke="#000000" cx="751.5529" cy="-422.8701" rx="65.1077" ry="26.7407"/>
<text text-anchor="middle" x="751.5529" y="-426.6701" font-family="Times,serif" font-size="14.00" fill="#000000">Value Pair</text>
<text text-anchor="middle" x="751.5529" y="-411.6701" font-family="Times,serif" font-size="14.00" fill="#000000">Assertions</text>
</g>
<!-- BiFocus&#45;&gt;BiFocusAO -->
<g id="edge28" class="edge">
<title>BiFocus&#45;&gt;BiFocusAO</title>
<path fill="none" stroke="#90d1ba" d="M733.691,-539.3628C737.1326,-516.9173 742.0663,-484.7405 745.8768,-459.889"/>
<polygon fill="#90d1ba" stroke="#90d1ba" points="749.3774,-460.1515 747.4335,-449.7366 742.4582,-459.0906 749.3774,-460.1515"/>
<text text-anchor="start" x="744.5529" y="-490.9102" font-family="Times,serif" font-size="14.00" fill="#32715d">.assert</text>
</g>
<!-- BiFocusAO&#45;&gt;Point -->
<g id="edge30" class="edge">
<title>BiFocusAO&#45;&gt;Point</title>
<path fill="none" stroke="#90d1ba" d="M763.3897,-396.2167C781.0966,-351.79 807.841,-262.3238 762.5529,-210 740.6513,-184.6958 520.849,-165.1616 424.4575,-157.7433"/>
<polygon fill="#90d1ba" stroke="#90d1ba" points="424.6644,-154.2491 414.4279,-156.981 424.1338,-161.2289 424.6644,-154.2491"/>
<text text-anchor="start" x="785.5529" y="-344.3" font-family="Times,serif" font-size="14.00" fill="#32715d">.equal</text>
</g>
<!-- BiFocusAO&#45;&gt;BiFocusAO -->
<g id="edge29" class="edge">
<title>BiFocusAO&#45;&gt;BiFocusAO</title>
<path fill="none" stroke="#90d1ba" d="M808.6156,-435.8597C823.4334,-435.0613 834.6068,-430.7314 834.6068,-422.8701 834.6068,-416.9126 828.1901,-412.9833 818.6334,-411.082"/>
<polygon fill="#90d1ba" stroke="#90d1ba" points="818.9613,-407.5963 808.6156,-409.8804 818.1276,-414.5465 818.9613,-407.5963"/>
<text text-anchor="start" x="834.6068" y="-419.1701" font-family="Times,serif" font-size="14.00" fill="#32715d">.not</text>
</g>
</g>
</svg>
