<?xml version="1.0" encoding="UTF-8" standalone="no"?>
<!DOCTYPE svg PUBLIC "-//W3C//DTD SVG 1.1//EN"
 "http://www.w3.org/Graphics/SVG/1.1/DTD/svg11.dtd">
<!-- Generated by graphviz version 2.38.0 (20140413.2041)
 -->
<!-- Title: G Pages: 1 -->
<svg width="666pt" height="782pt"
 viewBox="0.00 0.00 666.33 781.70" xmlns="http://www.w3.org/2000/svg" xmlns:xlink="http://www.w3.org/1999/xlink">
<g id="graph0" class="graph" transform="scale(1 1) rotate(0) translate(4 777.701)">
<title>G</title>
<polygon fill="white" stroke="none" points="-4,4 -4,-777.701 662.326,-777.701 662.326,4 -4,4"/>
<!-- root -->
<g id="node1" class="node"><title>root</title>
<ellipse fill="#444444" stroke="black" cx="290.326" cy="-755.701" rx="27" ry="18"/>
<text text-anchor="middle" x="290.326" y="-752.001" font-family="Times,serif" font-size="14.00" fill="white">Dsl</text>
</g>
<!-- Focus -->
<g id="node4" class="node"><title>Focus</title>
<ellipse fill="lightgrey" stroke="black" cx="290.326" cy="-668.701" rx="31.6951" ry="18"/>
<text text-anchor="middle" x="290.326" y="-665.001" font-family="Times,serif" font-size="14.00">Focus</text>
</g>
<!-- root&#45;&gt;Focus -->
<g id="edge2" class="edge"><title>root&#45;&gt;Focus</title>
<path fill="none" stroke="black" d="M290.326,-737.5C290.326,-725.863 290.326,-710.248 290.326,-696.937"/>
<polygon fill="black" stroke="black" points="293.826,-696.876 290.326,-686.876 286.826,-696.876 293.826,-696.876"/>
<text text-anchor="start" x="290.326" y="-708.501" font-family="Times,serif" font-size="14.00">.focus</text>
</g>
<!-- Point -->
<g id="node2" class="node"><title>Point</title>
<ellipse fill="#9bd858" stroke="black" cx="313.326" cy="-110.5" rx="29.4969" ry="18"/>
<text text-anchor="middle" x="313.326" y="-106.8" font-family="Times,serif" font-size="14.00">Point</text>
</g>
<!-- Around -->
<g id="node3" class="node"><title>Around</title>
<ellipse fill="#9bd858" stroke="black" cx="412.326" cy="-18" rx="37.8943" ry="18"/>
<text text-anchor="middle" x="412.326" y="-14.3" font-family="Times,serif" font-size="14.00">Around</text>
</g>
<!-- Point&#45;&gt;Around -->
<g id="edge1" class="edge"><title>Point&#45;&gt;Around</title>
<path fill="none" stroke="#555555" d="M329.232,-94.9596C345.11,-80.4447 369.72,-57.9476 388.042,-41.199"/>
<polygon fill="#555555" stroke="#555555" points="390.446,-43.7434 395.465,-34.413 385.723,-38.5768 390.446,-43.7434"/>
</g>
<!-- FocusValue -->
<g id="node5" class="node"><title>FocusValue</title>
<ellipse fill="#dfab62" stroke="black" cx="473.326" cy="-414.35" rx="34.7971" ry="26.7407"/>
<text text-anchor="middle" x="473.326" y="-418.15" font-family="Times,serif" font-size="14.00">Value</text>
<text text-anchor="middle" x="473.326" y="-403.15" font-family="Times,serif" font-size="14.00">Focus</text>
</g>
<!-- Focus&#45;&gt;FocusValue -->
<g id="edge3" class="edge"><title>Focus&#45;&gt;FocusValue</title>
<path fill="none" stroke="#dfab62" d="M317.022,-658.777C332.17,-652.885 350.92,-644.135 365.326,-632.701 418.318,-590.637 432.73,-575.171 459.326,-512.96 467.559,-493.702 471.121,-470.557 472.595,-451.64"/>
<polygon fill="#dfab62" stroke="#dfab62" points="476.091,-451.813 473.216,-441.616 469.104,-451.381 476.091,-451.813"/>
<text text-anchor="start" x="452.326" y="-554.131" font-family="Times,serif" font-size="14.00" fill="#785005">.value</text>
</g>
<!-- FocusColl -->
<g id="node7" class="node"><title>FocusColl</title>
<ellipse fill="#cf9ed3" stroke="black" cx="164.326" cy="-557.831" rx="51.7379" ry="26.7407"/>
<text text-anchor="middle" x="164.326" y="-561.631" font-family="Times,serif" font-size="14.00">Collection</text>
<text text-anchor="middle" x="164.326" y="-546.631" font-family="Times,serif" font-size="14.00">Focus</text>
</g>
<!-- Focus&#45;&gt;FocusColl -->
<g id="edge11" class="edge"><title>Focus&#45;&gt;FocusColl</title>
<path fill="none" stroke="#cf9ed3" d="M262.096,-659.981C245.628,-654.418 225.231,-645.594 210.326,-632.701 197.885,-621.94 187.706,-606.971 180.115,-593.319"/>
<polygon fill="#cf9ed3" stroke="#cf9ed3" points="183.039,-591.359 175.278,-584.147 176.847,-594.625 183.039,-591.359"/>
<text text-anchor="start" x="210.326" y="-614.001" font-family="Times,serif" font-size="14.00" fill="#6e4373">.collection</text>
</g>
<!-- BiFocus -->
<g id="node9" class="node"><title>BiFocus</title>
<ellipse fill="#90d1ba" stroke="black" cx="279.326" cy="-486.09" rx="52.1524" ry="26.7407"/>
<text text-anchor="middle" x="279.326" y="-489.89" font-family="Times,serif" font-size="14.00">Value Pair</text>
<text text-anchor="middle" x="279.326" y="-474.89" font-family="Times,serif" font-size="14.00">Focus</text>
</g>
<!-- Focus&#45;&gt;BiFocus -->
<g id="edge19" class="edge"><title>Focus&#45;&gt;BiFocus</title>
<path fill="none" stroke="#90d1ba" d="M289.291,-650.709C287.526,-621.733 283.897,-562.145 281.54,-523.439"/>
<polygon fill="#90d1ba" stroke="#90d1ba" points="285.013,-522.887 280.911,-513.118 278.026,-523.313 285.013,-522.887"/>
<text text-anchor="start" x="288.326" y="-621.501" font-family="Times,serif" font-size="14.00" fill="#32715d">.compare</text>
<text text-anchor="start" x="288.326" y="-606.501" font-family="Times,serif" font-size="14.00" fill="#32715d">.obsAndState</text>
</g>
<!-- FocusValue&#45;&gt;Point -->
<g id="edge7" class="edge"><title>FocusValue&#45;&gt;Point</title>
<path fill="none" stroke="#dfab62" d="M451.695,-393.033C419.912,-362.998 363.654,-309.065 357.326,-297.74 328.564,-246.265 318.534,-176.649 315.087,-138.787"/>
<polygon fill="#dfab62" stroke="#dfab62" points="318.554,-138.23 314.247,-128.55 311.577,-138.803 318.554,-138.23"/>
<text text-anchor="start" x="357.326" y="-274.67" font-family="Times,serif" font-size="14.00" fill="#785005">.assert(…)</text>
<text text-anchor="start" x="357.326" y="-259.67" font-family="Times,serif" font-size="14.00" fill="#785005">.test</text>
</g>
<!-- FocusValue&#45;&gt;Around -->
<g id="edge9" class="edge"><title>FocusValue&#45;&gt;Around</title>
<path fill="none" stroke="#dfab62" d="M497.982,-395.366C523.543,-375.01 561.88,-339.234 577.326,-297.74 596.554,-246.084 606.543,-128.228 564.326,-73 539.714,-40.8025 494.355,-27.751 459.571,-22.4882"/>
<polygon fill="#dfab62" stroke="#dfab62" points="459.987,-19.0127 449.609,-21.1465 459.053,-25.9501 459.987,-19.0127"/>
<text text-anchor="start" x="594.326" y="-192.3" font-family="Times,serif" font-size="14.00" fill="#785005">.testAround</text>
</g>
<!-- FocusValue&#45;&gt;FocusValue -->
<g id="edge4" class="edge"><title>FocusValue&#45;&gt;FocusValue</title>
<path fill="none" stroke="#dfab62" d="M503.623,-427.395C515.775,-428.132 525.974,-423.784 525.974,-414.35 525.974,-407.717 520.932,-403.598 513.714,-401.994"/>
<polygon fill="#dfab62" stroke="#dfab62" points="513.838,-398.494 503.623,-401.305 513.362,-405.478 513.838,-398.494"/>
<text text-anchor="start" x="525.974" y="-418.15" font-family="Times,serif" font-size="14.00" fill="#785005">.map</text>
<text text-anchor="start" x="525.974" y="-403.15" font-family="Times,serif" font-size="14.00" fill="#785005">.rename</text>
</g>
<!-- FocusValueAO -->
<g id="node6" class="node"><title>FocusValueAO</title>
<ellipse fill="#dfab62" stroke="black" cx="476.326" cy="-270.87" rx="52.1524" ry="26.7407"/>
<text text-anchor="middle" x="476.326" y="-274.67" font-family="Times,serif" font-size="14.00">Value</text>
<text text-anchor="middle" x="476.326" y="-259.67" font-family="Times,serif" font-size="14.00">Assertions</text>
</g>
<!-- FocusValue&#45;&gt;FocusValueAO -->
<g id="edge5" class="edge"><title>FocusValue&#45;&gt;FocusValueAO</title>
<path fill="none" stroke="#dfab62" d="M473.876,-387.401C474.347,-365.204 475.029,-333.011 475.555,-308.244"/>
<polygon fill="#dfab62" stroke="#dfab62" points="479.056,-308.206 475.769,-298.134 472.058,-308.058 479.056,-308.206"/>
<text text-anchor="start" x="476.326" y="-338.91" font-family="Times,serif" font-size="14.00" fill="#785005">.assert</text>
</g>
<!-- FocusValueAO&#45;&gt;Point -->
<g id="edge8" class="edge"><title>FocusValueAO&#45;&gt;Point</title>
<path fill="none" stroke="#dfab62" d="M434.966,-254.156C413.5,-245.314 390.153,-234.4 382.326,-226 362.857,-205.106 373.85,-190.589 359.326,-166 352.537,-154.506 343.308,-143.028 334.897,-133.589"/>
<polygon fill="#dfab62" stroke="#dfab62" points="337.44,-131.183 328.097,-126.186 332.284,-135.918 337.44,-131.183"/>
<text text-anchor="start" x="382.326" y="-192.3" font-family="Times,serif" font-size="14.00" fill="#785005">.equal(By)</text>
</g>
<!-- FocusValueAO&#45;&gt;Around -->
<g id="edge10" class="edge"><title>FocusValueAO&#45;&gt;Around</title>
<path fill="none" stroke="#dfab62" d="M469.718,-243.967C457.519,-196.149 431.579,-94.4678 419.19,-45.9063"/>
<polygon fill="#dfab62" stroke="#dfab62" points="422.556,-44.9413 416.693,-36.1169 415.773,-46.6717 422.556,-44.9413"/>
<text text-anchor="start" x="445.326" y="-136.8" font-family="Times,serif" font-size="14.00" fill="#785005">.beforeAndAfter(By)</text>
<text text-anchor="start" x="445.326" y="-121.8" font-family="Times,serif" font-size="14.00" fill="#785005">.change(To)</text>
<text text-anchor="start" x="445.326" y="-106.8" font-family="Times,serif" font-size="14.00" fill="#785005">.noChange</text>
<text text-anchor="start" x="445.326" y="-91.8" font-family="Times,serif" font-size="14.00" fill="#785005">.{de,inc}rease(By)</text>
<text text-anchor="start" x="445.326" y="-76.8" font-family="Times,serif" font-size="14.00" fill="#785005">.{de,inc}rement</text>
</g>
<!-- FocusValueAO&#45;&gt;FocusValueAO -->
<g id="edge6" class="edge"><title>FocusValueAO&#45;&gt;FocusValueAO</title>
<path fill="none" stroke="#dfab62" d="M522.32,-283.966C536.004,-283.575 546.652,-279.21 546.652,-270.87 546.652,-264.745 540.909,-260.764 532.439,-258.927"/>
<polygon fill="#dfab62" stroke="#dfab62" points="532.652,-255.428 522.32,-257.774 531.859,-262.383 532.652,-255.428"/>
<text text-anchor="start" x="546.652" y="-267.17" font-family="Times,serif" font-size="14.00" fill="#785005">.not</text>
</g>
<!-- FocusColl&#45;&gt;Point -->
<g id="edge16" class="edge"><title>FocusColl&#45;&gt;Point</title>
<path fill="none" stroke="#cf9ed3" d="M161.749,-530.96C156.737,-477.159 147.265,-354.961 160.326,-315.74 167.257,-294.928 255.029,-184.086 294.417,-134.965"/>
<polygon fill="#cf9ed3" stroke="#cf9ed3" points="297.209,-137.077 300.741,-127.089 291.751,-132.694 297.209,-137.077"/>
<text text-anchor="start" x="161.326" y="-338.91" font-family="Times,serif" font-size="14.00" fill="#6e4373">.assert(…)</text>
</g>
<!-- FocusColl&#45;&gt;FocusValue -->
<g id="edge14" class="edge"><title>FocusColl&#45;&gt;FocusValue</title>
<path fill="none" stroke="#cf9ed3" d="M215.039,-551.869C270.196,-545.548 353.788,-532.979 378.326,-512.96 398.457,-496.538 384.313,-478.855 401.326,-459.22 410.416,-448.73 422.65,-439.992 434.453,-433.147"/>
<polygon fill="#cf9ed3" stroke="#cf9ed3" points="436.245,-436.157 443.336,-428.284 432.883,-430.017 436.245,-436.157"/>
<text text-anchor="start" x="401.326" y="-489.89" font-family="Times,serif" font-size="14.00" fill="#6e4373">.size</text>
<text text-anchor="start" x="401.326" y="-474.89" font-family="Times,serif" font-size="14.00" fill="#6e4373">.value(By)</text>
</g>
<!-- FocusColl&#45;&gt;FocusColl -->
<g id="edge12" class="edge"><title>FocusColl&#45;&gt;FocusColl</title>
<path fill="none" stroke="#cf9ed3" d="M211.833,-568.61C224.415,-567.994 233.945,-564.401 233.945,-557.831 233.945,-553.211 229.233,-550.063 222.062,-548.387"/>
<polygon fill="#cf9ed3" stroke="#cf9ed3" points="222.202,-544.875 211.833,-547.051 221.296,-551.817 222.202,-544.875"/>
<text text-anchor="start" x="233.945" y="-554.131" font-family="Times,serif" font-size="14.00" fill="#6e4373">.map</text>
</g>
<!-- FocusCollAO -->
<g id="node8" class="node"><title>FocusCollAO</title>
<ellipse fill="#cf9ed3" stroke="black" cx="52.3259" cy="-270.87" rx="52.1524" ry="26.7407"/>
<text text-anchor="middle" x="52.3259" y="-274.67" font-family="Times,serif" font-size="14.00">Collection</text>
<text text-anchor="middle" x="52.3259" y="-259.67" font-family="Times,serif" font-size="14.00">Assertions</text>
</g>
<!-- FocusColl&#45;&gt;FocusCollAO -->
<g id="edge13" class="edge"><title>FocusColl&#45;&gt;FocusCollAO</title>
<path fill="none" stroke="#cf9ed3" d="M153.097,-531.253C142.944,-507.916 127.732,-472.415 115.326,-441.22 97.0201,-395.19 77.3267,-341.51 64.9228,-307.131"/>
<polygon fill="#cf9ed3" stroke="#cf9ed3" points="68.1507,-305.765 61.471,-297.541 61.5643,-308.135 68.1507,-305.765"/>
<text text-anchor="start" x="115.326" y="-410.65" font-family="Times,serif" font-size="14.00" fill="#6e4373">.assert</text>
</g>
<!-- FocusCollAO&#45;&gt;Point -->
<g id="edge17" class="edge"><title>FocusCollAO&#45;&gt;Point</title>
<path fill="none" stroke="#cf9ed3" d="M44.3927,-244.217C38.9725,-221.132 35.6001,-187.613 53.3259,-166 56.8713,-161.677 204.297,-132.619 275.543,-118.789"/>
<polygon fill="#cf9ed3" stroke="#cf9ed3" points="276.324,-122.203 285.476,-116.864 274.992,-115.331 276.324,-122.203"/>
<text text-anchor="start" x="53.3259" y="-214.8" font-family="Times,serif" font-size="14.00" fill="#6e4373">.distinct</text>
<text text-anchor="start" x="53.3259" y="-199.8" font-family="Times,serif" font-size="14.00" fill="#6e4373">.contains(All,Any,None,Only)</text>
<text text-anchor="start" x="53.3259" y="-184.8" font-family="Times,serif" font-size="14.00" fill="#6e4373">.existenceOf(All(By))</text>
<text text-anchor="start" x="53.3259" y="-169.8" font-family="Times,serif" font-size="14.00" fill="#6e4373">.equal(IgnoringOrder)(By)</text>
</g>
<!-- FocusCollAO&#45;&gt;Around -->
<g id="edge18" class="edge"><title>FocusCollAO&#45;&gt;Around</title>
<path fill="none" stroke="#cf9ed3" d="M40.1418,-244.515C31.4512,-222.548 23.384,-190.529 36.3259,-166 70.4969,-101.236 105.185,-102.225 172.326,-73 236.121,-45.2308 315.915,-30.9363 365.509,-24.2124"/>
<polygon fill="#cf9ed3" stroke="#cf9ed3" points="366.156,-27.6577 375.617,-22.8903 365.248,-20.7168 366.156,-27.6577"/>
<text text-anchor="start" x="172.326" y="-106.8" font-family="Times,serif" font-size="14.00" fill="#6e4373">.elemChanges(By)</text>
</g>
<!-- FocusCollAO&#45;&gt;FocusCollAO -->
<g id="edge15" class="edge"><title>FocusCollAO&#45;&gt;FocusCollAO</title>
<path fill="none" stroke="#cf9ed3" d="M98.3197,-283.966C112.004,-283.575 122.652,-279.21 122.652,-270.87 122.652,-264.745 116.909,-260.764 108.439,-258.927"/>
<polygon fill="#cf9ed3" stroke="#cf9ed3" points="108.652,-255.428 98.3197,-257.774 107.859,-262.383 108.652,-255.428"/>
<text text-anchor="start" x="122.652" y="-267.17" font-family="Times,serif" font-size="14.00" fill="#6e4373">.not</text>
</g>
<!-- BiFocus&#45;&gt;BiFocus -->
<g id="edge20" class="edge"><title>BiFocus&#45;&gt;BiFocus</title>
<path fill="none" stroke="#90d1ba" d="M325.32,-499.187C339.004,-498.796 349.652,-494.43 349.652,-486.09 349.652,-479.966 343.909,-475.985 335.439,-474.147"/>
<polygon fill="#90d1ba" stroke="#90d1ba" points="335.652,-470.649 325.32,-472.994 334.859,-477.604 335.652,-470.649"/>
<text text-anchor="start" x="349.652" y="-482.39" font-family="Times,serif" font-size="14.00" fill="#32715d">.map</text>
</g>
<!-- BiFocusAO -->
<g id="node10" class="node"><title>BiFocusAO</title>
<ellipse fill="#90d1ba" stroke="black" cx="279.326" cy="-342.61" rx="52.1524" ry="26.7407"/>
<text text-anchor="middle" x="279.326" y="-346.41" font-family="Times,serif" font-size="14.00">Value Pair</text>
<text text-anchor="middle" x="279.326" y="-331.41" font-family="Times,serif" font-size="14.00">Assertions</text>
</g>
<!-- BiFocus&#45;&gt;BiFocusAO -->
<g id="edge21" class="edge"><title>BiFocus&#45;&gt;BiFocusAO</title>
<path fill="none" stroke="#90d1ba" d="M279.326,-459.141C279.326,-436.944 279.326,-404.752 279.326,-379.984"/>
<polygon fill="#90d1ba" stroke="#90d1ba" points="282.826,-379.874 279.326,-369.874 275.826,-379.874 282.826,-379.874"/>
<text text-anchor="start" x="279.326" y="-410.65" font-family="Times,serif" font-size="14.00" fill="#32715d">.assert</text>
</g>
<!-- BiFocusAO&#45;&gt;Point -->
<g id="edge23" class="edge"><title>BiFocusAO&#45;&gt;Point</title>
<path fill="none" stroke="#90d1ba" d="M282.627,-315.485C285.156,-295.813 288.798,-268.191 292.326,-244 297.642,-207.539 304.408,-165.541 308.801,-138.773"/>
<polygon fill="#90d1ba" stroke="#90d1ba" points="312.3,-139.067 310.472,-128.631 305.393,-137.929 312.3,-139.067"/>
<text text-anchor="start" x="292.326" y="-267.17" font-family="Times,serif" font-size="14.00" fill="#32715d">.equal</text>
</g>
<!-- BiFocusAO&#45;&gt;BiFocusAO -->
<g id="edge22" class="edge"><title>BiFocusAO&#45;&gt;BiFocusAO</title>
<path fill="none" stroke="#90d1ba" d="M325.32,-355.706C339.004,-355.315 349.652,-350.95 349.652,-342.61 349.652,-336.486 343.909,-332.504 335.439,-330.667"/>
<polygon fill="#90d1ba" stroke="#90d1ba" points="335.652,-327.168 325.32,-329.514 334.859,-334.123 335.652,-327.168"/>
<text text-anchor="start" x="349.652" y="-338.91" font-family="Times,serif" font-size="14.00" fill="#32715d">.not</text>
</g>
</g>
</svg>
