<?xml version="1.0" encoding="UTF-8" standalone="no"?>
<!DOCTYPE svg PUBLIC "-//W3C//DTD SVG 1.1//EN"
 "http://www.w3.org/Graphics/SVG/1.1/DTD/svg11.dtd">
<!-- Generated by graphviz version 2.38.0 (20140413.2041)
 -->
<!-- Title: G Pages: 1 -->
<svg width="831pt" height="856pt"
 viewBox="0.00 0.00 831.05 855.70" xmlns="http://www.w3.org/2000/svg" xmlns:xlink="http://www.w3.org/1999/xlink">
<g id="graph0" class="graph" transform="scale(1 1) rotate(0) translate(4 851.701)">
<title>G</title>
<polygon fill="white" stroke="none" points="-4,4 -4,-851.701 827.054,-851.701 827.054,4 -4,4"/>
<!-- root -->
<g id="node1" class="node"><title>root</title>
<ellipse fill="#444444" stroke="black" cx="369.054" cy="-829.701" rx="27" ry="18"/>
<text text-anchor="middle" x="369.054" y="-826.001" font-family="Times,serif" font-size="14.00" fill="white">Dsl</text>
</g>
<!-- Focus -->
<g id="node4" class="node"><title>Focus</title>
<ellipse fill="lightgrey" stroke="black" cx="369.054" cy="-742.701" rx="38.1938" ry="18"/>
<text text-anchor="middle" x="369.054" y="-739.001" font-family="Times,serif" font-size="14.00">Focus</text>
</g>
<!-- root&#45;&gt;Focus -->
<g id="edge2" class="edge"><title>root&#45;&gt;Focus</title>
<path fill="none" stroke="black" d="M369.054,-811.5C369.054,-799.863 369.054,-784.248 369.054,-770.937"/>
<polygon fill="black" stroke="black" points="372.554,-770.876 369.054,-760.876 365.554,-770.876 372.554,-770.876"/>
<text text-anchor="start" x="369.054" y="-782.501" font-family="Times,serif" font-size="14.00">.focus</text>
</g>
<!-- Point -->
<g id="node2" class="node"><title>Point</title>
<ellipse fill="#9bd858" stroke="black" cx="374.054" cy="-154.5" rx="35.194" ry="18"/>
<text text-anchor="middle" x="374.054" y="-150.8" font-family="Times,serif" font-size="14.00">Point</text>
</g>
<!-- Around -->
<g id="node3" class="node"><title>Around</title>
<ellipse fill="#9bd858" stroke="black" cx="466.054" cy="-18" rx="44.6926" ry="18"/>
<text text-anchor="middle" x="466.054" y="-14.3" font-family="Times,serif" font-size="14.00">Around</text>
</g>
<!-- Point&#45;&gt;Around -->
<g id="edge1" class="edge"><title>Point&#45;&gt;Around</title>
<path fill="none" stroke="#555555" d="M376.952,-136.353C381.27,-115.091 391.12,-78.6479 411.054,-54 416.108,-47.7504 422.591,-42.2748 429.32,-37.6246"/>
<polygon fill="#555555" stroke="#555555" points="431.325,-40.4976 437.887,-32.1798 427.57,-34.5898 431.325,-40.4976"/>
<text text-anchor="start" x="411.054" y="-87.8" font-family="Times,serif" font-size="14.00" fill="#111111">.before</text>
<text text-anchor="start" x="411.054" y="-72.8" font-family="Times,serif" font-size="14.00" fill="#111111">.after</text>
<text text-anchor="start" x="411.054" y="-57.8" font-family="Times,serif" font-size="14.00" fill="#111111">.beforeAndAfter</text>
</g>
<!-- FocusValue -->
<g id="node5" class="node"><title>FocusValue</title>
<ellipse fill="#dfab62" stroke="black" cx="569.054" cy="-488.35" rx="41.9398" ry="26.7407"/>
<text text-anchor="middle" x="569.054" y="-492.15" font-family="Times,serif" font-size="14.00">Value</text>
<text text-anchor="middle" x="569.054" y="-477.15" font-family="Times,serif" font-size="14.00">Focus</text>
</g>
<!-- Focus&#45;&gt;FocusValue -->
<g id="edge3" class="edge"><title>Focus&#45;&gt;FocusValue</title>
<path fill="none" stroke="#dfab62" d="M403.373,-734.343C422.813,-728.973 446.813,-720.223 465.054,-706.701 518.535,-667.053 529.528,-648.447 555.054,-586.96 563.085,-567.616 566.637,-544.468 568.157,-525.57"/>
<polygon fill="#dfab62" stroke="#dfab62" points="571.652,-525.765 568.808,-515.559 564.667,-525.311 571.652,-525.765"/>
<text text-anchor="start" x="548.054" y="-628.131" font-family="Times,serif" font-size="14.00" fill="#785005">.value</text>
</g>
<!-- FocusColl -->
<g id="node7" class="node"><title>FocusColl</title>
<ellipse fill="#cf9ed3" stroke="black" cx="196.054" cy="-631.831" rx="62.8651" ry="26.7407"/>
<text text-anchor="middle" x="196.054" y="-635.631" font-family="Times,serif" font-size="14.00">Collection</text>
<text text-anchor="middle" x="196.054" y="-620.631" font-family="Times,serif" font-size="14.00">Focus</text>
</g>
<!-- Focus&#45;&gt;FocusColl -->
<g id="edge11" class="edge"><title>Focus&#45;&gt;FocusColl</title>
<path fill="none" stroke="#cf9ed3" d="M335.581,-733.445C316.114,-727.735 291.637,-718.944 272.054,-706.701 254.151,-695.508 237.027,-679.507 223.582,-665.257"/>
<polygon fill="#cf9ed3" stroke="#cf9ed3" points="225.853,-662.557 216.509,-657.563 220.7,-667.294 225.853,-662.557"/>
<text text-anchor="start" x="272.054" y="-688.001" font-family="Times,serif" font-size="14.00" fill="#6e4373">.collection</text>
</g>
<!-- BiFocus -->
<g id="node9" class="node"><title>BiFocus</title>
<ellipse fill="#90d1ba" stroke="black" cx="340.054" cy="-560.09" rx="64.1938" ry="26.7407"/>
<text text-anchor="middle" x="340.054" y="-563.89" font-family="Times,serif" font-size="14.00">Value Pair</text>
<text text-anchor="middle" x="340.054" y="-548.89" font-family="Times,serif" font-size="14.00">Focus</text>
</g>
<!-- Focus&#45;&gt;BiFocus -->
<g id="edge19" class="edge"><title>Focus&#45;&gt;BiFocus</title>
<path fill="none" stroke="#90d1ba" d="M367.129,-724.356C364.13,-698.319 357.867,-647.633 350.054,-604.96 349.569,-602.314 349.034,-599.586 348.471,-596.846"/>
<polygon fill="#90d1ba" stroke="#90d1ba" points="351.876,-596.033 346.347,-586.995 345.033,-597.508 351.876,-596.033"/>
<text text-anchor="start" x="365.054" y="-695.501" font-family="Times,serif" font-size="14.00" fill="#32715d">.compare</text>
<text text-anchor="start" x="365.054" y="-680.501" font-family="Times,serif" font-size="14.00" fill="#32715d">.obsAndState</text>
</g>
<!-- FocusValue&#45;&gt;Point -->
<g id="edge7" class="edge"><title>FocusValue&#45;&gt;Point</title>
<path fill="none" stroke="#dfab62" d="M544.819,-466.267C521.442,-446.139 484.872,-415.193 452.054,-389.74 441.235,-381.349 434.712,-383.09 427.054,-371.74 387.093,-312.516 377.208,-226.086 374.8,-182.61"/>
<polygon fill="#dfab62" stroke="#dfab62" points="378.292,-182.353 374.335,-172.525 371.299,-182.676 378.292,-182.353"/>
<text text-anchor="start" x="427.054" y="-348.67" font-family="Times,serif" font-size="14.00" fill="#785005">.assert(…)</text>
<text text-anchor="start" x="427.054" y="-333.67" font-family="Times,serif" font-size="14.00" fill="#785005">.test</text>
</g>
<!-- FocusValue&#45;&gt;Around -->
<g id="edge9" class="edge"><title>FocusValue&#45;&gt;Around</title>
<path fill="none" stroke="#dfab62" d="M599.802,-470.182C630.782,-450.873 676.569,-416.301 695.054,-371.74 738.444,-267.143 762.782,-211.278 700.054,-117 659.974,-56.762 574.976,-33.4791 519.212,-24.5279"/>
<polygon fill="#dfab62" stroke="#dfab62" points="519.567,-21.0419 509.158,-23.0176 518.527,-27.9642 519.567,-21.0419"/>
<text text-anchor="start" x="738.054" y="-251.3" font-family="Times,serif" font-size="14.00" fill="#785005">.testAround</text>
</g>
<!-- FocusValue&#45;&gt;FocusValue -->
<g id="edge4" class="edge"><title>FocusValue&#45;&gt;FocusValue</title>
<path fill="none" stroke="#dfab62" d="M605.5,-501.468C618.348,-501.678 628.773,-497.305 628.773,-488.35 628.773,-481.914 623.387,-477.845 615.587,-476.143"/>
<polygon fill="#dfab62" stroke="#dfab62" points="615.774,-472.646 605.5,-475.232 615.145,-479.617 615.774,-472.646"/>
<text text-anchor="start" x="628.773" y="-492.15" font-family="Times,serif" font-size="14.00" fill="#785005">.map</text>
<text text-anchor="start" x="628.773" y="-477.15" font-family="Times,serif" font-size="14.00" fill="#785005">.rename</text>
</g>
<!-- FocusValueAO -->
<g id="node6" class="node"><title>FocusValueAO</title>
<ellipse fill="#dfab62" stroke="black" cx="575.054" cy="-344.87" rx="65.1077" ry="26.7407"/>
<text text-anchor="middle" x="575.054" y="-348.67" font-family="Times,serif" font-size="14.00">Value</text>
<text text-anchor="middle" x="575.054" y="-333.67" font-family="Times,serif" font-size="14.00">Assertions</text>
</g>
<!-- FocusValue&#45;&gt;FocusValueAO -->
<g id="edge5" class="edge"><title>FocusValue&#45;&gt;FocusValueAO</title>
<path fill="none" stroke="#dfab62" d="M570.154,-461.401C571.096,-439.204 572.461,-407.011 573.511,-382.244"/>
<polygon fill="#dfab62" stroke="#dfab62" points="577.013,-382.274 573.94,-372.134 570.019,-381.977 577.013,-382.274"/>
<text text-anchor="start" x="574.054" y="-412.91" font-family="Times,serif" font-size="14.00" fill="#785005">.assert</text>
</g>
<!-- FocusValueAO&#45;&gt;Point -->
<g id="edge8" class="edge"><title>FocusValueAO&#45;&gt;Point</title>
<path fill="none" stroke="#dfab62" d="M525.692,-327.141C493.41,-316.01 456.724,-302.914 454.054,-300 426.085,-269.479 450.974,-245.723 430.054,-210 422.624,-197.313 411.449,-185.6 401.031,-176.311"/>
<polygon fill="#dfab62" stroke="#dfab62" points="403.165,-173.532 393.286,-169.704 398.622,-178.857 403.165,-173.532"/>
<text text-anchor="start" x="454.054" y="-251.3" font-family="Times,serif" font-size="14.00" fill="#785005">.equal(By)</text>
</g>
<!-- FocusValueAO&#45;&gt;Around -->
<g id="edge10" class="edge"><title>FocusValueAO&#45;&gt;Around</title>
<path fill="none" stroke="#dfab62" d="M571.386,-318.02C561.513,-249.001 534.61,-64.8803 527.054,-54 521.948,-46.6478 514.764,-40.6361 507.111,-35.8003"/>
<polygon fill="#dfab62" stroke="#dfab62" points="508.435,-32.5283 498.007,-30.6536 504.99,-38.6219 508.435,-32.5283"/>
<text text-anchor="start" x="553.054" y="-180.8" font-family="Times,serif" font-size="14.00" fill="#785005">.beforeAndAfter(By)</text>
<text text-anchor="start" x="553.054" y="-165.8" font-family="Times,serif" font-size="14.00" fill="#785005">.change(To)</text>
<text text-anchor="start" x="553.054" y="-150.8" font-family="Times,serif" font-size="14.00" fill="#785005">.noChange</text>
<text text-anchor="start" x="553.054" y="-135.8" font-family="Times,serif" font-size="14.00" fill="#785005">.{de,inc}rease(By)</text>
<text text-anchor="start" x="553.054" y="-120.8" font-family="Times,serif" font-size="14.00" fill="#785005">.{de,inc}rement</text>
</g>
<!-- FocusValueAO&#45;&gt;FocusValueAO -->
<g id="edge6" class="edge"><title>FocusValueAO&#45;&gt;FocusValueAO</title>
<path fill="none" stroke="#dfab62" d="M632.116,-357.86C646.934,-357.061 658.108,-352.731 658.108,-344.87 658.108,-338.913 651.691,-334.983 642.134,-333.082"/>
<polygon fill="#dfab62" stroke="#dfab62" points="642.462,-329.596 632.116,-331.88 641.628,-336.546 642.462,-329.596"/>
<text text-anchor="start" x="658.108" y="-341.17" font-family="Times,serif" font-size="14.00" fill="#785005">.not</text>
</g>
<!-- FocusColl&#45;&gt;Point -->
<g id="edge16" class="edge"><title>FocusColl&#45;&gt;Point</title>
<path fill="none" stroke="#cf9ed3" d="M193.198,-604.86C187.653,-550.868 177.216,-428.324 192.054,-389.74 211.339,-339.592 239.599,-342.042 273.054,-300 305.179,-259.629 338.787,-209.774 357.998,-180.427"/>
<polygon fill="#cf9ed3" stroke="#cf9ed3" points="360.955,-182.301 363.48,-172.011 355.089,-178.48 360.955,-182.301"/>
<text text-anchor="start" x="192.054" y="-412.91" font-family="Times,serif" font-size="14.00" fill="#6e4373">.assert(…)</text>
</g>
<!-- FocusColl&#45;&gt;FocusValue -->
<g id="edge14" class="edge"><title>FocusColl&#45;&gt;FocusValue</title>
<path fill="none" stroke="#cf9ed3" d="M258.292,-627.268C325.999,-622.231 428.658,-610.837 459.054,-586.96 479.484,-570.912 464.268,-552.157 482.054,-533.22 493.264,-521.285 508.435,-512.104 522.969,-505.3"/>
<polygon fill="#cf9ed3" stroke="#cf9ed3" points="524.631,-508.393 532.38,-501.167 521.816,-501.983 524.631,-508.393"/>
<text text-anchor="start" x="482.054" y="-563.89" font-family="Times,serif" font-size="14.00" fill="#6e4373">.size</text>
<text text-anchor="start" x="482.054" y="-548.89" font-family="Times,serif" font-size="14.00" fill="#6e4373">.value(By)</text>
</g>
<!-- FocusColl&#45;&gt;FocusColl -->
<g id="edge12" class="edge"><title>FocusColl&#45;&gt;FocusColl</title>
<path fill="none" stroke="#cf9ed3" d="M253.889,-642.466C267.205,-641.549 276.986,-638.004 276.986,-631.831 276.986,-627.345 271.823,-624.247 263.892,-622.537"/>
<polygon fill="#cf9ed3" stroke="#cf9ed3" points="264.266,-619.055 253.889,-621.195 263.335,-625.993 264.266,-619.055"/>
<text text-anchor="start" x="276.986" y="-643.131" font-family="Times,serif" font-size="14.00" fill="#6e4373">.filter</text>
<text text-anchor="start" x="276.986" y="-628.131" font-family="Times,serif" font-size="14.00" fill="#6e4373">.map</text>
<text text-anchor="start" x="276.986" y="-613.131" font-family="Times,serif" font-size="14.00" fill="#6e4373">.mapColl</text>
</g>
<!-- FocusCollAO -->
<g id="node8" class="node"><title>FocusCollAO</title>
<ellipse fill="#cf9ed3" stroke="black" cx="65.0538" cy="-344.87" rx="65.1077" ry="26.7407"/>
<text text-anchor="middle" x="65.0538" y="-348.67" font-family="Times,serif" font-size="14.00">Collection</text>
<text text-anchor="middle" x="65.0538" y="-333.67" font-family="Times,serif" font-size="14.00">Assertions</text>
</g>
<!-- FocusColl&#45;&gt;FocusCollAO -->
<g id="edge13" class="edge"><title>FocusColl&#45;&gt;FocusCollAO</title>
<path fill="none" stroke="#cf9ed3" d="M181.166,-605.561C167.81,-582.432 148.06,-547.063 133.054,-515.22 111.665,-469.833 90.716,-415.791 77.8483,-381.173"/>
<polygon fill="#cf9ed3" stroke="#cf9ed3" points="81.0294,-379.683 74.2813,-371.516 74.463,-382.109 81.0294,-379.683"/>
<text text-anchor="start" x="133.054" y="-484.65" font-family="Times,serif" font-size="14.00" fill="#6e4373">.assert</text>
</g>
<!-- FocusCollAO&#45;&gt;Point -->
<g id="edge17" class="edge"><title>FocusCollAO&#45;&gt;Point</title>
<path fill="none" stroke="#cf9ed3" d="M56.4658,-318.127C48.342,-288.446 40.7776,-239.914 66.0538,-210 66.188,-209.841 246.793,-177.955 331.343,-163.035"/>
<polygon fill="#cf9ed3" stroke="#cf9ed3" points="332.162,-166.445 341.401,-161.261 330.945,-159.552 332.162,-166.445"/>
<text text-anchor="start" x="66.0538" y="-288.8" font-family="Times,serif" font-size="14.00" fill="#6e4373">.distinct</text>
<text text-anchor="start" x="66.0538" y="-273.8" font-family="Times,serif" font-size="14.00" fill="#6e4373">.contains(All,Any,None,Only)</text>
<text text-anchor="start" x="66.0538" y="-258.8" font-family="Times,serif" font-size="14.00" fill="#6e4373">.existenceOf(All(By))</text>
<text text-anchor="start" x="66.0538" y="-243.8" font-family="Times,serif" font-size="14.00" fill="#6e4373">.exists</text>
<text text-anchor="start" x="66.0538" y="-228.8" font-family="Times,serif" font-size="14.00" fill="#6e4373">.equal(IgnoringOrder)(By)</text>
<text text-anchor="start" x="66.0538" y="-213.8" font-family="Times,serif" font-size="14.00" fill="#6e4373">.forall</text>
</g>
<!-- FocusCollAO&#45;&gt;Around -->
<g id="edge18" class="edge"><title>FocusCollAO&#45;&gt;Around</title>
<path fill="none" stroke="#cf9ed3" d="M52.5774,-318.46C40.612,-290.17 26.9522,-243.964 46.0538,-210 120.972,-76.7882 317.518,-36.0467 412.776,-23.9347"/>
<polygon fill="#cf9ed3" stroke="#cf9ed3" points="413.269,-27.4007 422.775,-22.7217 412.426,-20.4516 413.269,-27.4007"/>
<text text-anchor="start" x="134.054" y="-150.8" font-family="Times,serif" font-size="14.00" fill="#6e4373">.elemChanges(By)</text>
</g>
<!-- FocusCollAO&#45;&gt;FocusCollAO -->
<g id="edge15" class="edge"><title>FocusCollAO&#45;&gt;FocusCollAO</title>
<path fill="none" stroke="#cf9ed3" d="M122.116,-357.86C136.934,-357.061 148.108,-352.731 148.108,-344.87 148.108,-338.913 141.691,-334.983 132.134,-333.082"/>
<polygon fill="#cf9ed3" stroke="#cf9ed3" points="132.462,-329.596 122.116,-331.88 131.628,-336.546 132.462,-329.596"/>
<text text-anchor="start" x="148.108" y="-341.17" font-family="Times,serif" font-size="14.00" fill="#6e4373">.not</text>
</g>
<!-- BiFocus&#45;&gt;BiFocus -->
<g id="edge20" class="edge"><title>BiFocus&#45;&gt;BiFocus</title>
<path fill="none" stroke="#90d1ba" d="M396.631,-573.08C411.322,-572.282 422.401,-567.952 422.401,-560.09 422.401,-554.133 416.039,-550.204 406.563,-548.302"/>
<polygon fill="#90d1ba" stroke="#90d1ba" points="406.979,-544.827 396.631,-547.101 406.138,-551.776 406.979,-544.827"/>
<text text-anchor="start" x="422.401" y="-556.39" font-family="Times,serif" font-size="14.00" fill="#32715d">.map</text>
</g>
<!-- BiFocusAO -->
<g id="node10" class="node"><title>BiFocusAO</title>
<ellipse fill="#90d1ba" stroke="black" cx="340.054" cy="-416.61" rx="65.1077" ry="26.7407"/>
<text text-anchor="middle" x="340.054" y="-420.41" font-family="Times,serif" font-size="14.00">Value Pair</text>
<text text-anchor="middle" x="340.054" y="-405.41" font-family="Times,serif" font-size="14.00">Assertions</text>
</g>
<!-- BiFocus&#45;&gt;BiFocusAO -->
<g id="edge21" class="edge"><title>BiFocus&#45;&gt;BiFocusAO</title>
<path fill="none" stroke="#90d1ba" d="M340.054,-533.141C340.054,-510.944 340.054,-478.752 340.054,-453.984"/>
<polygon fill="#90d1ba" stroke="#90d1ba" points="343.554,-453.874 340.054,-443.874 336.554,-453.874 343.554,-453.874"/>
<text text-anchor="start" x="340.054" y="-484.65" font-family="Times,serif" font-size="14.00" fill="#32715d">.assert</text>
</g>
<!-- BiFocusAO&#45;&gt;Point -->
<g id="edge23" class="edge"><title>BiFocusAO&#45;&gt;Point</title>
<path fill="none" stroke="#90d1ba" d="M343.176,-389.499C345.549,-369.834 348.926,-342.214 352.054,-318 358.213,-270.31 365.822,-214.811 370.286,-182.568"/>
<polygon fill="#90d1ba" stroke="#90d1ba" points="373.766,-182.956 371.673,-172.57 366.832,-181.994 373.766,-182.956"/>
<text text-anchor="start" x="352.054" y="-341.17" font-family="Times,serif" font-size="14.00" fill="#32715d">.equal</text>
</g>
<!-- BiFocusAO&#45;&gt;BiFocusAO -->
<g id="edge22" class="edge"><title>BiFocusAO&#45;&gt;BiFocusAO</title>
<path fill="none" stroke="#90d1ba" d="M397.116,-429.6C411.934,-428.801 423.108,-424.472 423.108,-416.61 423.108,-410.653 416.691,-406.723 407.134,-404.822"/>
<polygon fill="#90d1ba" stroke="#90d1ba" points="407.462,-401.336 397.116,-403.621 406.628,-408.287 407.462,-401.336"/>
<text text-anchor="start" x="423.108" y="-412.91" font-family="Times,serif" font-size="14.00" fill="#32715d">.not</text>
</g>
</g>
</svg>
