<?xml version="1.0" encoding="UTF-8" standalone="no"?>
<!DOCTYPE svg PUBLIC "-//W3C//DTD SVG 1.1//EN"
 "http://www.w3.org/Graphics/SVG/1.1/DTD/svg11.dtd">
<!-- Generated by graphviz version 2.38.0 (20140413.2041)
 -->
<!-- Title: G Pages: 1 -->
<svg width="686pt" height="826pt"
 viewBox="0.00 0.00 686.33 825.70" xmlns="http://www.w3.org/2000/svg" xmlns:xlink="http://www.w3.org/1999/xlink">
<g id="graph0" class="graph" transform="scale(1 1) rotate(0) translate(4 821.701)">
<title>G</title>
<polygon fill="white" stroke="none" points="-4,4 -4,-821.701 682.326,-821.701 682.326,4 -4,4"/>
<!-- root -->
<g id="node1" class="node"><title>root</title>
<ellipse fill="#444444" stroke="black" cx="290.326" cy="-799.701" rx="27" ry="18"/>
<text text-anchor="middle" x="290.326" y="-796.001" font-family="Times,serif" font-size="14.00" fill="white">Dsl</text>
</g>
<!-- Focus -->
<g id="node4" class="node"><title>Focus</title>
<ellipse fill="lightgrey" stroke="black" cx="290.326" cy="-712.701" rx="31.6951" ry="18"/>
<text text-anchor="middle" x="290.326" y="-709.001" font-family="Times,serif" font-size="14.00">Focus</text>
</g>
<!-- root&#45;&gt;Focus -->
<g id="edge2" class="edge"><title>root&#45;&gt;Focus</title>
<path fill="none" stroke="black" d="M290.326,-781.5C290.326,-769.863 290.326,-754.248 290.326,-740.937"/>
<polygon fill="black" stroke="black" points="293.826,-740.876 290.326,-730.876 286.826,-740.876 293.826,-740.876"/>
<text text-anchor="start" x="290.326" y="-752.501" font-family="Times,serif" font-size="14.00">.focus</text>
</g>
<!-- Point -->
<g id="node2" class="node"><title>Point</title>
<ellipse fill="#9bd858" stroke="black" cx="313.326" cy="-154.5" rx="29.4969" ry="18"/>
<text text-anchor="middle" x="313.326" y="-150.8" font-family="Times,serif" font-size="14.00">Point</text>
</g>
<!-- Around -->
<g id="node3" class="node"><title>Around</title>
<ellipse fill="#9bd858" stroke="black" cx="392.326" cy="-18" rx="37.8943" ry="18"/>
<text text-anchor="middle" x="392.326" y="-14.3" font-family="Times,serif" font-size="14.00">Around</text>
</g>
<!-- Point&#45;&gt;Around -->
<g id="edge1" class="edge"><title>Point&#45;&gt;Around</title>
<path fill="none" stroke="#555555" d="M316.582,-136.348C321.187,-115.405 331.141,-79.6141 349.326,-54 353.056,-48.7463 357.775,-43.847 362.711,-39.4762"/>
<polygon fill="#555555" stroke="#555555" points="365.017,-42.1117 370.536,-33.0675 360.582,-36.6963 365.017,-42.1117"/>
<text text-anchor="start" x="349.326" y="-87.8" font-family="Times,serif" font-size="14.00" fill="#111111">.before</text>
<text text-anchor="start" x="349.326" y="-72.8" font-family="Times,serif" font-size="14.00" fill="#111111">.after</text>
<text text-anchor="start" x="349.326" y="-57.8" font-family="Times,serif" font-size="14.00" fill="#111111">.beforeAndAfter</text>
</g>
<!-- FocusValue -->
<g id="node5" class="node"><title>FocusValue</title>
<ellipse fill="#dfab62" stroke="black" cx="473.326" cy="-458.35" rx="34.7971" ry="26.7407"/>
<text text-anchor="middle" x="473.326" y="-462.15" font-family="Times,serif" font-size="14.00">Value</text>
<text text-anchor="middle" x="473.326" y="-447.15" font-family="Times,serif" font-size="14.00">Focus</text>
</g>
<!-- Focus&#45;&gt;FocusValue -->
<g id="edge3" class="edge"><title>Focus&#45;&gt;FocusValue</title>
<path fill="none" stroke="#dfab62" d="M317.022,-702.777C332.17,-696.885 350.92,-688.135 365.326,-676.701 418.318,-634.637 432.73,-619.171 459.326,-556.96 467.559,-537.702 471.121,-514.557 472.595,-495.64"/>
<polygon fill="#dfab62" stroke="#dfab62" points="476.091,-495.813 473.216,-485.616 469.104,-495.381 476.091,-495.813"/>
<text text-anchor="start" x="452.326" y="-598.131" font-family="Times,serif" font-size="14.00" fill="#785005">.value</text>
</g>
<!-- FocusColl -->
<g id="node7" class="node"><title>FocusColl</title>
<ellipse fill="#cf9ed3" stroke="black" cx="164.326" cy="-601.831" rx="51.7379" ry="26.7407"/>
<text text-anchor="middle" x="164.326" y="-605.631" font-family="Times,serif" font-size="14.00">Collection</text>
<text text-anchor="middle" x="164.326" y="-590.631" font-family="Times,serif" font-size="14.00">Focus</text>
</g>
<!-- Focus&#45;&gt;FocusColl -->
<g id="edge11" class="edge"><title>Focus&#45;&gt;FocusColl</title>
<path fill="none" stroke="#cf9ed3" d="M262.096,-703.981C245.628,-698.418 225.231,-689.594 210.326,-676.701 197.885,-665.94 187.706,-650.971 180.115,-637.319"/>
<polygon fill="#cf9ed3" stroke="#cf9ed3" points="183.039,-635.359 175.278,-628.147 176.847,-638.625 183.039,-635.359"/>
<text text-anchor="start" x="210.326" y="-658.001" font-family="Times,serif" font-size="14.00" fill="#6e4373">.collection</text>
</g>
<!-- BiFocus -->
<g id="node9" class="node"><title>BiFocus</title>
<ellipse fill="#90d1ba" stroke="black" cx="279.326" cy="-530.09" rx="52.1524" ry="26.7407"/>
<text text-anchor="middle" x="279.326" y="-533.89" font-family="Times,serif" font-size="14.00">Value Pair</text>
<text text-anchor="middle" x="279.326" y="-518.89" font-family="Times,serif" font-size="14.00">Focus</text>
</g>
<!-- Focus&#45;&gt;BiFocus -->
<g id="edge19" class="edge"><title>Focus&#45;&gt;BiFocus</title>
<path fill="none" stroke="#90d1ba" d="M289.291,-694.709C287.526,-665.733 283.897,-606.145 281.54,-567.439"/>
<polygon fill="#90d1ba" stroke="#90d1ba" points="285.013,-566.887 280.911,-557.118 278.026,-567.313 285.013,-566.887"/>
<text text-anchor="start" x="288.326" y="-665.501" font-family="Times,serif" font-size="14.00" fill="#32715d">.compare</text>
<text text-anchor="start" x="288.326" y="-650.501" font-family="Times,serif" font-size="14.00" fill="#32715d">.obsAndState</text>
</g>
<!-- FocusValue&#45;&gt;Point -->
<g id="edge7" class="edge"><title>FocusValue&#45;&gt;Point</title>
<path fill="none" stroke="#dfab62" d="M451.695,-437.033C419.912,-406.998 363.654,-353.065 357.326,-341.74 328.564,-290.265 318.534,-220.649 315.087,-182.787"/>
<polygon fill="#dfab62" stroke="#dfab62" points="318.554,-182.23 314.247,-172.55 311.577,-182.803 318.554,-182.23"/>
<text text-anchor="start" x="357.326" y="-318.67" font-family="Times,serif" font-size="14.00" fill="#785005">.assert(…)</text>
<text text-anchor="start" x="357.326" y="-303.67" font-family="Times,serif" font-size="14.00" fill="#785005">.test</text>
</g>
<!-- FocusValue&#45;&gt;Around -->
<g id="edge9" class="edge"><title>FocusValue&#45;&gt;Around</title>
<path fill="none" stroke="#dfab62" d="M498.126,-438.867C523.412,-418.345 561.152,-382.666 577.326,-341.74 614.051,-248.814 635.414,-202.27 583.326,-117 551.626,-65.1066 482.748,-39.5527 436.959,-27.8432"/>
<polygon fill="#dfab62" stroke="#dfab62" points="437.536,-24.3816 426.992,-25.4186 435.882,-31.1833 437.536,-24.3816"/>
<text text-anchor="start" x="614.326" y="-236.3" font-family="Times,serif" font-size="14.00" fill="#785005">.testAround</text>
</g>
<!-- FocusValue&#45;&gt;FocusValue -->
<g id="edge4" class="edge"><title>FocusValue&#45;&gt;FocusValue</title>
<path fill="none" stroke="#dfab62" d="M503.623,-471.395C515.775,-472.132 525.974,-467.784 525.974,-458.35 525.974,-451.717 520.932,-447.598 513.714,-445.994"/>
<polygon fill="#dfab62" stroke="#dfab62" points="513.838,-442.494 503.623,-445.305 513.362,-449.478 513.838,-442.494"/>
<text text-anchor="start" x="525.974" y="-462.15" font-family="Times,serif" font-size="14.00" fill="#785005">.map</text>
<text text-anchor="start" x="525.974" y="-447.15" font-family="Times,serif" font-size="14.00" fill="#785005">.rename</text>
</g>
<!-- FocusValueAO -->
<g id="node6" class="node"><title>FocusValueAO</title>
<ellipse fill="#dfab62" stroke="black" cx="476.326" cy="-314.87" rx="52.1524" ry="26.7407"/>
<text text-anchor="middle" x="476.326" y="-318.67" font-family="Times,serif" font-size="14.00">Value</text>
<text text-anchor="middle" x="476.326" y="-303.67" font-family="Times,serif" font-size="14.00">Assertions</text>
</g>
<!-- FocusValue&#45;&gt;FocusValueAO -->
<g id="edge5" class="edge"><title>FocusValue&#45;&gt;FocusValueAO</title>
<path fill="none" stroke="#dfab62" d="M473.876,-431.401C474.347,-409.204 475.029,-377.011 475.555,-352.244"/>
<polygon fill="#dfab62" stroke="#dfab62" points="479.056,-352.206 475.769,-342.134 472.058,-352.058 479.056,-352.206"/>
<text text-anchor="start" x="476.326" y="-382.91" font-family="Times,serif" font-size="14.00" fill="#785005">.assert</text>
</g>
<!-- FocusValueAO&#45;&gt;Point -->
<g id="edge8" class="edge"><title>FocusValueAO&#45;&gt;Point</title>
<path fill="none" stroke="#dfab62" d="M434.966,-298.156C413.5,-289.314 390.153,-278.4 382.326,-270 362.857,-249.106 373.85,-234.589 359.326,-210 352.537,-198.506 343.308,-187.028 334.897,-177.589"/>
<polygon fill="#dfab62" stroke="#dfab62" points="337.44,-175.183 328.097,-170.186 332.284,-179.918 337.44,-175.183"/>
<text text-anchor="start" x="382.326" y="-236.3" font-family="Times,serif" font-size="14.00" fill="#785005">.equal(By)</text>
</g>
<!-- FocusValueAO&#45;&gt;Around -->
<g id="edge10" class="edge"><title>FocusValueAO&#45;&gt;Around</title>
<path fill="none" stroke="#dfab62" d="M473.862,-287.617C467.877,-225.619 452.195,-73.8355 440.326,-54 436.626,-47.816 431.369,-42.4003 425.682,-37.7942"/>
<polygon fill="#dfab62" stroke="#dfab62" points="427.324,-34.6617 417.172,-31.6298 423.217,-40.3307 427.324,-34.6617"/>
<text text-anchor="start" x="464.326" y="-180.8" font-family="Times,serif" font-size="14.00" fill="#785005">.beforeAndAfter(By)</text>
<text text-anchor="start" x="464.326" y="-165.8" font-family="Times,serif" font-size="14.00" fill="#785005">.change(To)</text>
<text text-anchor="start" x="464.326" y="-150.8" font-family="Times,serif" font-size="14.00" fill="#785005">.noChange</text>
<text text-anchor="start" x="464.326" y="-135.8" font-family="Times,serif" font-size="14.00" fill="#785005">.{de,inc}rease(By)</text>
<text text-anchor="start" x="464.326" y="-120.8" font-family="Times,serif" font-size="14.00" fill="#785005">.{de,inc}rement</text>
</g>
<!-- FocusValueAO&#45;&gt;FocusValueAO -->
<g id="edge6" class="edge"><title>FocusValueAO&#45;&gt;FocusValueAO</title>
<path fill="none" stroke="#dfab62" d="M522.32,-327.966C536.004,-327.575 546.652,-323.21 546.652,-314.87 546.652,-308.745 540.909,-304.764 532.439,-302.927"/>
<polygon fill="#dfab62" stroke="#dfab62" points="532.652,-299.428 522.32,-301.774 531.859,-306.383 532.652,-299.428"/>
<text text-anchor="start" x="546.652" y="-311.17" font-family="Times,serif" font-size="14.00" fill="#785005">.not</text>
</g>
<!-- FocusColl&#45;&gt;Point -->
<g id="edge16" class="edge"><title>FocusColl&#45;&gt;Point</title>
<path fill="none" stroke="#cf9ed3" d="M161.749,-574.96C156.737,-521.159 147.265,-398.961 160.326,-359.74 167.257,-338.928 255.029,-228.086 294.417,-178.965"/>
<polygon fill="#cf9ed3" stroke="#cf9ed3" points="297.209,-181.077 300.741,-171.089 291.751,-176.694 297.209,-181.077"/>
<text text-anchor="start" x="161.326" y="-382.91" font-family="Times,serif" font-size="14.00" fill="#6e4373">.assert(…)</text>
</g>
<!-- FocusColl&#45;&gt;FocusValue -->
<g id="edge14" class="edge"><title>FocusColl&#45;&gt;FocusValue</title>
<path fill="none" stroke="#cf9ed3" d="M215.039,-595.869C270.196,-589.548 353.788,-576.979 378.326,-556.96 398.457,-540.538 384.313,-522.855 401.326,-503.22 410.416,-492.73 422.65,-483.992 434.453,-477.147"/>
<polygon fill="#cf9ed3" stroke="#cf9ed3" points="436.245,-480.157 443.336,-472.284 432.883,-474.017 436.245,-480.157"/>
<text text-anchor="start" x="401.326" y="-533.89" font-family="Times,serif" font-size="14.00" fill="#6e4373">.size</text>
<text text-anchor="start" x="401.326" y="-518.89" font-family="Times,serif" font-size="14.00" fill="#6e4373">.value(By)</text>
</g>
<!-- FocusColl&#45;&gt;FocusColl -->
<g id="edge12" class="edge"><title>FocusColl&#45;&gt;FocusColl</title>
<path fill="none" stroke="#cf9ed3" d="M211.833,-612.61C224.415,-611.994 233.945,-608.401 233.945,-601.831 233.945,-597.211 229.233,-594.063 222.062,-592.387"/>
<polygon fill="#cf9ed3" stroke="#cf9ed3" points="222.202,-588.875 211.833,-591.051 221.296,-595.817 222.202,-588.875"/>
<text text-anchor="start" x="233.945" y="-598.131" font-family="Times,serif" font-size="14.00" fill="#6e4373">.map</text>
</g>
<!-- FocusCollAO -->
<g id="node8" class="node"><title>FocusCollAO</title>
<ellipse fill="#cf9ed3" stroke="black" cx="52.3259" cy="-314.87" rx="52.1524" ry="26.7407"/>
<text text-anchor="middle" x="52.3259" y="-318.67" font-family="Times,serif" font-size="14.00">Collection</text>
<text text-anchor="middle" x="52.3259" y="-303.67" font-family="Times,serif" font-size="14.00">Assertions</text>
</g>
<!-- FocusColl&#45;&gt;FocusCollAO -->
<g id="edge13" class="edge"><title>FocusColl&#45;&gt;FocusCollAO</title>
<path fill="none" stroke="#cf9ed3" d="M153.097,-575.253C142.944,-551.916 127.732,-516.415 115.326,-485.22 97.0201,-439.19 77.3267,-385.51 64.9228,-351.131"/>
<polygon fill="#cf9ed3" stroke="#cf9ed3" points="68.1507,-349.765 61.471,-341.541 61.5643,-352.135 68.1507,-349.765"/>
<text text-anchor="start" x="115.326" y="-454.65" font-family="Times,serif" font-size="14.00" fill="#6e4373">.assert</text>
</g>
<!-- FocusCollAO&#45;&gt;Point -->
<g id="edge17" class="edge"><title>FocusCollAO&#45;&gt;Point</title>
<path fill="none" stroke="#cf9ed3" d="M44.3927,-288.217C38.9725,-265.132 35.6001,-231.613 53.3259,-210 56.8713,-205.677 204.297,-176.619 275.543,-162.789"/>
<polygon fill="#cf9ed3" stroke="#cf9ed3" points="276.324,-166.203 285.476,-160.864 274.992,-159.331 276.324,-166.203"/>
<text text-anchor="start" x="53.3259" y="-258.8" font-family="Times,serif" font-size="14.00" fill="#6e4373">.distinct</text>
<text text-anchor="start" x="53.3259" y="-243.8" font-family="Times,serif" font-size="14.00" fill="#6e4373">.contains(All,Any,None,Only)</text>
<text text-anchor="start" x="53.3259" y="-228.8" font-family="Times,serif" font-size="14.00" fill="#6e4373">.existenceOf(All(By))</text>
<text text-anchor="start" x="53.3259" y="-213.8" font-family="Times,serif" font-size="14.00" fill="#6e4373">.equal(IgnoringOrder)(By)</text>
</g>
<!-- FocusCollAO&#45;&gt;Around -->
<g id="edge18" class="edge"><title>FocusCollAO&#45;&gt;Around</title>
<path fill="none" stroke="#cf9ed3" d="M40.1418,-288.515C31.4512,-266.548 23.384,-234.529 36.3259,-210 98.8671,-91.4673 266.378,-43.4718 347.318,-26.7515"/>
<polygon fill="#cf9ed3" stroke="#cf9ed3" points="348.093,-30.166 357.213,-24.7747 346.721,-23.3016 348.093,-30.166"/>
<text text-anchor="start" x="120.326" y="-150.8" font-family="Times,serif" font-size="14.00" fill="#6e4373">.elemChanges(By)</text>
</g>
<!-- FocusCollAO&#45;&gt;FocusCollAO -->
<g id="edge15" class="edge"><title>FocusCollAO&#45;&gt;FocusCollAO</title>
<path fill="none" stroke="#cf9ed3" d="M98.3197,-327.966C112.004,-327.575 122.652,-323.21 122.652,-314.87 122.652,-308.745 116.909,-304.764 108.439,-302.927"/>
<polygon fill="#cf9ed3" stroke="#cf9ed3" points="108.652,-299.428 98.3197,-301.774 107.859,-306.383 108.652,-299.428"/>
<text text-anchor="start" x="122.652" y="-311.17" font-family="Times,serif" font-size="14.00" fill="#6e4373">.not</text>
</g>
<!-- BiFocus&#45;&gt;BiFocus -->
<g id="edge20" class="edge"><title>BiFocus&#45;&gt;BiFocus</title>
<path fill="none" stroke="#90d1ba" d="M325.32,-543.187C339.004,-542.796 349.652,-538.43 349.652,-530.09 349.652,-523.966 343.909,-519.985 335.439,-518.147"/>
<polygon fill="#90d1ba" stroke="#90d1ba" points="335.652,-514.649 325.32,-516.994 334.859,-521.604 335.652,-514.649"/>
<text text-anchor="start" x="349.652" y="-526.39" font-family="Times,serif" font-size="14.00" fill="#32715d">.map</text>
</g>
<!-- BiFocusAO -->
<g id="node10" class="node"><title>BiFocusAO</title>
<ellipse fill="#90d1ba" stroke="black" cx="279.326" cy="-386.61" rx="52.1524" ry="26.7407"/>
<text text-anchor="middle" x="279.326" y="-390.41" font-family="Times,serif" font-size="14.00">Value Pair</text>
<text text-anchor="middle" x="279.326" y="-375.41" font-family="Times,serif" font-size="14.00">Assertions</text>
</g>
<!-- BiFocus&#45;&gt;BiFocusAO -->
<g id="edge21" class="edge"><title>BiFocus&#45;&gt;BiFocusAO</title>
<path fill="none" stroke="#90d1ba" d="M279.326,-503.141C279.326,-480.944 279.326,-448.752 279.326,-423.984"/>
<polygon fill="#90d1ba" stroke="#90d1ba" points="282.826,-423.874 279.326,-413.874 275.826,-423.874 282.826,-423.874"/>
<text text-anchor="start" x="279.326" y="-454.65" font-family="Times,serif" font-size="14.00" fill="#32715d">.assert</text>
</g>
<!-- BiFocusAO&#45;&gt;Point -->
<g id="edge23" class="edge"><title>BiFocusAO&#45;&gt;Point</title>
<path fill="none" stroke="#90d1ba" d="M282.627,-359.485C285.156,-339.813 288.798,-312.191 292.326,-288 297.642,-251.539 304.408,-209.541 308.801,-182.773"/>
<polygon fill="#90d1ba" stroke="#90d1ba" points="312.3,-183.067 310.472,-172.631 305.393,-181.929 312.3,-183.067"/>
<text text-anchor="start" x="292.326" y="-311.17" font-family="Times,serif" font-size="14.00" fill="#32715d">.equal</text>
</g>
<!-- BiFocusAO&#45;&gt;BiFocusAO -->
<g id="edge22" class="edge"><title>BiFocusAO&#45;&gt;BiFocusAO</title>
<path fill="none" stroke="#90d1ba" d="M325.32,-399.706C339.004,-399.315 349.652,-394.95 349.652,-386.61 349.652,-380.486 343.909,-376.504 335.439,-374.667"/>
<polygon fill="#90d1ba" stroke="#90d1ba" points="335.652,-371.168 325.32,-373.514 334.859,-378.123 335.652,-371.168"/>
<text text-anchor="start" x="349.652" y="-382.91" font-family="Times,serif" font-size="14.00" fill="#32715d">.not</text>
</g>
</g>
</svg>
