<?xml version="1.0" encoding="UTF-8" standalone="no"?>
<!DOCTYPE svg PUBLIC "-//W3C//DTD SVG 1.1//EN"
 "http://www.w3.org/Graphics/SVG/1.1/DTD/svg11.dtd">
<!-- Generated by graphviz version 2.38.0 (20140413.2041)
 -->
<!-- Title: G Pages: 1 -->
<svg width="826pt" height="826pt"
 viewBox="0.00 0.00 826.05 825.70" xmlns="http://www.w3.org/2000/svg" xmlns:xlink="http://www.w3.org/1999/xlink">
<g id="graph0" class="graph" transform="scale(1 1) rotate(0) translate(4 821.701)">
<title>G</title>
<polygon fill="white" stroke="none" points="-4,4 -4,-821.701 822.054,-821.701 822.054,4 -4,4"/>
<!-- root -->
<g id="node1" class="node"><title>root</title>
<ellipse fill="#444444" stroke="black" cx="369.054" cy="-799.701" rx="27" ry="18"/>
<text text-anchor="middle" x="369.054" y="-796.001" font-family="Times,serif" font-size="14.00" fill="white">Dsl</text>
</g>
<!-- Focus -->
<g id="node4" class="node"><title>Focus</title>
<ellipse fill="lightgrey" stroke="black" cx="369.054" cy="-712.701" rx="38.1938" ry="18"/>
<text text-anchor="middle" x="369.054" y="-709.001" font-family="Times,serif" font-size="14.00">Focus</text>
</g>
<!-- root&#45;&gt;Focus -->
<g id="edge2" class="edge"><title>root&#45;&gt;Focus</title>
<path fill="none" stroke="black" d="M369.054,-781.5C369.054,-769.863 369.054,-754.248 369.054,-740.937"/>
<polygon fill="black" stroke="black" points="372.554,-740.876 369.054,-730.876 365.554,-740.876 372.554,-740.876"/>
<text text-anchor="start" x="369.054" y="-752.501" font-family="Times,serif" font-size="14.00">.focus</text>
</g>
<!-- Point -->
<g id="node2" class="node"><title>Point</title>
<ellipse fill="#9bd858" stroke="black" cx="374.054" cy="-154.5" rx="35.194" ry="18"/>
<text text-anchor="middle" x="374.054" y="-150.8" font-family="Times,serif" font-size="14.00">Point</text>
</g>
<!-- Around -->
<g id="node3" class="node"><title>Around</title>
<ellipse fill="#9bd858" stroke="black" cx="466.054" cy="-18" rx="44.6926" ry="18"/>
<text text-anchor="middle" x="466.054" y="-14.3" font-family="Times,serif" font-size="14.00">Around</text>
</g>
<!-- Point&#45;&gt;Around -->
<g id="edge1" class="edge"><title>Point&#45;&gt;Around</title>
<path fill="none" stroke="#555555" d="M376.952,-136.353C381.27,-115.091 391.12,-78.6479 411.054,-54 416.108,-47.7504 422.591,-42.2748 429.32,-37.6246"/>
<polygon fill="#555555" stroke="#555555" points="431.325,-40.4976 437.887,-32.1798 427.57,-34.5898 431.325,-40.4976"/>
<text text-anchor="start" x="411.054" y="-87.8" font-family="Times,serif" font-size="14.00" fill="#111111">.before</text>
<text text-anchor="start" x="411.054" y="-72.8" font-family="Times,serif" font-size="14.00" fill="#111111">.after</text>
<text text-anchor="start" x="411.054" y="-57.8" font-family="Times,serif" font-size="14.00" fill="#111111">.beforeAndAfter</text>
</g>
<!-- FocusValue -->
<g id="node5" class="node"><title>FocusValue</title>
<ellipse fill="#dfab62" stroke="black" cx="569.054" cy="-458.35" rx="41.9398" ry="26.7407"/>
<text text-anchor="middle" x="569.054" y="-462.15" font-family="Times,serif" font-size="14.00">Value</text>
<text text-anchor="middle" x="569.054" y="-447.15" font-family="Times,serif" font-size="14.00">Focus</text>
</g>
<!-- Focus&#45;&gt;FocusValue -->
<g id="edge3" class="edge"><title>Focus&#45;&gt;FocusValue</title>
<path fill="none" stroke="#dfab62" d="M403.373,-704.343C422.813,-698.973 446.813,-690.223 465.054,-676.701 518.535,-637.053 529.528,-618.447 555.054,-556.96 563.085,-537.616 566.637,-514.468 568.157,-495.57"/>
<polygon fill="#dfab62" stroke="#dfab62" points="571.652,-495.765 568.808,-485.559 564.667,-495.311 571.652,-495.765"/>
<text text-anchor="start" x="548.054" y="-598.131" font-family="Times,serif" font-size="14.00" fill="#785005">.value</text>
</g>
<!-- FocusColl -->
<g id="node7" class="node"><title>FocusColl</title>
<ellipse fill="#cf9ed3" stroke="black" cx="196.054" cy="-601.831" rx="62.8651" ry="26.7407"/>
<text text-anchor="middle" x="196.054" y="-605.631" font-family="Times,serif" font-size="14.00">Collection</text>
<text text-anchor="middle" x="196.054" y="-590.631" font-family="Times,serif" font-size="14.00">Focus</text>
</g>
<!-- Focus&#45;&gt;FocusColl -->
<g id="edge11" class="edge"><title>Focus&#45;&gt;FocusColl</title>
<path fill="none" stroke="#cf9ed3" d="M335.581,-703.445C316.114,-697.735 291.637,-688.944 272.054,-676.701 254.151,-665.508 237.027,-649.507 223.582,-635.257"/>
<polygon fill="#cf9ed3" stroke="#cf9ed3" points="225.853,-632.557 216.509,-627.563 220.7,-637.294 225.853,-632.557"/>
<text text-anchor="start" x="272.054" y="-658.001" font-family="Times,serif" font-size="14.00" fill="#6e4373">.collection</text>
</g>
<!-- BiFocus -->
<g id="node9" class="node"><title>BiFocus</title>
<ellipse fill="#90d1ba" stroke="black" cx="340.054" cy="-530.09" rx="64.1938" ry="26.7407"/>
<text text-anchor="middle" x="340.054" y="-533.89" font-family="Times,serif" font-size="14.00">Value Pair</text>
<text text-anchor="middle" x="340.054" y="-518.89" font-family="Times,serif" font-size="14.00">Focus</text>
</g>
<!-- Focus&#45;&gt;BiFocus -->
<g id="edge19" class="edge"><title>Focus&#45;&gt;BiFocus</title>
<path fill="none" stroke="#90d1ba" d="M367.129,-694.356C364.13,-668.319 357.867,-617.633 350.054,-574.96 349.569,-572.314 349.034,-569.586 348.471,-566.846"/>
<polygon fill="#90d1ba" stroke="#90d1ba" points="351.876,-566.033 346.347,-556.995 345.033,-567.508 351.876,-566.033"/>
<text text-anchor="start" x="365.054" y="-665.501" font-family="Times,serif" font-size="14.00" fill="#32715d">.compare</text>
<text text-anchor="start" x="365.054" y="-650.501" font-family="Times,serif" font-size="14.00" fill="#32715d">.obsAndState</text>
</g>
<!-- FocusValue&#45;&gt;Point -->
<g id="edge7" class="edge"><title>FocusValue&#45;&gt;Point</title>
<path fill="none" stroke="#dfab62" d="M544.819,-436.267C521.442,-416.139 484.872,-385.193 452.054,-359.74 441.235,-351.349 434.92,-352.947 427.054,-341.74 392.6,-292.655 380.428,-221.544 376.214,-182.938"/>
<polygon fill="#dfab62" stroke="#dfab62" points="379.65,-182.116 375.185,-172.508 372.684,-182.804 379.65,-182.116"/>
<text text-anchor="start" x="427.054" y="-318.67" font-family="Times,serif" font-size="14.00" fill="#785005">.assert(…)</text>
<text text-anchor="start" x="427.054" y="-303.67" font-family="Times,serif" font-size="14.00" fill="#785005">.test</text>
</g>
<!-- FocusValue&#45;&gt;Around -->
<g id="edge9" class="edge"><title>FocusValue&#45;&gt;Around</title>
<path fill="none" stroke="#dfab62" d="M600.039,-439.983C630.973,-420.622 676.502,-386.112 695.054,-341.74 733.593,-249.563 755.398,-200.18 700.054,-117 659.974,-56.762 574.976,-33.4791 519.212,-24.5279"/>
<polygon fill="#dfab62" stroke="#dfab62" points="519.567,-21.0419 509.158,-23.0176 518.527,-27.9642 519.567,-21.0419"/>
<text text-anchor="start" x="733.054" y="-236.3" font-family="Times,serif" font-size="14.00" fill="#785005">.testAround</text>
</g>
<!-- FocusValue&#45;&gt;FocusValue -->
<g id="edge4" class="edge"><title>FocusValue&#45;&gt;FocusValue</title>
<path fill="none" stroke="#dfab62" d="M605.5,-471.468C618.348,-471.678 628.773,-467.305 628.773,-458.35 628.773,-451.914 623.387,-447.845 615.587,-446.143"/>
<polygon fill="#dfab62" stroke="#dfab62" points="615.774,-442.646 605.5,-445.232 615.145,-449.617 615.774,-442.646"/>
<text text-anchor="start" x="628.773" y="-462.15" font-family="Times,serif" font-size="14.00" fill="#785005">.map</text>
<text text-anchor="start" x="628.773" y="-447.15" font-family="Times,serif" font-size="14.00" fill="#785005">.rename</text>
</g>
<!-- FocusValueAO -->
<g id="node6" class="node"><title>FocusValueAO</title>
<ellipse fill="#dfab62" stroke="black" cx="575.054" cy="-314.87" rx="65.1077" ry="26.7407"/>
<text text-anchor="middle" x="575.054" y="-318.67" font-family="Times,serif" font-size="14.00">Value</text>
<text text-anchor="middle" x="575.054" y="-303.67" font-family="Times,serif" font-size="14.00">Assertions</text>
</g>
<!-- FocusValue&#45;&gt;FocusValueAO -->
<g id="edge5" class="edge"><title>FocusValue&#45;&gt;FocusValueAO</title>
<path fill="none" stroke="#dfab62" d="M570.154,-431.401C571.096,-409.204 572.461,-377.011 573.511,-352.244"/>
<polygon fill="#dfab62" stroke="#dfab62" points="577.013,-352.274 573.94,-342.134 570.019,-351.977 577.013,-352.274"/>
<text text-anchor="start" x="574.054" y="-382.91" font-family="Times,serif" font-size="14.00" fill="#785005">.assert</text>
</g>
<!-- FocusValueAO&#45;&gt;Point -->
<g id="edge8" class="edge"><title>FocusValueAO&#45;&gt;Point</title>
<path fill="none" stroke="#dfab62" d="M524.489,-297.695C493.82,-287.512 459.553,-275.322 454.054,-270 433.416,-250.026 446.027,-233.87 430.054,-210 421.817,-197.691 410.421,-185.969 400.059,-176.572"/>
<polygon fill="#dfab62" stroke="#dfab62" points="402.233,-173.824 392.405,-169.868 397.621,-179.09 402.233,-173.824"/>
<text text-anchor="start" x="454.054" y="-236.3" font-family="Times,serif" font-size="14.00" fill="#785005">.equal(By)</text>
</g>
<!-- FocusValueAO&#45;&gt;Around -->
<g id="edge10" class="edge"><title>FocusValueAO&#45;&gt;Around</title>
<path fill="none" stroke="#dfab62" d="M570.831,-287.713C560.411,-223.681 533.833,-63.5705 527.054,-54 521.824,-46.616 514.51,-40.5741 506.757,-35.7159"/>
<polygon fill="#dfab62" stroke="#dfab62" points="508.334,-32.5875 497.904,-30.7255 504.897,-38.6853 508.334,-32.5875"/>
<text text-anchor="start" x="555.054" y="-180.8" font-family="Times,serif" font-size="14.00" fill="#785005">.beforeAndAfter(By)</text>
<text text-anchor="start" x="555.054" y="-165.8" font-family="Times,serif" font-size="14.00" fill="#785005">.change(To)</text>
<text text-anchor="start" x="555.054" y="-150.8" font-family="Times,serif" font-size="14.00" fill="#785005">.noChange</text>
<text text-anchor="start" x="555.054" y="-135.8" font-family="Times,serif" font-size="14.00" fill="#785005">.{de,inc}rease(By)</text>
<text text-anchor="start" x="555.054" y="-120.8" font-family="Times,serif" font-size="14.00" fill="#785005">.{de,inc}rement</text>
</g>
<!-- FocusValueAO&#45;&gt;FocusValueAO -->
<g id="edge6" class="edge"><title>FocusValueAO&#45;&gt;FocusValueAO</title>
<path fill="none" stroke="#dfab62" d="M632.116,-327.86C646.934,-327.061 658.108,-322.731 658.108,-314.87 658.108,-308.913 651.691,-304.983 642.134,-303.082"/>
<polygon fill="#dfab62" stroke="#dfab62" points="642.462,-299.596 632.116,-301.88 641.628,-306.546 642.462,-299.596"/>
<text text-anchor="start" x="658.108" y="-311.17" font-family="Times,serif" font-size="14.00" fill="#785005">.not</text>
</g>
<!-- FocusColl&#45;&gt;Point -->
<g id="edge16" class="edge"><title>FocusColl&#45;&gt;Point</title>
<path fill="none" stroke="#cf9ed3" d="M193.198,-574.86C187.653,-520.868 177.216,-398.324 192.054,-359.74 211.339,-309.592 237.282,-310.089 273.054,-270 301.154,-238.508 333.371,-201.896 353.714,-178.715"/>
<polygon fill="#cf9ed3" stroke="#cf9ed3" points="356.424,-180.932 360.387,-171.107 351.162,-176.316 356.424,-180.932"/>
<text text-anchor="start" x="192.054" y="-382.91" font-family="Times,serif" font-size="14.00" fill="#6e4373">.assert(…)</text>
</g>
<!-- FocusColl&#45;&gt;FocusValue -->
<g id="edge14" class="edge"><title>FocusColl&#45;&gt;FocusValue</title>
<path fill="none" stroke="#cf9ed3" d="M258.292,-597.268C325.999,-592.231 428.658,-580.837 459.054,-556.96 479.484,-540.912 464.268,-522.157 482.054,-503.22 493.264,-491.285 508.435,-482.104 522.969,-475.3"/>
<polygon fill="#cf9ed3" stroke="#cf9ed3" points="524.631,-478.393 532.38,-471.167 521.816,-471.983 524.631,-478.393"/>
<text text-anchor="start" x="482.054" y="-533.89" font-family="Times,serif" font-size="14.00" fill="#6e4373">.size</text>
<text text-anchor="start" x="482.054" y="-518.89" font-family="Times,serif" font-size="14.00" fill="#6e4373">.value(By)</text>
</g>
<!-- FocusColl&#45;&gt;FocusColl -->
<g id="edge12" class="edge"><title>FocusColl&#45;&gt;FocusColl</title>
<path fill="none" stroke="#cf9ed3" d="M253.889,-612.466C267.205,-611.549 276.986,-608.004 276.986,-601.831 276.986,-597.345 271.823,-594.247 263.892,-592.537"/>
<polygon fill="#cf9ed3" stroke="#cf9ed3" points="264.266,-589.055 253.889,-591.195 263.335,-595.993 264.266,-589.055"/>
<text text-anchor="start" x="276.986" y="-605.631" font-family="Times,serif" font-size="14.00" fill="#6e4373">.map</text>
<text text-anchor="start" x="276.986" y="-590.631" font-family="Times,serif" font-size="14.00" fill="#6e4373">.mapColl</text>
</g>
<!-- FocusCollAO -->
<g id="node8" class="node"><title>FocusCollAO</title>
<ellipse fill="#cf9ed3" stroke="black" cx="65.0538" cy="-314.87" rx="65.1077" ry="26.7407"/>
<text text-anchor="middle" x="65.0538" y="-318.67" font-family="Times,serif" font-size="14.00">Collection</text>
<text text-anchor="middle" x="65.0538" y="-303.67" font-family="Times,serif" font-size="14.00">Assertions</text>
</g>
<!-- FocusColl&#45;&gt;FocusCollAO -->
<g id="edge13" class="edge"><title>FocusColl&#45;&gt;FocusCollAO</title>
<path fill="none" stroke="#cf9ed3" d="M181.166,-575.561C167.81,-552.432 148.06,-517.063 133.054,-485.22 111.665,-439.833 90.716,-385.791 77.8483,-351.173"/>
<polygon fill="#cf9ed3" stroke="#cf9ed3" points="81.0294,-349.683 74.2813,-341.516 74.463,-352.109 81.0294,-349.683"/>
<text text-anchor="start" x="133.054" y="-454.65" font-family="Times,serif" font-size="14.00" fill="#6e4373">.assert</text>
</g>
<!-- FocusCollAO&#45;&gt;Point -->
<g id="edge17" class="edge"><title>FocusCollAO&#45;&gt;Point</title>
<path fill="none" stroke="#cf9ed3" d="M56.9628,-288.085C51.4337,-264.91 47.9899,-231.332 66.0538,-210 66.1882,-209.841 246.793,-177.955 331.343,-163.035"/>
<polygon fill="#cf9ed3" stroke="#cf9ed3" points="332.162,-166.445 341.401,-161.261 330.945,-159.552 332.162,-166.445"/>
<text text-anchor="start" x="66.0538" y="-258.8" font-family="Times,serif" font-size="14.00" fill="#6e4373">.distinct</text>
<text text-anchor="start" x="66.0538" y="-243.8" font-family="Times,serif" font-size="14.00" fill="#6e4373">.contains(All,Any,None,Only)</text>
<text text-anchor="start" x="66.0538" y="-228.8" font-family="Times,serif" font-size="14.00" fill="#6e4373">.existenceOf(All(By))</text>
<text text-anchor="start" x="66.0538" y="-213.8" font-family="Times,serif" font-size="14.00" fill="#6e4373">.equal(IgnoringOrder)(By)</text>
</g>
<!-- FocusCollAO&#45;&gt;Around -->
<g id="edge18" class="edge"><title>FocusCollAO&#45;&gt;Around</title>
<path fill="none" stroke="#cf9ed3" d="M52.5993,-288.369C43.7355,-266.307 35.5658,-234.233 49.0538,-210 122.85,-77.4165 317.833,-36.385 412.701,-24.0709"/>
<polygon fill="#cf9ed3" stroke="#cf9ed3" points="413.168,-27.5399 422.662,-22.8362 412.307,-20.5931 413.168,-27.5399"/>
<text text-anchor="start" x="136.054" y="-150.8" font-family="Times,serif" font-size="14.00" fill="#6e4373">.elemChanges(By)</text>
</g>
<!-- FocusCollAO&#45;&gt;FocusCollAO -->
<g id="edge15" class="edge"><title>FocusCollAO&#45;&gt;FocusCollAO</title>
<path fill="none" stroke="#cf9ed3" d="M122.116,-327.86C136.934,-327.061 148.108,-322.731 148.108,-314.87 148.108,-308.913 141.691,-304.983 132.134,-303.082"/>
<polygon fill="#cf9ed3" stroke="#cf9ed3" points="132.462,-299.596 122.116,-301.88 131.628,-306.546 132.462,-299.596"/>
<text text-anchor="start" x="148.108" y="-311.17" font-family="Times,serif" font-size="14.00" fill="#6e4373">.not</text>
</g>
<!-- BiFocus&#45;&gt;BiFocus -->
<g id="edge20" class="edge"><title>BiFocus&#45;&gt;BiFocus</title>
<path fill="none" stroke="#90d1ba" d="M396.631,-543.08C411.322,-542.282 422.401,-537.952 422.401,-530.09 422.401,-524.133 416.039,-520.204 406.563,-518.302"/>
<polygon fill="#90d1ba" stroke="#90d1ba" points="406.979,-514.827 396.631,-517.101 406.138,-521.776 406.979,-514.827"/>
<text text-anchor="start" x="422.401" y="-526.39" font-family="Times,serif" font-size="14.00" fill="#32715d">.map</text>
</g>
<!-- BiFocusAO -->
<g id="node10" class="node"><title>BiFocusAO</title>
<ellipse fill="#90d1ba" stroke="black" cx="340.054" cy="-386.61" rx="65.1077" ry="26.7407"/>
<text text-anchor="middle" x="340.054" y="-390.41" font-family="Times,serif" font-size="14.00">Value Pair</text>
<text text-anchor="middle" x="340.054" y="-375.41" font-family="Times,serif" font-size="14.00">Assertions</text>
</g>
<!-- BiFocus&#45;&gt;BiFocusAO -->
<g id="edge21" class="edge"><title>BiFocus&#45;&gt;BiFocusAO</title>
<path fill="none" stroke="#90d1ba" d="M340.054,-503.141C340.054,-480.944 340.054,-448.752 340.054,-423.984"/>
<polygon fill="#90d1ba" stroke="#90d1ba" points="343.554,-423.874 340.054,-413.874 336.554,-423.874 343.554,-423.874"/>
<text text-anchor="start" x="340.054" y="-454.65" font-family="Times,serif" font-size="14.00" fill="#32715d">.assert</text>
</g>
<!-- BiFocusAO&#45;&gt;Point -->
<g id="edge23" class="edge"><title>BiFocusAO&#45;&gt;Point</title>
<path fill="none" stroke="#90d1ba" d="M342.964,-359.47C345.229,-339.79 348.564,-312.165 352.054,-288 357.327,-251.488 364.484,-209.502 369.184,-182.751"/>
<polygon fill="#90d1ba" stroke="#90d1ba" points="372.681,-183.072 370.975,-172.616 365.788,-181.854 372.681,-183.072"/>
<text text-anchor="start" x="352.054" y="-311.17" font-family="Times,serif" font-size="14.00" fill="#32715d">.equal</text>
</g>
<!-- BiFocusAO&#45;&gt;BiFocusAO -->
<g id="edge22" class="edge"><title>BiFocusAO&#45;&gt;BiFocusAO</title>
<path fill="none" stroke="#90d1ba" d="M397.116,-399.6C411.934,-398.801 423.108,-394.472 423.108,-386.61 423.108,-380.653 416.691,-376.723 407.134,-374.822"/>
<polygon fill="#90d1ba" stroke="#90d1ba" points="407.462,-371.336 397.116,-373.621 406.628,-378.287 407.462,-371.336"/>
<text text-anchor="start" x="423.108" y="-382.91" font-family="Times,serif" font-size="14.00" fill="#32715d">.not</text>
</g>
</g>
</svg>
