<?xml version="1.0" encoding="UTF-8" standalone="no"?>
<!DOCTYPE svg PUBLIC "-//W3C//DTD SVG 1.1//EN"
 "http://www.w3.org/Graphics/SVG/1.1/DTD/svg11.dtd">
<!-- Generated by graphviz version 2.40.1 (20161225.0304)
 -->
<!-- Title: G Pages: 1 -->
<svg width="507pt" height="877pt"
 viewBox="0.00 0.00 507.19 877.22" xmlns="http://www.w3.org/2000/svg" xmlns:xlink="http://www.w3.org/1999/xlink">
<g id="graph0" class="graph" transform="scale(1 1) rotate(0) translate(4 873.2203)">
<title>G</title>
<polygon fill="#ffffff" stroke="transparent" points="-4,4 -4,-873.2203 503.1913,-873.2203 503.1913,4 -4,4"/>
<!-- start -->
<g id="node1" class="node">
<title>start</title>
<ellipse fill="#000000" stroke="#000000" cx="394.1457" cy="-858.2203" rx="11" ry="11"/>
<text text-anchor="middle" x="394.1457" y="-857.9203" font-family="Times,serif" font-size="1.00" fill="#000000">start</text>
</g>
<!-- obs1 -->
<g id="node3" class="node">
<title>obs1</title>
<ellipse fill="#ffeecc" stroke="#000000" cx="394.1457" cy="-792.2203" rx="50.0912" ry="18"/>
<text text-anchor="middle" x="394.1457" y="-788.5203" font-family="Times,serif" font-size="14.00" fill="#000000">Observe</text>
</g>
<!-- start&#45;&gt;obs1 -->
<g id="edge1" class="edge">
<title>start&#45;&gt;obs1</title>
<path fill="none" stroke="#000000" d="M394.1457,-847.0243C394.1457,-839.7562 394.1457,-829.9339 394.1457,-820.6119"/>
<polygon fill="#000000" stroke="#000000" points="397.6458,-820.4626 394.1457,-810.4627 390.6458,-820.4627 397.6458,-820.4626"/>
</g>
<!-- end -->
<g id="node2" class="node">
<title>end</title>
<ellipse fill="#000000" stroke="#000000" cx="378.1457" cy="-15" rx="11" ry="11"/>
<ellipse fill="none" stroke="#000000" cx="378.1457" cy="-15" rx="15" ry="15"/>
<text text-anchor="middle" x="378.1457" y="-14.7" font-family="Times,serif" font-size="1.00" fill="#000000">end</text>
</g>
<!-- obs1&#45;&gt;obs1 -->
<g id="edge15" class="edge">
<title>obs1&#45;&gt;obs1</title>
<path fill="none" stroke="#cc0000" d="M451.2152,-797.9837C457.8644,-796.921 462.1913,-794.9999 462.1913,-792.2203 462.1913,-788.1774 453.037,-785.9506 440.8968,-785.54"/>
<polygon fill="#cc0000" stroke="#cc0000" points="450.5477,-794.5291 440.8968,-798.9007 451.1674,-801.5016 450.5477,-794.5291"/>
<text text-anchor="middle" x="480.6913" y="-788.5203" font-family="Times,serif" font-size="14.00" fill="#cc0000">retry</text>
</g>
<!-- inv1 -->
<g id="node8" class="node">
<title>inv1</title>
<ellipse fill="#eeeeee" stroke="#000000" cx="394.1457" cy="-705.2203" rx="81.4863" ry="18"/>
<text text-anchor="middle" x="394.1457" y="-701.5203" font-family="Times,serif" font-size="14.00" fill="#000000">Test invariants</text>
</g>
<!-- obs1&#45;&gt;inv1 -->
<g id="edge2" class="edge">
<title>obs1&#45;&gt;inv1</title>
<path fill="none" stroke="#000000" d="M392.9317,-773.9144C392.6087,-768.2455 392.3055,-761.977 392.1457,-756.2203 391.9442,-748.9599 392.0768,-741.1203 392.3501,-733.8168"/>
<polygon fill="#000000" stroke="#000000" points="395.8555,-733.783 392.8289,-723.6297 388.8632,-733.4543 395.8555,-733.783"/>
</g>
<!-- act -->
<g id="node4" class="node">
<title>act</title>
<ellipse fill="#ffeecc" stroke="#000000" cx="197.1457" cy="-440.4802" rx="80.6858" ry="18"/>
<text text-anchor="middle" x="197.1457" y="-436.7802" font-family="Times,serif" font-size="14.00" fill="#000000">Perform action</text>
</g>
<!-- obs -->
<g id="node5" class="node">
<title>obs</title>
<ellipse fill="#ffeecc" stroke="#000000" cx="197.1457" cy="-367.4802" rx="50.0912" ry="18"/>
<text text-anchor="middle" x="197.1457" y="-363.7802" font-family="Times,serif" font-size="14.00" fill="#000000">Observe</text>
</g>
<!-- act&#45;&gt;obs -->
<g id="edge6" class="edge">
<title>act&#45;&gt;obs</title>
<path fill="none" stroke="#000000" d="M197.1457,-422.4353C197.1457,-414.3631 197.1457,-404.6566 197.1457,-395.662"/>
<polygon fill="#000000" stroke="#000000" points="200.6458,-395.5706 197.1457,-385.5706 193.6458,-395.5706 200.6458,-395.5706"/>
</g>
<!-- obs&#45;&gt;obs -->
<g id="edge21" class="edge">
<title>obs&#45;&gt;obs</title>
<path fill="none" stroke="#cc0000" d="M254.2152,-373.2436C260.8644,-372.1809 265.1913,-370.2598 265.1913,-367.4802 265.1913,-363.4373 256.037,-361.2105 243.8968,-360.7999"/>
<polygon fill="#cc0000" stroke="#cc0000" points="253.5477,-369.789 243.8968,-374.1606 254.1674,-376.7615 253.5477,-369.789"/>
<text text-anchor="middle" x="283.6913" y="-363.7802" font-family="Times,serif" font-size="14.00" fill="#cc0000">retry</text>
</g>
<!-- state -->
<g id="node11" class="node">
<title>state</title>
<ellipse fill="#eeeeee" stroke="#000000" cx="136.1457" cy="-271.6102" rx="88.2768" ry="26.7407"/>
<text text-anchor="middle" x="136.1457" y="-275.4102" font-family="Times,serif" font-size="14.00" fill="#000000">Action updates</text>
<text text-anchor="middle" x="136.1457" y="-260.4102" font-family="Times,serif" font-size="14.00" fill="#000000">expected state</text>
</g>
<!-- obs&#45;&gt;state -->
<g id="edge7" class="edge">
<title>obs&#45;&gt;state</title>
<path fill="none" stroke="#000000" d="M193.1914,-349.1448C190.4932,-339.0252 186.2791,-326.5138 180.1457,-316.4802 177.7771,-312.6054 175.0154,-308.8044 172.0512,-305.1556"/>
<polygon fill="#000000" stroke="#000000" points="174.5272,-302.6699 165.3124,-297.4414 169.2554,-307.2752 174.5272,-302.6699"/>
</g>
<!-- obsP -->
<g id="node6" class="node">
<title>obsP</title>
<ellipse fill="#ffeecc" stroke="#000000" cx="84.1457" cy="-632.2203" rx="62.2891" ry="18"/>
<text text-anchor="middle" x="84.1457" y="-628.5203" font-family="Times,serif" font-size="14.00" fill="#000000">Re&#45;observe</text>
</g>
<!-- obsP&#45;&gt;obsP -->
<g id="edge18" class="edge">
<title>obsP&#45;&gt;obsP</title>
<path fill="none" stroke="#cc0000" d="M152.6937,-637.8233C159.9112,-636.733 164.5402,-634.8653 164.5402,-632.2203 164.5402,-628.4586 155.177,-626.2692 142.3209,-625.652"/>
<polygon fill="#cc0000" stroke="#cc0000" points="151.9536,-634.377 142.3209,-638.7887 152.6023,-641.3468 151.9536,-634.377"/>
<text text-anchor="middle" x="183.0402" y="-628.5203" font-family="Times,serif" font-size="14.00" fill="#cc0000">retry</text>
</g>
<!-- pre -->
<g id="node10" class="node">
<title>pre</title>
<ellipse fill="#eeeeee" stroke="#000000" cx="84.1457" cy="-536.3503" rx="84.2917" ry="26.7407"/>
<text text-anchor="middle" x="84.1457" y="-540.1503" font-family="Times,serif" font-size="14.00" fill="#000000">Test action&#39;s</text>
<text text-anchor="middle" x="84.1457" y="-525.1503" font-family="Times,serif" font-size="14.00" fill="#000000">pre&#45;conditions</text>
</g>
<!-- obsP&#45;&gt;pre -->
<g id="edge12" class="edge">
<title>obsP&#45;&gt;pre</title>
<path fill="none" stroke="#000000" d="M91.4149,-614.1928C93.352,-608.5352 95.1748,-602.2031 96.1457,-596.2203 97.3736,-588.6536 96.9504,-580.5846 95.7108,-572.9009"/>
<polygon fill="#000000" stroke="#000000" points="99.1357,-572.1792 93.6812,-563.0964 92.281,-573.5983 99.1357,-572.1792"/>
</g>
<!-- obsP&#45;&gt;pre -->
<g id="edge19" class="edge">
<title>obsP&#45;&gt;pre</title>
<path fill="none" stroke="#cc0000" d="M60.1951,-606.4757C58.1529,-603.2053 56.3936,-599.7587 55.1457,-596.2203 52.9284,-589.9332 53.2592,-587.6145 55.1457,-581.2203 57.0354,-574.8151 60.1561,-568.4635 63.6659,-562.642"/>
<polygon fill="#cc0000" stroke="#cc0000" points="57.4141,-608.6031 66.105,-614.6628 63.0899,-604.506 57.4141,-608.6031"/>
<text text-anchor="middle" x="73.6457" y="-585.0203" font-family="Times,serif" font-size="14.00" fill="#cc0000">retry</text>
</g>
<!-- obsA -->
<g id="node7" class="node">
<title>obsA</title>
<ellipse fill="#ffeecc" stroke="#000000" cx="249.1457" cy="-536.3503" rx="62.2891" ry="18"/>
<text text-anchor="middle" x="249.1457" y="-532.6503" font-family="Times,serif" font-size="14.00" fill="#000000">Re&#45;observe</text>
</g>
<!-- obsA&#45;&gt;act -->
<g id="edge13" class="edge">
<title>obsA&#45;&gt;act</title>
<path fill="none" stroke="#000000" d="M247.6743,-518.3284C246.0246,-505.8934 242.5319,-489.3487 235.1457,-476.4802 232.8965,-472.5616 230.0876,-468.8072 227.0213,-465.301"/>
<polygon fill="#000000" stroke="#000000" points="229.482,-462.8107 220.0147,-458.0545 224.4496,-467.6765 229.482,-462.8107"/>
</g>
<!-- obsA&#45;&gt;act -->
<g id="edge20" class="edge">
<title>obsA&#45;&gt;act</title>
<path fill="none" stroke="#cc0000" d="M212.2868,-513.9943C204.9573,-507.6905 198.2598,-500.146 194.1457,-491.4802 189.3529,-481.3846 190.0047,-468.8722 191.9027,-458.7677"/>
<polygon fill="#cc0000" stroke="#cc0000" points="210.3639,-516.9339 220.3957,-520.342 214.6788,-511.4219 210.3639,-516.9339"/>
<text text-anchor="middle" x="212.6457" y="-480.2802" font-family="Times,serif" font-size="14.00" fill="#cc0000">retry</text>
</g>
<!-- obsA&#45;&gt;obsA -->
<g id="edge17" class="edge">
<title>obsA&#45;&gt;obsA</title>
<path fill="none" stroke="#cc0000" d="M311.7213,-545.4268C322.2586,-544.1675 329.5402,-541.142 329.5402,-536.3503 329.5402,-530.155 317.3678,-526.9121 301.7244,-526.6217"/>
<polygon fill="#cc0000" stroke="#cc0000" points="311.4754,-541.9353 301.7244,-546.0789 311.9311,-548.9205 311.4754,-541.9353"/>
<text text-anchor="middle" x="348.0402" y="-532.6503" font-family="Times,serif" font-size="14.00" fill="#cc0000">retry</text>
</g>
<!-- inv1&#45;&gt;obs1 -->
<g id="edge16" class="edge">
<title>inv1&#45;&gt;obs1</title>
<path fill="none" stroke="#cc0000" d="M394.1457,-723.2237C394.1457,-735.0004 394.1457,-750.6305 394.1457,-764.036"/>
<polygon fill="#cc0000" stroke="#cc0000" points="390.6458,-764.1939 394.1457,-774.1939 397.6458,-764.1939 390.6458,-764.1939"/>
<text text-anchor="middle" x="412.6457" y="-745.0203" font-family="Times,serif" font-size="14.00" fill="#cc0000">retry</text>
</g>
<!-- more -->
<g id="node9" class="node">
<title>more</title>
<ellipse fill="#ffffff" stroke="#000000" cx="394.1457" cy="-632.2203" rx="76.8869" ry="18"/>
<text text-anchor="middle" x="394.1457" y="-628.5203" font-family="Times,serif" font-size="14.00" fill="#000000">More actions?</text>
</g>
<!-- inv1&#45;&gt;more -->
<g id="edge3" class="edge">
<title>inv1&#45;&gt;more</title>
<path fill="none" stroke="#000000" d="M394.1457,-687.1754C394.1457,-679.1032 394.1457,-669.3967 394.1457,-660.4021"/>
<polygon fill="#000000" stroke="#000000" points="397.6458,-660.3107 394.1457,-650.3107 390.6458,-660.3107 397.6458,-660.3107"/>
</g>
<!-- more&#45;&gt;end -->
<g id="edge11" class="edge">
<title>more&#45;&gt;end</title>
<path fill="none" stroke="#000000" d="M406.2718,-614.3637C417.7203,-595.7402 433.1457,-565.2797 433.1457,-536.3503 433.1457,-536.3503 433.1457,-536.3503 433.1457,-85 433.1457,-62.0489 414.6387,-42.1703 399.0957,-29.5225"/>
<polygon fill="#000000" stroke="#000000" points="400.9742,-26.5531 390.9021,-23.2662 396.726,-32.1168 400.9742,-26.5531"/>
</g>
<!-- more&#45;&gt;pre -->
<g id="edge4" class="edge">
<title>more&#45;&gt;pre</title>
<path fill="none" stroke="#000000" d="M347.7356,-617.8676C296.5361,-602.0338 213.5694,-576.3756 154.3966,-558.076"/>
<polygon fill="#000000" stroke="#000000" points="155.3326,-554.7019 144.7449,-555.0911 153.2644,-561.3894 155.3326,-554.7019"/>
</g>
<!-- pre&#45;&gt;act -->
<g id="edge5" class="edge">
<title>pre&#45;&gt;act</title>
<path fill="none" stroke="#000000" d="M113.8351,-511.1616C130.806,-496.7633 151.9781,-478.8008 168.7317,-464.5869"/>
<polygon fill="#000000" stroke="#000000" points="171.2024,-467.0807 176.5635,-457.9424 166.6737,-461.7429 171.2024,-467.0807"/>
</g>
<!-- state&#45;&gt;obs -->
<g id="edge22" class="edge">
<title>state&#45;&gt;obs</title>
<path fill="none" stroke="#cc0000" d="M132.2786,-298.4951C131.9858,-309.4038 133.3848,-321.7082 139.1457,-331.4802 143.0353,-338.078 148.6573,-343.6389 154.8891,-348.2659"/>
<polygon fill="#cc0000" stroke="#cc0000" points="153.3756,-351.4583 163.6596,-354.0062 157.2091,-345.6013 153.3756,-351.4583"/>
<text text-anchor="middle" x="157.6457" y="-320.2802" font-family="Times,serif" font-size="14.00" fill="#cc0000">retry</text>
</g>
<!-- post -->
<g id="node12" class="node">
<title>post</title>
<ellipse fill="#eeeeee" stroke="#000000" cx="208.1457" cy="-166.8701" rx="89.191" ry="26.7407"/>
<text text-anchor="middle" x="208.1457" y="-170.6701" font-family="Times,serif" font-size="14.00" fill="#000000">Test action&#39;s</text>
<text text-anchor="middle" x="208.1457" y="-155.6701" font-family="Times,serif" font-size="14.00" fill="#000000">post&#45;conditions</text>
</g>
<!-- state&#45;&gt;post -->
<g id="edge8" class="edge">
<title>state&#45;&gt;post</title>
<path fill="none" stroke="#000000" d="M154.3143,-245.1798C163.353,-232.031 174.3981,-215.9635 184.1259,-201.8123"/>
<polygon fill="#000000" stroke="#000000" points="187.2023,-203.5154 189.9829,-193.292 181.4338,-199.55 187.2023,-203.5154"/>
</g>
<!-- post&#45;&gt;obs -->
<g id="edge23" class="edge">
<title>post&#45;&gt;obs</title>
<path fill="none" stroke="#cc0000" d="M219.8903,-193.5159C230.1008,-220.2286 241.9795,-262.4516 233.1457,-298.4802 229.4792,-313.4342 221.9438,-328.7469 214.7103,-341.136"/>
<polygon fill="#cc0000" stroke="#cc0000" points="211.5308,-339.6271 209.3067,-349.9858 217.5052,-343.275 211.5308,-339.6271"/>
<text text-anchor="middle" x="255.6457" y="-267.9102" font-family="Times,serif" font-size="14.00" fill="#cc0000">retry</text>
</g>
<!-- inv -->
<g id="node13" class="node">
<title>inv</title>
<ellipse fill="#eeeeee" stroke="#000000" cx="324.1457" cy="-85" rx="81.4863" ry="18"/>
<text text-anchor="middle" x="324.1457" y="-81.3" font-family="Times,serif" font-size="14.00" fill="#000000">Test invariants</text>
</g>
<!-- post&#45;&gt;inv -->
<g id="edge9" class="edge">
<title>post&#45;&gt;inv</title>
<path fill="none" stroke="#000000" d="M243.2643,-142.0842C258.5379,-131.3044 276.3327,-118.7453 291.3362,-108.1562"/>
<polygon fill="#000000" stroke="#000000" points="293.6554,-110.8033 299.8073,-102.1775 289.619,-105.0842 293.6554,-110.8033"/>
</g>
<!-- inv&#45;&gt;end -->
<!-- inv&#45;&gt;obs -->
<g id="edge24" class="edge">
<title>inv&#45;&gt;obs</title>
<path fill="none" stroke="#cc0000" d="M324.304,-103.1345C323.8244,-142.014 318.2257,-235.0073 278.1457,-298.4802 266.2191,-317.3678 247.4872,-333.8073 231.0401,-345.8972"/>
<polygon fill="#cc0000" stroke="#cc0000" points="228.8293,-343.1741 222.6956,-351.8129 232.8778,-348.8846 228.8293,-343.1741"/>
<text text-anchor="middle" x="329.6457" y="-215.5401" font-family="Times,serif" font-size="14.00" fill="#cc0000">retry</text>
</g>
<!-- inv&#45;&gt;more -->
<g id="edge10" class="edge">
<title>inv&#45;&gt;more</title>
<path fill="none" stroke="#000000" d="M351.8116,-102.2343C371.3778,-116.7778 394.1457,-139.5671 394.1457,-166.8701 394.1457,-536.3503 394.1457,-536.3503 394.1457,-536.3503 394.1457,-559.1352 394.1457,-584.9661 394.1457,-604.0699"/>
<polygon fill="#000000" stroke="#000000" points="390.6458,-604.1974 394.1457,-614.1974 397.6458,-604.1975 390.6458,-604.1974"/>
</g>
</g>
</svg>
