<?xml version="1.0" encoding="UTF-8" standalone="no"?>
<!DOCTYPE svg PUBLIC "-//W3C//DTD SVG 1.1//EN"
 "http://www.w3.org/Graphics/SVG/1.1/DTD/svg11.dtd">
<!-- Generated by graphviz version 2.40.1 (20161225.0304)
 -->
<!-- Title: G Pages: 1 -->
<svg width="471pt" height="797pt"
 viewBox="0.00 0.00 470.64 797.22" xmlns="http://www.w3.org/2000/svg" xmlns:xlink="http://www.w3.org/1999/xlink">
<g id="graph0" class="graph" transform="scale(1 1) rotate(0) translate(4 793.2203)">
<title>G</title>
<polygon fill="#ffffff" stroke="transparent" points="-4,4 -4,-793.2203 466.6373,-793.2203 466.6373,4 -4,4"/>
<!-- start -->
<g id="node1" class="node">
<title>start</title>
<ellipse fill="#000000" stroke="#000000" cx="81.2428" cy="-778.2203" rx="11" ry="11"/>
<text text-anchor="middle" x="81.2428" y="-777.9203" font-family="Times,serif" font-size="1.00" fill="#000000">start</text>
</g>
<!-- obs1 -->
<g id="node3" class="node">
<title>obs1</title>
<ellipse fill="#ffeecc" stroke="#000000" cx="81.2428" cy="-713.2203" rx="50.0912" ry="18"/>
<text text-anchor="middle" x="81.2428" y="-709.5203" font-family="Times,serif" font-size="14.00" fill="#000000">Observe</text>
</g>
<!-- start&#45;&gt;obs1 -->
<g id="edge1" class="edge">
<title>start&#45;&gt;obs1</title>
<path fill="none" stroke="#000000" d="M81.2428,-767.194C81.2428,-760.165 81.2428,-750.7104 81.2428,-741.6787"/>
<polygon fill="#000000" stroke="#000000" points="84.7429,-741.4413 81.2428,-731.4413 77.7429,-741.4413 84.7429,-741.4413"/>
</g>
<!-- end -->
<g id="node2" class="node">
<title>end</title>
<ellipse fill="#000000" stroke="#000000" cx="135.2428" cy="-15" rx="11" ry="11"/>
<ellipse fill="none" stroke="#000000" cx="135.2428" cy="-15" rx="15" ry="15"/>
<text text-anchor="middle" x="135.2428" y="-14.7" font-family="Times,serif" font-size="1.00" fill="#000000">end</text>
</g>
<!-- obs1&#45;&gt;obs1 -->
<g id="edge15" class="edge">
<title>obs1&#45;&gt;obs1</title>
<path fill="none" stroke="#cc0000" d="M129.2691,-725.0071C140.7694,-724.0829 149.2884,-720.1539 149.2884,-713.2203 149.2884,-704.3453 135.3309,-700.3932 119.0291,-701.3639"/>
<polygon fill="#cc0000" stroke="#cc0000" points="129.005,-721.5087 119.0291,-725.0768 129.0527,-728.5086 129.005,-721.5087"/>
</g>
<!-- inv1 -->
<g id="node8" class="node">
<title>inv1</title>
<ellipse fill="#eeeeee" stroke="#000000" cx="81.2428" cy="-641.2203" rx="81.4863" ry="18"/>
<text text-anchor="middle" x="81.2428" y="-637.5203" font-family="Times,serif" font-size="14.00" fill="#000000">Test invariants</text>
</g>
<!-- obs1&#45;&gt;inv1 -->
<g id="edge2" class="edge">
<title>obs1&#45;&gt;inv1</title>
<path fill="none" stroke="#000000" d="M75.2904,-695.0517C74.54,-687.3513 74.3191,-678.1947 74.6277,-669.637"/>
<polygon fill="#000000" stroke="#000000" points="78.122,-669.8364 75.2668,-659.6336 71.1362,-669.3901 78.122,-669.8364"/>
</g>
<!-- act -->
<g id="node4" class="node">
<title>act</title>
<ellipse fill="#ffeecc" stroke="#000000" cx="353.2428" cy="-407.4802" rx="80.6858" ry="18"/>
<text text-anchor="middle" x="353.2428" y="-403.7802" font-family="Times,serif" font-size="14.00" fill="#000000">Perform action</text>
</g>
<!-- obs -->
<g id="node5" class="node">
<title>obs</title>
<ellipse fill="#ffeecc" stroke="#000000" cx="306.2428" cy="-335.4802" rx="50.0912" ry="18"/>
<text text-anchor="middle" x="306.2428" y="-331.7802" font-family="Times,serif" font-size="14.00" fill="#000000">Observe</text>
</g>
<!-- act&#45;&gt;obs -->
<g id="edge6" class="edge">
<title>act&#45;&gt;obs</title>
<path fill="none" stroke="#000000" d="M341.3827,-389.3116C335.9422,-380.9772 329.3881,-370.9369 323.4214,-361.7964"/>
<polygon fill="#000000" stroke="#000000" points="326.3334,-359.8543 317.9363,-353.3936 320.4717,-363.6806 326.3334,-359.8543"/>
</g>
<!-- obs&#45;&gt;obs -->
<g id="edge19" class="edge">
<title>obs&#45;&gt;obs</title>
<path fill="none" stroke="#cc0000" d="M350.9053,-348.9455C364.0687,-348.5122 374.2884,-344.0237 374.2884,-335.4802 374.2884,-324.863 358.5056,-320.5083 340.9041,-322.4161"/>
<polygon fill="#cc0000" stroke="#cc0000" points="351.0364,-345.448 340.9041,-348.5443 350.7558,-352.4424 351.0364,-345.448"/>
</g>
<!-- state -->
<g id="node11" class="node">
<title>state</title>
<ellipse fill="#eeeeee" stroke="#000000" cx="306.2428" cy="-254.6102" rx="88.2768" ry="26.7407"/>
<text text-anchor="middle" x="306.2428" y="-258.4102" font-family="Times,serif" font-size="14.00" fill="#000000">Action updates</text>
<text text-anchor="middle" x="306.2428" y="-243.4102" font-family="Times,serif" font-size="14.00" fill="#000000">expected state</text>
</g>
<!-- obs&#45;&gt;state -->
<g id="edge7" class="edge">
<title>obs&#45;&gt;state</title>
<path fill="none" stroke="#000000" d="M300.5228,-317.5325C299.7319,-309.824 299.3965,-300.5168 299.5165,-291.4522"/>
<polygon fill="#000000" stroke="#000000" points="303.0158,-291.5288 299.8456,-281.4194 296.0196,-291.2992 303.0158,-291.5288"/>
</g>
<!-- obsP -->
<g id="node6" class="node">
<title>obsP</title>
<ellipse fill="#ffeecc" stroke="#000000" cx="238.2428" cy="-569.2203" rx="62.2891" ry="18"/>
<text text-anchor="middle" x="238.2428" y="-565.5203" font-family="Times,serif" font-size="14.00" fill="#000000">Re&#45;observe</text>
</g>
<!-- pre -->
<g id="node10" class="node">
<title>pre</title>
<ellipse fill="#eeeeee" stroke="#000000" cx="235.2428" cy="-488.3503" rx="84.2917" ry="26.7407"/>
<text text-anchor="middle" x="235.2428" y="-492.1503" font-family="Times,serif" font-size="14.00" fill="#000000">Test action&#39;s</text>
<text text-anchor="middle" x="235.2428" y="-477.1503" font-family="Times,serif" font-size="14.00" fill="#000000">pre&#45;conditions</text>
</g>
<!-- obsP&#45;&gt;pre -->
<g id="edge12" class="edge">
<title>obsP&#45;&gt;pre</title>
<path fill="none" stroke="#000000" d="M231.857,-551.2727C230.801,-543.7139 230.126,-534.618 229.8964,-525.721"/>
<polygon fill="#000000" stroke="#000000" points="233.3949,-525.4511 229.8352,-515.4722 226.395,-525.4929 233.3949,-525.4511"/>
</g>
<!-- obsP&#45;&gt;pre -->
<g id="edge17" class="edge">
<title>obsP&#45;&gt;pre</title>
<path fill="none" stroke="#cc0000" d="M243.6628,-541.1484C243.7554,-532.7217 243.3919,-523.5024 242.6345,-515.1595"/>
<polygon fill="#cc0000" stroke="#cc0000" points="240.1604,-541.1528 243.297,-551.2727 247.1559,-541.4056 240.1604,-541.1528"/>
</g>
<!-- obsA -->
<g id="node7" class="node">
<title>obsA</title>
<ellipse fill="#ffeecc" stroke="#000000" cx="400.2428" cy="-488.3503" rx="62.2891" ry="18"/>
<text text-anchor="middle" x="400.2428" y="-484.6503" font-family="Times,serif" font-size="14.00" fill="#000000">Re&#45;observe</text>
</g>
<!-- obsA&#45;&gt;act -->
<g id="edge13" class="edge">
<title>obsA&#45;&gt;act</title>
<path fill="none" stroke="#000000" d="M384.3661,-470.8027C377.1178,-460.246 368.9328,-446.5858 362.6207,-434.6569"/>
<polygon fill="#000000" stroke="#000000" points="365.6521,-432.8956 358.0138,-425.5535 359.4064,-436.0565 365.6521,-432.8956"/>
</g>
<!-- obsA&#45;&gt;act -->
<g id="edge18" class="edge">
<title>obsA&#45;&gt;act</title>
<path fill="none" stroke="#cc0000" d="M390.7574,-460.9707C384.4949,-449.1558 376.4167,-435.6749 369.2393,-425.2025"/>
<polygon fill="#cc0000" stroke="#cc0000" points="387.6925,-462.6656 395.3386,-469.9996 393.9349,-459.4982 387.6925,-462.6656"/>
</g>
<!-- inv1&#45;&gt;obs1 -->
<g id="edge16" class="edge">
<title>inv1&#45;&gt;obs1</title>
<path fill="none" stroke="#cc0000" d="M87.2188,-659.6336C87.9499,-667.2796 88.1631,-676.3287 87.8583,-684.7929"/>
<polygon fill="#cc0000" stroke="#cc0000" points="84.3476,-684.8467 87.1952,-695.0517 91.333,-685.2983 84.3476,-684.8467"/>
</g>
<!-- more -->
<g id="node9" class="node">
<title>more</title>
<ellipse fill="#ffffff" stroke="#000000" cx="81.2428" cy="-569.2203" rx="76.8869" ry="18"/>
<text text-anchor="middle" x="81.2428" y="-565.5203" font-family="Times,serif" font-size="14.00" fill="#000000">More actions?</text>
</g>
<!-- inv1&#45;&gt;more -->
<g id="edge3" class="edge">
<title>inv1&#45;&gt;more</title>
<path fill="none" stroke="#000000" d="M81.2428,-623.0517C81.2428,-615.3513 81.2428,-606.1947 81.2428,-597.637"/>
<polygon fill="#000000" stroke="#000000" points="84.7429,-597.6336 81.2428,-587.6336 77.7429,-597.6336 84.7429,-597.6336"/>
</g>
<!-- more&#45;&gt;end -->
<g id="edge11" class="edge">
<title>more&#45;&gt;end</title>
<path fill="none" stroke="#000000" d="M81.2428,-550.7857C81.2428,-520.7609 81.2428,-459.428 81.2428,-407.4802 81.2428,-407.4802 81.2428,-407.4802 81.2428,-164.8701 81.2428,-120.1238 82.997,-107.2894 100.2428,-66 104.9475,-54.7362 112.3748,-43.42 119.1794,-34.3188"/>
<polygon fill="#000000" stroke="#000000" points="122.0089,-36.382 125.4032,-26.3456 116.491,-32.0747 122.0089,-36.382"/>
</g>
<!-- more&#45;&gt;pre -->
<g id="edge4" class="edge">
<title>more&#45;&gt;pre</title>
<path fill="none" stroke="#000000" d="M112.7786,-552.6599C132.8214,-542.1349 159.2671,-528.2474 182.4525,-516.072"/>
<polygon fill="#000000" stroke="#000000" points="184.2645,-519.0738 191.4907,-511.3258 181.01,-512.8764 184.2645,-519.0738"/>
</g>
<!-- pre&#45;&gt;act -->
<g id="edge5" class="edge">
<title>pre&#45;&gt;act</title>
<path fill="none" stroke="#000000" d="M270.9669,-463.8671C286.3904,-453.2968 304.3413,-440.9944 319.5329,-430.5829"/>
<polygon fill="#000000" stroke="#000000" points="321.8486,-433.239 328.1187,-424.6987 317.8914,-427.4649 321.8486,-433.239"/>
</g>
<!-- state&#45;&gt;obs -->
<g id="edge20" class="edge">
<title>state&#45;&gt;obs</title>
<path fill="none" stroke="#cc0000" d="M312.6399,-281.4194C313.0879,-289.7623 313.1093,-298.9816 312.7042,-307.4083"/>
<polygon fill="#cc0000" stroke="#cc0000" points="309.2026,-307.3036 311.9628,-317.5325 316.1839,-307.8149 309.2026,-307.3036"/>
</g>
<!-- post -->
<g id="node12" class="node">
<title>post</title>
<ellipse fill="#eeeeee" stroke="#000000" cx="307.2428" cy="-164.8701" rx="89.191" ry="26.7407"/>
<text text-anchor="middle" x="307.2428" y="-168.6701" font-family="Times,serif" font-size="14.00" fill="#000000">Test action&#39;s</text>
<text text-anchor="middle" x="307.2428" y="-153.6701" font-family="Times,serif" font-size="14.00" fill="#000000">post&#45;conditions</text>
</g>
<!-- state&#45;&gt;post -->
<g id="edge8" class="edge">
<title>state&#45;&gt;post</title>
<path fill="none" stroke="#000000" d="M306.5428,-227.6852C306.6328,-219.6102 306.7331,-210.607 306.8291,-201.9961"/>
<polygon fill="#000000" stroke="#000000" points="310.3312,-201.8145 306.943,-191.776 303.3317,-201.7364 310.3312,-201.8145"/>
</g>
<!-- post&#45;&gt;obs -->
<g id="edge21" class="edge">
<title>post&#45;&gt;obs</title>
<path fill="none" stroke="#cc0000" d="M359.6832,-186.6356C376.7145,-196.5181 393.6755,-210.0382 403.2428,-227.7401 414.5991,-248.7521 415.3463,-260.8896 403.2428,-281.4802 392.6314,-299.5325 373.5562,-311.9882 355.1124,-320.3462"/>
<polygon fill="#cc0000" stroke="#cc0000" points="353.7217,-317.1341 345.8621,-324.2388 356.4368,-323.5861 353.7217,-317.1341"/>
</g>
<!-- inv -->
<g id="node13" class="node">
<title>inv</title>
<ellipse fill="#eeeeee" stroke="#000000" cx="190.2428" cy="-84" rx="81.4863" ry="18"/>
<text text-anchor="middle" x="190.2428" y="-80.3" font-family="Times,serif" font-size="14.00" fill="#000000">Test invariants</text>
</g>
<!-- post&#45;&gt;inv -->
<g id="edge9" class="edge">
<title>post&#45;&gt;inv</title>
<path fill="none" stroke="#000000" d="M271.5032,-140.167C256.3354,-129.683 238.7492,-117.5275 223.8243,-107.2114"/>
<polygon fill="#000000" stroke="#000000" points="225.5989,-104.1834 215.3826,-101.3766 221.6188,-109.9417 225.5989,-104.1834"/>
</g>
<!-- inv&#45;&gt;end -->
<!-- inv&#45;&gt;obs -->
<g id="edge22" class="edge">
<title>inv&#45;&gt;obs</title>
<path fill="none" stroke="#cc0000" d="M186.7937,-102.1493C180.78,-139.2405 172.2821,-224.9886 209.2428,-281.4802 220.6551,-298.9231 239.7364,-311.2656 257.9704,-319.704"/>
<polygon fill="#cc0000" stroke="#cc0000" points="256.815,-323.0174 267.3833,-323.7673 259.5893,-316.5906 256.815,-323.0174"/>
</g>
<!-- inv&#45;&gt;more -->
<g id="edge10" class="edge">
<title>inv&#45;&gt;more</title>
<path fill="none" stroke="#000000" d="M177.5871,-101.9626C157.6674,-132.0466 121.2428,-195.1822 121.2428,-254.6102 121.2428,-407.4802 121.2428,-407.4802 121.2428,-407.4802 121.2428,-455.7672 104.2342,-509.854 92.3991,-541.6443"/>
<polygon fill="#000000" stroke="#000000" points="89.0681,-540.5563 88.7665,-551.1468 95.6066,-543.0559 89.0681,-540.5563"/>
</g>
</g>
</svg>
