<?xml version="1.0" encoding="UTF-8" standalone="no"?>
<!DOCTYPE svg PUBLIC "-//W3C//DTD SVG 1.1//EN"
 "http://www.w3.org/Graphics/SVG/1.1/DTD/svg11.dtd">
<!-- Generated by graphviz version 2.40.1 (20161225.0304)
 -->
<!-- Title: G Pages: 1 -->
<svg width="551pt" height="512pt"
 viewBox="0.00 0.00 551.39 511.74" xmlns="http://www.w3.org/2000/svg" xmlns:xlink="http://www.w3.org/1999/xlink">
<g id="graph0" class="graph" transform="scale(1 1) rotate(0) translate(4 507.7401)">
<title>G</title>
<polygon fill="#ffffff" stroke="transparent" points="-4,4 -4,-507.7401 547.3875,-507.7401 547.3875,4 -4,4"/>
<!-- a -->
<g id="node1" class="node">
<title>a</title>
<ellipse fill="#eebbcc" stroke="#000000" cx="170.9452" cy="-485.7401" rx="46.2923" ry="18"/>
<text text-anchor="middle" x="170.9452" y="-482.0401" font-family="Times,serif" font-size="14.00" fill="#000000">Actions</text>
</g>
<!-- plan -->
<g id="node8" class="node">
<title>plan</title>
<ellipse fill="#add8e6" stroke="#000000" cx="293.9452" cy="-389.8701" rx="31.3957" ry="18"/>
<text text-anchor="middle" x="293.9452" y="-386.1701" font-family="Times,serif" font-size="14.00" fill="#000000">Plan</text>
</g>
<!-- a&#45;&gt;plan -->
<g id="edge3" class="edge">
<title>a&#45;&gt;plan</title>
<path fill="none" stroke="#333333" d="M191.8105,-469.4771C212.4742,-453.3711 244.2158,-428.6307 266.8245,-411.0088"/>
<polygon fill="#333333" stroke="#333333" points="269.2647,-413.5445 275.0002,-404.6364 264.9614,-408.0234 269.2647,-413.5445"/>
</g>
<!-- i -->
<g id="node2" class="node">
<title>i</title>
<ellipse fill="#eebbcc" stroke="#000000" cx="293.9452" cy="-485.7401" rx="58.4896" ry="18"/>
<text text-anchor="middle" x="293.9452" y="-482.0401" font-family="Times,serif" font-size="14.00" fill="#000000">Invariants</text>
</g>
<!-- i&#45;&gt;plan -->
<g id="edge4" class="edge">
<title>i&#45;&gt;plan</title>
<path fill="none" stroke="#333333" d="M293.9452,-467.7077C293.9452,-453.8695 293.9452,-434.4956 293.9452,-418.5387"/>
<polygon fill="#333333" stroke="#333333" points="297.4453,-418.1475 293.9452,-408.1476 290.4453,-418.1476 297.4453,-418.1475"/>
</g>
<!-- is -->
<g id="node3" class="node">
<title>is</title>
<ellipse fill="#eebbcc" stroke="#000000" cx="446.9452" cy="-389.8701" rx="41.9398" ry="26.7407"/>
<text text-anchor="middle" x="446.9452" y="-393.6701" font-family="Times,serif" font-size="14.00" fill="#000000">Initial</text>
<text text-anchor="middle" x="446.9452" y="-378.6701" font-family="Times,serif" font-size="14.00" fill="#000000">State</text>
</g>
<!-- planS -->
<g id="node9" class="node">
<title>planS</title>
<ellipse fill="#add8e6" stroke="#000000" cx="330.9452" cy="-294" rx="106.6812" ry="18"/>
<text text-anchor="middle" x="330.9452" y="-290.3" font-family="Times,serif" font-size="14.00" fill="#000000">PlanWithInitialState</text>
</g>
<!-- is&#45;&gt;planS -->
<g id="edge5" class="edge">
<title>is&#45;&gt;planS</title>
<path fill="none" stroke="#333333" d="M446.2125,-362.8033C444.6003,-351.4766 440.9234,-338.904 432.9452,-330 426.3191,-322.6049 418.0789,-316.7289 409.1739,-312.0599"/>
<polygon fill="#333333" stroke="#333333" points="410.621,-308.8728 400.0825,-307.7817 407.6405,-315.2065 410.621,-308.8728"/>
</g>
<!-- o -->
<g id="node4" class="node">
<title>o</title>
<ellipse fill="#eebbcc" stroke="#000000" cx="53.9452" cy="-389.8701" rx="53.8905" ry="18"/>
<text text-anchor="middle" x="53.9452" y="-386.1701" font-family="Times,serif" font-size="14.00" fill="#000000">Observer</text>
</g>
<!-- test -->
<g id="node10" class="node">
<title>test</title>
<ellipse fill="#add8e6" stroke="#000000" cx="174.9452" cy="-294" rx="31.3957" ry="18"/>
<text text-anchor="middle" x="174.9452" y="-290.3" font-family="Times,serif" font-size="14.00" fill="#000000">Test</text>
</g>
<!-- o&#45;&gt;test -->
<g id="edge6" class="edge">
<title>o&#45;&gt;test</title>
<path fill="none" stroke="#333333" d="M75.0218,-373.1708C95.4352,-356.997 126.4546,-332.4198 148.5117,-314.9437"/>
<polygon fill="#333333" stroke="#333333" points="150.8212,-317.5793 156.4856,-308.6258 146.4741,-312.0927 150.8212,-317.5793"/>
</g>
<!-- ref -->
<g id="node5" class="node">
<title>ref</title>
<ellipse fill="#eebbcc" stroke="#000000" cx="381.9452" cy="-105" rx="37.0935" ry="18"/>
<text text-anchor="middle" x="381.9452" y="-101.3" font-family="Times,serif" font-size="14.00" fill="#000000">⇒ Ref</text>
</g>
<!-- run -->
<g id="node13" class="node">
<title>run</title>
<ellipse fill="#aaffaa" stroke="#000000" cx="316.9452" cy="-18" rx="42.4939" ry="18"/>
<text text-anchor="middle" x="316.9452" y="-14.3" font-family="Times,serif" font-size="14.00" fill="#000000">Report</text>
</g>
<!-- ref&#45;&gt;run -->
<g id="edge11" class="edge">
<title>ref&#45;&gt;run</title>
<path fill="none" stroke="#333333" d="M369.1033,-87.8116C359.6665,-75.1808 346.6877,-57.8092 336.038,-43.5549"/>
<polygon fill="#333333" stroke="#333333" points="338.5496,-41.0689 329.7604,-35.1527 332.9419,-45.2586 338.5496,-41.0689"/>
</g>
<!-- r -->
<g id="node6" class="node">
<title>r</title>
<ellipse fill="#dddddd" stroke="#000000" cx="174.9452" cy="-389.8701" rx="48.9926" ry="18"/>
<text text-anchor="middle" x="174.9452" y="-386.1701" font-family="Times,serif" font-size="14.00" fill="#000000">Recover</text>
</g>
<!-- r&#45;&gt;test -->
<g id="edge1" class="edge">
<title>r&#45;&gt;test</title>
<path fill="none" stroke="#888888" stroke-dasharray="5,2" d="M174.9452,-371.8376C174.9452,-357.9995 174.9452,-338.6256 174.9452,-322.6687"/>
<polygon fill="#888888" stroke="#888888" points="178.4453,-322.2775 174.9452,-312.2775 171.4453,-322.2776 178.4453,-322.2775"/>
<text text-anchor="middle" x="204.9452" y="-333.8" font-family="Times,serif" font-size="14.00" fill="#666666"> implicit</text>
</g>
<!-- em -->
<g id="node7" class="node">
<title>em</title>
<ellipse fill="#dddddd" stroke="#000000" cx="456.9452" cy="-485.7401" rx="86.3847" ry="18"/>
<text text-anchor="middle" x="456.9452" y="-482.0401" font-family="Times,serif" font-size="14.00" fill="#000000">ExecutionModel</text>
</g>
<!-- em&#45;&gt;plan -->
<g id="edge2" class="edge">
<title>em&#45;&gt;plan</title>
<path fill="none" stroke="#888888" stroke-dasharray="5,2" d="M427.8041,-468.6005C398.7588,-451.5172 354.3275,-425.3845 324.7209,-407.9711"/>
<polygon fill="#888888" stroke="#888888" points="326.4361,-404.9194 316.042,-402.8665 322.8873,-410.9532 326.4361,-404.9194"/>
<text text-anchor="middle" x="424.9452" y="-438.5401" font-family="Times,serif" font-size="14.00" fill="#666666"> implicit</text>
</g>
<!-- plan&#45;&gt;planS -->
<g id="edge7" class="edge">
<title>plan&#45;&gt;planS</title>
<path fill="none" stroke="#333333" d="M299.7313,-372.1795C303.756,-360.1865 309.3788,-344.0264 314.9452,-330 316.0332,-327.2585 317.2087,-324.419 318.4113,-321.5924"/>
<polygon fill="#333333" stroke="#333333" points="321.7215,-322.7577 322.5168,-312.1927 315.3067,-319.9558 321.7215,-322.7577"/>
<text text-anchor="middle" x="373.9452" y="-333.8" font-family="Times,serif" font-size="14.00" fill="#000000">.withInitialState</text>
</g>
<!-- plan&#45;&gt;test -->
<g id="edge8" class="edge">
<title>plan&#45;&gt;test</title>
<path fill="none" stroke="#333333" d="M280.2155,-373.4496C269.0737,-360.7089 252.5429,-343.0744 235.9452,-330 227.1607,-323.0803 216.9199,-316.534 207.3659,-310.969"/>
<polygon fill="#333333" stroke="#333333" points="208.9147,-307.8242 198.4862,-305.9541 205.4723,-313.9193 208.9147,-307.8242"/>
<text text-anchor="middle" x="268.4452" y="-333.8" font-family="Times,serif" font-size="14.00" fill="#000000">.test</text>
</g>
<!-- testS -->
<g id="node11" class="node">
<title>testS</title>
<ellipse fill="#add8e6" stroke="#000000" cx="251.9452" cy="-207" rx="106.6812" ry="18"/>
<text text-anchor="middle" x="251.9452" y="-203.3" font-family="Times,serif" font-size="14.00" fill="#000000">TestWithInitialState</text>
</g>
<!-- planS&#45;&gt;testS -->
<g id="edge9" class="edge">
<title>planS&#45;&gt;testS</title>
<path fill="none" stroke="#333333" d="M324.2563,-275.6552C319.8601,-265.2903 313.3601,-252.5403 304.9452,-243 300.9386,-238.4575 296.2385,-234.2187 291.3212,-230.3598"/>
<polygon fill="#333333" stroke="#333333" points="293.0671,-227.3013 282.9248,-224.2379 288.9431,-232.9575 293.0671,-227.3013"/>
<text text-anchor="middle" x="331.4452" y="-246.8" font-family="Times,serif" font-size="14.00" fill="#000000">.test</text>
</g>
<!-- test&#45;&gt;testS -->
<g id="edge10" class="edge">
<title>test&#45;&gt;testS</title>
<path fill="none" stroke="#333333" d="M175.6172,-275.949C176.8245,-265.4317 179.8074,-252.4274 186.9452,-243 190.88,-237.8031 195.7939,-233.2551 201.1472,-229.3024"/>
<polygon fill="#333333" stroke="#333333" points="203.4182,-231.9976 209.8434,-223.5733 199.5672,-226.1521 203.4182,-231.9976"/>
<text text-anchor="middle" x="245.9452" y="-246.8" font-family="Times,serif" font-size="14.00" fill="#000000">.withInitialState</text>
</g>
<!-- testR -->
<g id="node12" class="node">
<title>testR</title>
<ellipse fill="#add8e6" stroke="#000000" cx="251.9452" cy="-105" rx="75.2868" ry="18"/>
<text text-anchor="middle" x="251.9452" y="-101.3" font-family="Times,serif" font-size="14.00" fill="#000000">RunnableTest</text>
</g>
<!-- testS&#45;&gt;testR -->
<g id="edge12" class="edge">
<title>testS&#45;&gt;testR</title>
<path fill="none" stroke="#333333" d="M251.9452,-188.7644C251.9452,-173.317 251.9452,-150.9149 251.9452,-133.164"/>
<polygon fill="#333333" stroke="#333333" points="255.4453,-133.0776 251.9452,-123.0777 248.4453,-133.0777 255.4453,-133.0776"/>
<text text-anchor="start" x="251.9452" y="-159.8" font-family="Times,serif" font-size="14.00" fill="#000000"> &#160;.withRef{,ByName,Const}</text>
<text text-anchor="start" x="251.9452" y="-144.8" font-family="Times,serif" font-size="14.00" fill="#000000"> &#160;.withoutRef</text>
</g>
<!-- testR&#45;&gt;run -->
<g id="edge13" class="edge">
<title>testR&#45;&gt;run</title>
<path fill="none" stroke="#333333" d="M265.4133,-86.9735C274.7747,-74.4437 287.3889,-57.56 297.7938,-43.6335"/>
<polygon fill="#333333" stroke="#333333" points="300.7565,-45.5156 303.938,-35.4097 295.1488,-41.3259 300.7565,-45.5156"/>
<text text-anchor="middle" x="308.9452" y="-57.8" font-family="Times,serif" font-size="14.00" fill="#000000">.run()</text>
</g>
</g>
</svg>
