<?xml version="1.0" encoding="UTF-8" standalone="no"?>
<!DOCTYPE svg PUBLIC "-//W3C//DTD SVG 1.1//EN"
 "http://www.w3.org/Graphics/SVG/1.1/DTD/svg11.dtd">
<!-- Generated by graphviz version 2.40.1 (20161225.0304)
 -->
<!-- Title: G Pages: 1 -->
<svg width="631pt" height="512pt"
 viewBox="0.00 0.00 630.99 511.74" xmlns="http://www.w3.org/2000/svg" xmlns:xlink="http://www.w3.org/1999/xlink">
<g id="graph0" class="graph" transform="scale(1 1) rotate(0) translate(4 507.7401)">
<title>G</title>
<polygon fill="#ffffff" stroke="transparent" points="-4,4 -4,-507.7401 626.9919,-507.7401 626.9919,4 -4,4"/>
<!-- a -->
<g id="node1" class="node">
<title>a</title>
<ellipse fill="#eebbcc" stroke="#000000" cx="178.9452" cy="-485.7401" rx="46.2923" ry="18"/>
<text text-anchor="middle" x="178.9452" y="-482.0401" font-family="Times,serif" font-size="14.00" fill="#000000">Actions</text>
</g>
<!-- plan -->
<g id="node8" class="node">
<title>plan</title>
<ellipse fill="#add8e6" stroke="#000000" cx="301.9452" cy="-389.8701" rx="31.3957" ry="18"/>
<text text-anchor="middle" x="301.9452" y="-386.1701" font-family="Times,serif" font-size="14.00" fill="#000000">Plan</text>
</g>
<!-- a&#45;&gt;plan -->
<g id="edge3" class="edge">
<title>a&#45;&gt;plan</title>
<path fill="none" stroke="#333333" d="M199.8105,-469.4771C220.4742,-453.3711 252.2158,-428.6307 274.8245,-411.0088"/>
<polygon fill="#333333" stroke="#333333" points="277.2647,-413.5445 283.0002,-404.6364 272.9614,-408.0234 277.2647,-413.5445"/>
</g>
<!-- i -->
<g id="node2" class="node">
<title>i</title>
<ellipse fill="#eebbcc" stroke="#000000" cx="301.9452" cy="-485.7401" rx="58.4896" ry="18"/>
<text text-anchor="middle" x="301.9452" y="-482.0401" font-family="Times,serif" font-size="14.00" fill="#000000">Invariants</text>
</g>
<!-- i&#45;&gt;plan -->
<g id="edge4" class="edge">
<title>i&#45;&gt;plan</title>
<path fill="none" stroke="#333333" d="M301.9452,-467.7077C301.9452,-453.8695 301.9452,-434.4956 301.9452,-418.5387"/>
<polygon fill="#333333" stroke="#333333" points="305.4453,-418.1475 301.9452,-408.1476 298.4453,-418.1476 305.4453,-418.1475"/>
</g>
<!-- is -->
<g id="node3" class="node">
<title>is</title>
<ellipse fill="#eebbcc" stroke="#000000" cx="465.9452" cy="-389.8701" rx="41.9398" ry="26.7407"/>
<text text-anchor="middle" x="465.9452" y="-393.6701" font-family="Times,serif" font-size="14.00" fill="#000000">Initial</text>
<text text-anchor="middle" x="465.9452" y="-378.6701" font-family="Times,serif" font-size="14.00" fill="#000000">State</text>
</g>
<!-- planS -->
<g id="node9" class="node">
<title>planS</title>
<ellipse fill="#add8e6" stroke="#000000" cx="465.9452" cy="-294" rx="106.6812" ry="18"/>
<text text-anchor="middle" x="465.9452" y="-290.3" font-family="Times,serif" font-size="14.00" fill="#000000">PlanWithInitialState</text>
</g>
<!-- is&#45;&gt;planS -->
<g id="edge5" class="edge">
<title>is&#45;&gt;planS</title>
<path fill="none" stroke="#333333" d="M465.9452,-362.9098C465.9452,-350.2756 465.9452,-335.2199 465.9452,-322.4086"/>
<polygon fill="#333333" stroke="#333333" points="469.4453,-322.2775 465.9452,-312.2775 462.4453,-322.2776 469.4453,-322.2775"/>
</g>
<!-- o -->
<g id="node4" class="node">
<title>o</title>
<ellipse fill="#eebbcc" stroke="#000000" cx="53.9452" cy="-389.8701" rx="53.8905" ry="18"/>
<text text-anchor="middle" x="53.9452" y="-386.1701" font-family="Times,serif" font-size="14.00" fill="#000000">Observer</text>
</g>
<!-- test -->
<g id="node10" class="node">
<title>test</title>
<ellipse fill="#add8e6" stroke="#000000" cx="171.9452" cy="-294" rx="31.3957" ry="18"/>
<text text-anchor="middle" x="171.9452" y="-290.3" font-family="Times,serif" font-size="14.00" fill="#000000">Test</text>
</g>
<!-- o&#45;&gt;test -->
<g id="edge6" class="edge">
<title>o&#45;&gt;test</title>
<path fill="none" stroke="#333333" d="M74.4992,-373.1708C94.2894,-357.0921 124.3013,-332.7087 145.7865,-315.2528"/>
<polygon fill="#333333" stroke="#333333" points="148.0101,-317.9559 153.5644,-308.9336 143.5961,-312.5229 148.0101,-317.9559"/>
</g>
<!-- ref -->
<g id="node5" class="node">
<title>ref</title>
<ellipse fill="#eebbcc" stroke="#000000" cx="585.9452" cy="-105" rx="37.0935" ry="18"/>
<text text-anchor="middle" x="585.9452" y="-101.3" font-family="Times,serif" font-size="14.00" fill="#000000">⇒ Ref</text>
</g>
<!-- run -->
<g id="node13" class="node">
<title>run</title>
<ellipse fill="#aaffaa" stroke="#000000" cx="451.9452" cy="-18" rx="42.4939" ry="18"/>
<text text-anchor="middle" x="451.9452" y="-14.3" font-family="Times,serif" font-size="14.00" fill="#000000">Report</text>
</g>
<!-- ref&#45;&gt;run -->
<g id="edge11" class="edge">
<title>ref&#45;&gt;run</title>
<path fill="none" stroke="#333333" d="M563.5166,-90.4382C541.7519,-76.3073 508.5028,-54.7202 483.9595,-38.7854"/>
<polygon fill="#333333" stroke="#333333" points="485.6417,-35.7046 475.3485,-33.1947 481.8299,-41.5757 485.6417,-35.7046"/>
</g>
<!-- r -->
<g id="node6" class="node">
<title>r</title>
<ellipse fill="#dddddd" stroke="#000000" cx="174.9452" cy="-389.8701" rx="49.2915" ry="18"/>
<text text-anchor="middle" x="174.9452" y="-386.1701" font-family="Times,serif" font-size="14.00" fill="#000000">Attempt</text>
</g>
<!-- r&#45;&gt;test -->
<g id="edge1" class="edge">
<title>r&#45;&gt;test</title>
<path fill="none" stroke="#888888" stroke-dasharray="5,2" d="M174.3809,-371.8376C173.9479,-357.9995 173.3417,-338.6256 172.8423,-322.6687"/>
<polygon fill="#888888" stroke="#888888" points="176.3283,-322.1631 172.5172,-312.2775 169.3317,-322.3821 176.3283,-322.1631"/>
<text text-anchor="middle" x="203.9452" y="-333.8" font-family="Times,serif" font-size="14.00" fill="#666666"> implicit</text>
</g>
<!-- em -->
<g id="node7" class="node">
<title>em</title>
<ellipse fill="#dddddd" stroke="#000000" cx="464.9452" cy="-485.7401" rx="86.3847" ry="18"/>
<text text-anchor="middle" x="464.9452" y="-482.0401" font-family="Times,serif" font-size="14.00" fill="#000000">ExecutionModel</text>
</g>
<!-- em&#45;&gt;plan -->
<g id="edge2" class="edge">
<title>em&#45;&gt;plan</title>
<path fill="none" stroke="#888888" stroke-dasharray="5,2" d="M435.8041,-468.6005C406.7588,-451.5172 362.3275,-425.3845 332.7209,-407.9711"/>
<polygon fill="#888888" stroke="#888888" points="334.4361,-404.9194 324.042,-402.8665 330.8873,-410.9532 334.4361,-404.9194"/>
<text text-anchor="middle" x="432.9452" y="-438.5401" font-family="Times,serif" font-size="14.00" fill="#666666"> implicit</text>
</g>
<!-- plan&#45;&gt;planS -->
<g id="edge7" class="edge">
<title>plan&#45;&gt;planS</title>
<path fill="none" stroke="#333333" d="M310.0599,-372.474C317.1889,-359.0143 328.7874,-340.89 343.9452,-330 355.5299,-321.6771 369.0357,-315.2623 382.7555,-310.3226"/>
<polygon fill="#333333" stroke="#333333" points="383.8987,-313.6309 392.2671,-307.1331 381.6731,-306.994 383.8987,-313.6309"/>
<text text-anchor="middle" x="402.9452" y="-333.8" font-family="Times,serif" font-size="14.00" fill="#000000">.withInitialState</text>
</g>
<!-- plan&#45;&gt;test -->
<g id="edge8" class="edge">
<title>plan&#45;&gt;test</title>
<path fill="none" stroke="#333333" d="M287.1296,-373.9356C274.736,-361.1378 256.1972,-343.1882 237.9452,-330 227.8808,-322.7278 216.1822,-315.8891 205.4538,-310.1659"/>
<polygon fill="#333333" stroke="#333333" points="206.8297,-306.9368 196.3411,-305.4407 203.6074,-313.1511 206.8297,-306.9368"/>
<text text-anchor="middle" x="273.4452" y="-333.8" font-family="Times,serif" font-size="14.00" fill="#000000">.test</text>
</g>
<!-- testS -->
<g id="node11" class="node">
<title>testS</title>
<ellipse fill="#add8e6" stroke="#000000" cx="317.9452" cy="-207" rx="106.6812" ry="18"/>
<text text-anchor="middle" x="317.9452" y="-203.3" font-family="Times,serif" font-size="14.00" fill="#000000">TestWithInitialState</text>
</g>
<!-- planS&#45;&gt;testS -->
<g id="edge9" class="edge">
<title>planS&#45;&gt;testS</title>
<path fill="none" stroke="#333333" d="M436.3509,-276.6033C413.3613,-263.0892 381.298,-244.2412 356.3342,-229.5665"/>
<polygon fill="#333333" stroke="#333333" points="357.8828,-226.4169 347.4882,-224.3665 354.3354,-232.4515 357.8828,-226.4169"/>
<text text-anchor="middle" x="417.4452" y="-246.8" font-family="Times,serif" font-size="14.00" fill="#000000">.test</text>
</g>
<!-- test&#45;&gt;test -->
<g id="edge14" class="edge">
<title>test&#45;&gt;test</title>
<path fill="none" stroke="#333333" d="M200.2567,-301.8269C211.6117,-302.2691 221.1424,-299.6602 221.1424,-294 221.1424,-290.1971 216.8401,-287.7715 210.5728,-286.7233"/>
<polygon fill="#333333" stroke="#333333" points="210.4289,-283.2107 200.2567,-286.1731 210.056,-290.2008 210.4289,-283.2107"/>
<text text-anchor="middle" x="281.1424" y="-290.3" font-family="Times,serif" font-size="14.00" fill="#000000">.withRetryPolicy</text>
</g>
<!-- test&#45;&gt;testS -->
<g id="edge10" class="edge">
<title>test&#45;&gt;testS</title>
<path fill="none" stroke="#333333" d="M193.8029,-280.9752C216.5303,-267.4322 252.5487,-245.9692 279.9481,-229.6421"/>
<polygon fill="#333333" stroke="#333333" points="282.0791,-232.4466 288.878,-224.3209 278.4958,-226.4333 282.0791,-232.4466"/>
<text text-anchor="middle" x="312.9452" y="-246.8" font-family="Times,serif" font-size="14.00" fill="#000000">.withInitialState</text>
</g>
<!-- testS&#45;&gt;testS -->
<g id="edge15" class="edge">
<title>testS&#45;&gt;testS</title>
<path fill="none" stroke="#333333" d="M415.6238,-214.2862C431.574,-213.2432 442.5358,-210.8145 442.5358,-207 442.5358,-204.0498 435.9784,-201.9285 425.6273,-200.6361"/>
<polygon fill="#333333" stroke="#333333" points="425.9029,-197.1468 415.6238,-199.7138 425.2602,-204.1172 425.9029,-197.1468"/>
<text text-anchor="middle" x="502.5358" y="-203.3" font-family="Times,serif" font-size="14.00" fill="#000000">.withRetryPolicy</text>
</g>
<!-- testR -->
<g id="node12" class="node">
<title>testR</title>
<ellipse fill="#add8e6" stroke="#000000" cx="317.9452" cy="-105" rx="75.2868" ry="18"/>
<text text-anchor="middle" x="317.9452" y="-101.3" font-family="Times,serif" font-size="14.00" fill="#000000">RunnableTest</text>
</g>
<!-- testS&#45;&gt;testR -->
<g id="edge12" class="edge">
<title>testS&#45;&gt;testR</title>
<path fill="none" stroke="#333333" d="M317.9452,-188.7644C317.9452,-173.317 317.9452,-150.9149 317.9452,-133.164"/>
<polygon fill="#333333" stroke="#333333" points="321.4453,-133.0776 317.9452,-123.0777 314.4453,-133.0777 321.4453,-133.0776"/>
<text text-anchor="start" x="317.9452" y="-159.8" font-family="Times,serif" font-size="14.00" fill="#000000"> &#160;.withRef{,ByName,Const}</text>
<text text-anchor="start" x="317.9452" y="-144.8" font-family="Times,serif" font-size="14.00" fill="#000000"> &#160;.withoutRef</text>
</g>
<!-- testR&#45;&gt;testR -->
<g id="edge16" class="edge">
<title>testR&#45;&gt;testR</title>
<path fill="none" stroke="#333333" d="M386.3599,-112.6207C400.8643,-111.8469 411.3385,-109.3066 411.3385,-105 411.3385,-101.77 405.4468,-99.5336 396.3818,-98.2909"/>
<polygon fill="#333333" stroke="#333333" points="396.6358,-94.7996 386.3599,-97.3793 396.0017,-101.7708 396.6358,-94.7996"/>
<text text-anchor="middle" x="471.3385" y="-101.3" font-family="Times,serif" font-size="14.00" fill="#000000">.withRetryPolicy</text>
</g>
<!-- testR&#45;&gt;run -->
<g id="edge13" class="edge">
<title>testR&#45;&gt;run</title>
<path fill="none" stroke="#333333" d="M344.0999,-88.019C365.8467,-73.8998 396.8774,-53.753 420.0743,-38.6923"/>
<polygon fill="#333333" stroke="#333333" points="422.0642,-41.5734 428.5455,-33.1923 418.2523,-35.7023 422.0642,-41.5734"/>
<text text-anchor="middle" x="413.9452" y="-57.8" font-family="Times,serif" font-size="14.00" fill="#000000">.run()</text>
</g>
</g>
</svg>
