<?xml version="1.0" encoding="UTF-8" standalone="no"?>
<!DOCTYPE svg PUBLIC "-//W3C//DTD SVG 1.1//EN"
 "http://www.w3.org/Graphics/SVG/1.1/DTD/svg11.dtd">
<!-- Generated by graphviz version 2.40.1 (20161225.0304)
 -->
<!-- Title: G Pages: 1 -->
<svg width="684pt" height="542pt"
 viewBox="0.00 0.00 684.34 541.74" xmlns="http://www.w3.org/2000/svg" xmlns:xlink="http://www.w3.org/1999/xlink">
<g id="graph0" class="graph" transform="scale(1 1) rotate(0) translate(4 537.7401)">
<title>G</title>
<polygon fill="#ffffff" stroke="transparent" points="-4,4 -4,-537.7401 680.3385,-537.7401 680.3385,4 -4,4"/>
<!-- a -->
<g id="node1" class="node">
<title>a</title>
<ellipse fill="#eebbcc" stroke="#000000" cx="178.9452" cy="-515.7401" rx="46.2923" ry="18"/>
<text text-anchor="middle" x="178.9452" y="-512.0401" font-family="Times,serif" font-size="14.00" fill="#000000">Actions</text>
</g>
<!-- plan -->
<g id="node8" class="node">
<title>plan</title>
<ellipse fill="#add8e6" stroke="#000000" cx="301.9452" cy="-419.8701" rx="31.3957" ry="18"/>
<text text-anchor="middle" x="301.9452" y="-416.1701" font-family="Times,serif" font-size="14.00" fill="#000000">Plan</text>
</g>
<!-- a&#45;&gt;plan -->
<g id="edge3" class="edge">
<title>a&#45;&gt;plan</title>
<path fill="none" stroke="#333333" d="M199.8105,-499.4771C220.4742,-483.3711 252.2158,-458.6307 274.8245,-441.0088"/>
<polygon fill="#333333" stroke="#333333" points="277.2647,-443.5445 283.0002,-434.6364 272.9614,-438.0234 277.2647,-443.5445"/>
</g>
<!-- i -->
<g id="node2" class="node">
<title>i</title>
<ellipse fill="#eebbcc" stroke="#000000" cx="301.9452" cy="-515.7401" rx="58.4896" ry="18"/>
<text text-anchor="middle" x="301.9452" y="-512.0401" font-family="Times,serif" font-size="14.00" fill="#000000">Invariants</text>
</g>
<!-- i&#45;&gt;plan -->
<g id="edge4" class="edge">
<title>i&#45;&gt;plan</title>
<path fill="none" stroke="#333333" d="M301.9452,-497.7077C301.9452,-483.8695 301.9452,-464.4956 301.9452,-448.5387"/>
<polygon fill="#333333" stroke="#333333" points="305.4453,-448.1475 301.9452,-438.1476 298.4453,-448.1476 305.4453,-448.1475"/>
</g>
<!-- is -->
<g id="node3" class="node">
<title>is</title>
<ellipse fill="#eebbcc" stroke="#000000" cx="465.9452" cy="-419.8701" rx="41.9398" ry="26.7407"/>
<text text-anchor="middle" x="465.9452" y="-423.6701" font-family="Times,serif" font-size="14.00" fill="#000000">Initial</text>
<text text-anchor="middle" x="465.9452" y="-408.6701" font-family="Times,serif" font-size="14.00" fill="#000000">State</text>
</g>
<!-- planS -->
<g id="node9" class="node">
<title>planS</title>
<ellipse fill="#add8e6" stroke="#000000" cx="465.9452" cy="-324" rx="106.6812" ry="18"/>
<text text-anchor="middle" x="465.9452" y="-320.3" font-family="Times,serif" font-size="14.00" fill="#000000">PlanWithInitialState</text>
</g>
<!-- is&#45;&gt;planS -->
<g id="edge5" class="edge">
<title>is&#45;&gt;planS</title>
<path fill="none" stroke="#333333" d="M465.9452,-392.9098C465.9452,-380.2756 465.9452,-365.2199 465.9452,-352.4086"/>
<polygon fill="#333333" stroke="#333333" points="469.4453,-352.2775 465.9452,-342.2775 462.4453,-352.2776 469.4453,-352.2775"/>
</g>
<!-- o -->
<g id="node4" class="node">
<title>o</title>
<ellipse fill="#eebbcc" stroke="#000000" cx="53.9452" cy="-419.8701" rx="53.8905" ry="18"/>
<text text-anchor="middle" x="53.9452" y="-416.1701" font-family="Times,serif" font-size="14.00" fill="#000000">Observer</text>
</g>
<!-- test -->
<g id="node10" class="node">
<title>test</title>
<ellipse fill="#add8e6" stroke="#000000" cx="171.9452" cy="-324" rx="31.3957" ry="18"/>
<text text-anchor="middle" x="171.9452" y="-320.3" font-family="Times,serif" font-size="14.00" fill="#000000">Test</text>
</g>
<!-- o&#45;&gt;test -->
<g id="edge6" class="edge">
<title>o&#45;&gt;test</title>
<path fill="none" stroke="#333333" d="M74.4992,-403.1708C94.2894,-387.0921 124.3013,-362.7087 145.7865,-345.2528"/>
<polygon fill="#333333" stroke="#333333" points="148.0101,-347.9559 153.5644,-338.9336 143.5961,-342.5229 148.0101,-347.9559"/>
</g>
<!-- ref -->
<g id="node5" class="node">
<title>ref</title>
<ellipse fill="#eebbcc" stroke="#000000" cx="607.9452" cy="-237" rx="27" ry="18"/>
<text text-anchor="middle" x="607.9452" y="-233.3" font-family="Times,serif" font-size="14.00" fill="#000000">Ref</text>
</g>
<!-- testR -->
<g id="node12" class="node">
<title>testR</title>
<ellipse fill="#add8e6" stroke="#000000" cx="462.9452" cy="-105" rx="75.2868" ry="18"/>
<text text-anchor="middle" x="462.9452" y="-101.3" font-family="Times,serif" font-size="14.00" fill="#000000">RunnableTest</text>
</g>
<!-- ref&#45;&gt;testR -->
<g id="edge11" class="edge">
<title>ref&#45;&gt;testR</title>
<path fill="none" stroke="#333333" d="M596.4255,-220.5851C581.5613,-200.2039 554.124,-165.1797 524.9452,-141 518.7457,-135.8626 511.7205,-131.0229 504.6828,-126.6585"/>
<polygon fill="#333333" stroke="#333333" points="506.2083,-123.4938 495.8228,-121.3977 502.6344,-129.5127 506.2083,-123.4938"/>
</g>
<!-- r -->
<g id="node6" class="node">
<title>r</title>
<ellipse fill="#dddddd" stroke="#000000" cx="174.9452" cy="-419.8701" rx="49.2915" ry="18"/>
<text text-anchor="middle" x="174.9452" y="-416.1701" font-family="Times,serif" font-size="14.00" fill="#000000">Attempt</text>
</g>
<!-- r&#45;&gt;test -->
<g id="edge1" class="edge">
<title>r&#45;&gt;test</title>
<path fill="none" stroke="#888888" stroke-dasharray="5,2" d="M174.3809,-401.8376C173.9479,-387.9995 173.3417,-368.6256 172.8423,-352.6687"/>
<polygon fill="#888888" stroke="#888888" points="176.3283,-352.1631 172.5172,-342.2775 169.3317,-352.3821 176.3283,-352.1631"/>
<text text-anchor="middle" x="203.9452" y="-363.8" font-family="Times,serif" font-size="14.00" fill="#666666"> implicit</text>
</g>
<!-- em -->
<g id="node7" class="node">
<title>em</title>
<ellipse fill="#dddddd" stroke="#000000" cx="464.9452" cy="-515.7401" rx="86.3847" ry="18"/>
<text text-anchor="middle" x="464.9452" y="-512.0401" font-family="Times,serif" font-size="14.00" fill="#000000">ExecutionModel</text>
</g>
<!-- em&#45;&gt;plan -->
<g id="edge2" class="edge">
<title>em&#45;&gt;plan</title>
<path fill="none" stroke="#888888" stroke-dasharray="5,2" d="M435.8041,-498.6005C406.7588,-481.5172 362.3275,-455.3845 332.7209,-437.9711"/>
<polygon fill="#888888" stroke="#888888" points="334.4361,-434.9194 324.042,-432.8665 330.8873,-440.9532 334.4361,-434.9194"/>
<text text-anchor="middle" x="432.9452" y="-468.5401" font-family="Times,serif" font-size="14.00" fill="#666666"> implicit</text>
</g>
<!-- plan&#45;&gt;planS -->
<g id="edge7" class="edge">
<title>plan&#45;&gt;planS</title>
<path fill="none" stroke="#333333" d="M310.0599,-402.474C317.1889,-389.0143 328.7874,-370.89 343.9452,-360 355.5299,-351.6771 369.0357,-345.2623 382.7555,-340.3226"/>
<polygon fill="#333333" stroke="#333333" points="383.8987,-343.6309 392.2671,-337.1331 381.6731,-336.994 383.8987,-343.6309"/>
<text text-anchor="middle" x="402.9452" y="-363.8" font-family="Times,serif" font-size="14.00" fill="#000000">.withInitialState</text>
</g>
<!-- plan&#45;&gt;test -->
<g id="edge8" class="edge">
<title>plan&#45;&gt;test</title>
<path fill="none" stroke="#333333" d="M287.1296,-403.9356C274.736,-391.1378 256.1972,-373.1882 237.9452,-360 227.8808,-352.7278 216.1822,-345.8891 205.4538,-340.1659"/>
<polygon fill="#333333" stroke="#333333" points="206.8297,-336.9368 196.3411,-335.4407 203.6074,-343.1511 206.8297,-336.9368"/>
<text text-anchor="middle" x="273.4452" y="-363.8" font-family="Times,serif" font-size="14.00" fill="#000000">.test</text>
</g>
<!-- testS -->
<g id="node11" class="node">
<title>testS</title>
<ellipse fill="#add8e6" stroke="#000000" cx="317.9452" cy="-237" rx="106.6812" ry="18"/>
<text text-anchor="middle" x="317.9452" y="-233.3" font-family="Times,serif" font-size="14.00" fill="#000000">TestWithInitialState</text>
</g>
<!-- planS&#45;&gt;testS -->
<g id="edge9" class="edge">
<title>planS&#45;&gt;testS</title>
<path fill="none" stroke="#333333" d="M436.3509,-306.6033C413.3613,-293.0892 381.298,-274.2412 356.3342,-259.5665"/>
<polygon fill="#333333" stroke="#333333" points="357.8828,-256.4169 347.4882,-254.3665 354.3354,-262.4515 357.8828,-256.4169"/>
<text text-anchor="middle" x="417.4452" y="-276.8" font-family="Times,serif" font-size="14.00" fill="#000000">.test</text>
</g>
<!-- test&#45;&gt;test -->
<g id="edge14" class="edge">
<title>test&#45;&gt;test</title>
<path fill="none" stroke="#333333" d="M200.2567,-331.8269C211.6117,-332.2691 221.1424,-329.6602 221.1424,-324 221.1424,-320.1971 216.8401,-317.7715 210.5728,-316.7233"/>
<polygon fill="#333333" stroke="#333333" points="210.4289,-313.2107 200.2567,-316.1731 210.056,-320.2008 210.4289,-313.2107"/>
<text text-anchor="middle" x="281.1424" y="-320.3" font-family="Times,serif" font-size="14.00" fill="#000000">.withRetryPolicy</text>
</g>
<!-- test&#45;&gt;testS -->
<g id="edge10" class="edge">
<title>test&#45;&gt;testS</title>
<path fill="none" stroke="#333333" d="M193.8029,-310.9752C216.5303,-297.4322 252.5487,-275.9692 279.9481,-259.6421"/>
<polygon fill="#333333" stroke="#333333" points="282.0791,-262.4466 288.878,-254.3209 278.4958,-256.4333 282.0791,-262.4466"/>
<text text-anchor="middle" x="312.9452" y="-276.8" font-family="Times,serif" font-size="14.00" fill="#000000">.withInitialState</text>
</g>
<!-- testS&#45;&gt;testS -->
<g id="edge15" class="edge">
<title>testS&#45;&gt;testS</title>
<path fill="none" stroke="#333333" d="M415.6238,-244.2862C431.574,-243.2432 442.5358,-240.8145 442.5358,-237 442.5358,-234.0498 435.9784,-231.9285 425.6273,-230.6361"/>
<polygon fill="#333333" stroke="#333333" points="425.9029,-227.1468 415.6238,-229.7138 425.2602,-234.1172 425.9029,-227.1468"/>
<text text-anchor="middle" x="502.5358" y="-233.3" font-family="Times,serif" font-size="14.00" fill="#000000">.withRetryPolicy</text>
</g>
<!-- testS&#45;&gt;testR -->
<g id="edge12" class="edge">
<title>testS&#45;&gt;testR</title>
<path fill="none" stroke="#333333" d="M327.8526,-219.0645C340.1523,-198.1204 362.8521,-163.4853 389.9452,-141 397.2893,-134.9049 405.8394,-129.5202 414.4479,-124.8952"/>
<polygon fill="#333333" stroke="#333333" points="416.0609,-128.0016 423.3919,-120.3526 412.891,-121.7604 416.0609,-128.0016"/>
<text text-anchor="start" x="389.9452" y="-189.8" font-family="Times,serif" font-size="14.00" fill="#000000"> &#160;.withRef</text>
<text text-anchor="start" x="389.9452" y="-174.8" font-family="Times,serif" font-size="14.00" fill="#000000"> &#160;.withRefByName</text>
<text text-anchor="start" x="389.9452" y="-159.8" font-family="Times,serif" font-size="14.00" fill="#000000"> &#160;.withLazyRef</text>
<text text-anchor="start" x="389.9452" y="-144.8" font-family="Times,serif" font-size="14.00" fill="#000000"> &#160;.withoutRef</text>
</g>
<!-- testR&#45;&gt;testR -->
<g id="edge16" class="edge">
<title>testR&#45;&gt;testR</title>
<path fill="none" stroke="#333333" d="M531.3599,-112.6207C545.8643,-111.8469 556.3385,-109.3066 556.3385,-105 556.3385,-101.77 550.4468,-99.5336 541.3818,-98.2909"/>
<polygon fill="#333333" stroke="#333333" points="541.6358,-94.7996 531.3599,-97.3793 541.0017,-101.7708 541.6358,-94.7996"/>
<text text-anchor="middle" x="616.3385" y="-101.3" font-family="Times,serif" font-size="14.00" fill="#000000">.withRetryPolicy</text>
</g>
<!-- run -->
<g id="node13" class="node">
<title>run</title>
<ellipse fill="#aaffaa" stroke="#000000" cx="462.9452" cy="-18" rx="42.4939" ry="18"/>
<text text-anchor="middle" x="462.9452" y="-14.3" font-family="Times,serif" font-size="14.00" fill="#000000">Report</text>
</g>
<!-- testR&#45;&gt;run -->
<g id="edge13" class="edge">
<title>testR&#45;&gt;run</title>
<path fill="none" stroke="#333333" d="M462.9452,-86.9735C462.9452,-75.1918 462.9452,-59.5607 462.9452,-46.1581"/>
<polygon fill="#333333" stroke="#333333" points="466.4453,-46.0033 462.9452,-36.0034 459.4453,-46.0034 466.4453,-46.0033"/>
<text text-anchor="middle" x="482.9452" y="-57.8" font-family="Times,serif" font-size="14.00" fill="#000000">.run()</text>
</g>
</g>
</svg>
