<?xml version="1.0" encoding="UTF-8" standalone="no"?>
<!DOCTYPE svg PUBLIC "-//W3C//DTD SVG 1.1//EN"
 "http://www.w3.org/Graphics/SVG/1.1/DTD/svg11.dtd">
<!-- Generated by graphviz version 2.38.0 (20140413.2041)
 -->
<!-- Title: G Pages: 1 -->
<svg width="379pt" height="350pt"
 viewBox="0.00 0.00 378.79 349.74" xmlns="http://www.w3.org/2000/svg" xmlns:xlink="http://www.w3.org/1999/xlink">
<g id="graph0" class="graph" transform="scale(1 1) rotate(0) translate(4 345.74)">
<title>G</title>
<polygon fill="white" stroke="none" points="-4,4 -4,-345.74 374.794,-345.74 374.794,4 -4,4"/>
<!-- a -->
<g id="node1" class="node"><title>a</title>
<ellipse fill="#eebbcc" stroke="black" cx="39.4971" cy="-18" rx="38.1938" ry="18"/>
<text text-anchor="middle" x="39.4971" y="-14.3" font-family="Times,serif" font-size="14.00">Actions</text>
</g>
<!-- i -->
<g id="node2" class="node"><title>i</title>
<ellipse fill="#eebbcc" stroke="black" cx="141.497" cy="-18" rx="46.2923" ry="18"/>
<text text-anchor="middle" x="141.497" y="-14.3" font-family="Times,serif" font-size="14.00">Invariants</text>
</g>
<!-- is -->
<g id="node3" class="node"><title>is</title>
<ellipse fill="#eebbcc" stroke="black" cx="61.4971" cy="-98.8701" rx="34.7971" ry="26.7407"/>
<text text-anchor="middle" x="61.4971" y="-102.67" font-family="Times,serif" font-size="14.00">Initial</text>
<text text-anchor="middle" x="61.4971" y="-87.6701" font-family="Times,serif" font-size="14.00">State</text>
</g>
<!-- o -->
<g id="node4" class="node"><title>o</title>
<ellipse fill="#eebbcc" stroke="black" cx="229.497" cy="-98.8701" rx="42.7926" ry="18"/>
<text text-anchor="middle" x="229.497" y="-95.1701" font-family="Times,serif" font-size="14.00">Observer</text>
</g>
<!-- ref -->
<g id="node5" class="node"><title>ref</title>
<ellipse fill="#eebbcc" stroke="black" cx="32.4971" cy="-251.74" rx="32.4942" ry="18"/>
<text text-anchor="middle" x="32.4971" y="-248.04" font-family="Times,serif" font-size="14.00">⇒ Ref</text>
</g>
<!-- r -->
<g id="node6" class="node"><title>r</title>
<ellipse fill="#d8d8d8" stroke="black" cx="330.497" cy="-98.8701" rx="40.0939" ry="18"/>
<text text-anchor="middle" x="330.497" y="-95.1701" font-family="Times,serif" font-size="14.00">Recover</text>
</g>
<!-- em -->
<g id="node7" class="node"><title>em</title>
<ellipse fill="#d8d8d8" stroke="black" cx="275.497" cy="-18" rx="69.5877" ry="18"/>
<text text-anchor="middle" x="275.497" y="-14.3" font-family="Times,serif" font-size="14.00">ExecutionModel</text>
</g>
<!-- plan -->
<g id="node8" class="node"><title>plan</title>
<ellipse fill="lightblue" stroke="black" cx="141.497" cy="-98.8701" rx="27" ry="18"/>
<text text-anchor="middle" x="141.497" y="-95.1701" font-family="Times,serif" font-size="14.00">Plan</text>
</g>
<!-- plan&#45;&gt;a -->
<g id="edge1" class="edge"><title>plan&#45;&gt;a</title>
<path fill="none" stroke="black" d="M117.406,-79.2418C99.4506,-65.3582 75.2598,-46.653 58.6227,-33.7886"/>
<ellipse fill="black" stroke="black" cx="121.03" cy="-82.044" rx="4.00002" ry="4.00002"/>
</g>
<!-- plan&#45;&gt;i -->
<g id="edge2" class="edge"><title>plan&#45;&gt;i</title>
<path fill="none" stroke="black" d="M141.497,-72.5076C141.497,-60.5986 141.497,-46.7188 141.497,-36.0802"/>
<ellipse fill="black" stroke="black" cx="141.497" cy="-76.7564" rx="4" ry="4"/>
</g>
<!-- plan&#45;&gt;em -->
<g id="edge3" class="edge"><title>plan&#45;&gt;em</title>
<path fill="none" stroke="black" d="M165.315,-80.1118C169.324,-77.3101 173.485,-74.512 177.497,-72 199.465,-58.2445 225.286,-44.368 244.907,-34.266"/>
<ellipse fill="black" stroke="black" cx="162.025" cy="-82.4582" rx="4.00002" ry="4.00002"/>
</g>
<!-- planS -->
<g id="node9" class="node"><title>planS</title>
<ellipse fill="lightblue" stroke="black" cx="101.497" cy="-179.74" rx="83.3857" ry="18"/>
<text text-anchor="middle" x="101.497" y="-176.04" font-family="Times,serif" font-size="14.00">PlanWithInitialState</text>
</g>
<!-- planS&#45;&gt;is -->
<g id="edge5" class="edge"><title>planS&#45;&gt;is</title>
<path fill="none" stroke="black" d="M89.0937,-154.284C84.2281,-144.69 78.6578,-133.707 73.8018,-124.132"/>
<ellipse fill="black" stroke="black" cx="91.0084" cy="-158.059" rx="4.00002" ry="4.00002"/>
</g>
<!-- planS&#45;&gt;plan -->
<g id="edge4" class="edge"><title>planS&#45;&gt;plan</title>
<path fill="none" stroke="black" d="M113.914,-154.258C120.203,-141.856 127.668,-127.138 133.245,-116.142"/>
<ellipse fill="black" stroke="black" cx="111.986" cy="-158.059" rx="4.00002" ry="4.00002"/>
</g>
<!-- test -->
<g id="node10" class="node"><title>test</title>
<ellipse fill="lightblue" stroke="black" cx="229.497" cy="-179.74" rx="27" ry="18"/>
<text text-anchor="middle" x="229.497" y="-176.04" font-family="Times,serif" font-size="14.00">Test</text>
</g>
<!-- test&#45;&gt;o -->
<g id="edge8" class="edge"><title>test&#45;&gt;o</title>
<path fill="none" stroke="black" d="M229.497,-153.378C229.497,-141.469 229.497,-127.589 229.497,-116.95"/>
<ellipse fill="black" stroke="black" cx="229.497" cy="-157.626" rx="4" ry="4"/>
</g>
<!-- test&#45;&gt;r -->
<g id="edge7" class="edge"><title>test&#45;&gt;r</title>
<path fill="none" stroke="black" d="M253.308,-160.146C270.966,-146.358 294.732,-127.798 311.208,-114.933"/>
<ellipse fill="black" stroke="black" cx="249.783" cy="-162.899" rx="4.00002" ry="4.00002"/>
</g>
<!-- test&#45;&gt;plan -->
<g id="edge6" class="edge"><title>test&#45;&gt;plan</title>
<path fill="none" stroke="black" d="M207.804,-159.298C192.081,-145.206 171.191,-126.483 157.094,-113.848"/>
<ellipse fill="black" stroke="black" cx="210.786" cy="-161.97" rx="4.00002" ry="4.00002"/>
</g>
<!-- testS -->
<g id="node11" class="node"><title>testS</title>
<ellipse fill="lightblue" stroke="black" cx="165.497" cy="-251.74" rx="82.5854" ry="18"/>
<text text-anchor="middle" x="165.497" y="-248.04" font-family="Times,serif" font-size="14.00">TestWithInitialState</text>
</g>
<!-- testS&#45;&gt;planS -->
<g id="edge9" class="edge"><title>testS&#45;&gt;planS</title>
<path fill="none" stroke="black" d="M144.581,-227.863C135.542,-217.976 125.156,-206.617 116.847,-197.529"/>
<ellipse fill="black" stroke="black" cx="147.305" cy="-230.843" rx="4.00002" ry="4.00002"/>
</g>
<!-- testS&#45;&gt;test -->
<g id="edge10" class="edge"><title>testS&#45;&gt;test</title>
<path fill="none" stroke="black" d="M186.474,-227.797C196.141,-217.223 207.338,-204.977 215.885,-195.628"/>
<ellipse fill="black" stroke="black" cx="183.689" cy="-230.843" rx="4.00002" ry="4.00002"/>
</g>
<!-- run -->
<g id="node12" class="node"><title>run</title>
<ellipse fill="lightgreen" stroke="black" cx="98.4971" cy="-323.74" rx="36.2938" ry="18"/>
<text text-anchor="middle" x="98.4971" y="-320.04" font-family="Times,serif" font-size="14.00">Runner</text>
</g>
<!-- run&#45;&gt;ref -->
<g id="edge11" class="edge"><title>run&#45;&gt;ref</title>
<path fill="none" stroke="black" d="M78.1828,-301.195C68.1358,-290.539 56.2384,-277.92 47.1037,-268.232"/>
<ellipse fill="black" stroke="black" cx="81.1055" cy="-304.294" rx="4.00002" ry="4.00002"/>
</g>
<!-- run&#45;&gt;testS -->
<g id="edge12" class="edge"><title>run&#45;&gt;testS</title>
<path fill="none" stroke="black" d="M119.143,-301.17C128.829,-291.05 140.204,-279.166 149.262,-269.702"/>
<ellipse fill="black" stroke="black" cx="116.132" cy="-304.315" rx="4.00002" ry="4.00002"/>
</g>
</g>
</svg>
