<?xml version="1.0" encoding="UTF-8" standalone="no"?>
<!DOCTYPE svg PUBLIC "-//W3C//DTD SVG 1.1//EN"
 "http://www.w3.org/Graphics/SVG/1.1/DTD/svg11.dtd">
<!-- Generated by graphviz version 2.38.0 (20140413.2041)
 -->
<!-- Title: G Pages: 1 -->
<svg width="456pt" height="410pt"
 viewBox="0.00 0.00 456.44 409.74" xmlns="http://www.w3.org/2000/svg" xmlns:xlink="http://www.w3.org/1999/xlink">
<g id="graph0" class="graph" transform="scale(1 1) rotate(0) translate(4 405.74)">
<title>G</title>
<polygon fill="white" stroke="none" points="-4,4 -4,-405.74 452.44,-405.74 452.44,4 -4,4"/>
<!-- a -->
<g id="node1" class="node"><title>a</title>
<ellipse fill="#eebbcc" stroke="black" cx="142.896" cy="-383.74" rx="38.1938" ry="18"/>
<text text-anchor="middle" x="142.896" y="-380.04" font-family="Times,serif" font-size="14.00">Actions</text>
</g>
<!-- plan -->
<g id="node8" class="node"><title>plan</title>
<ellipse fill="lightblue" stroke="black" cx="244.896" cy="-287.87" rx="27" ry="18"/>
<text text-anchor="middle" x="244.896" y="-284.17" font-family="Times,serif" font-size="14.00">Plan</text>
</g>
<!-- a&#45;&gt;plan -->
<g id="edge3" class="edge"><title>a&#45;&gt;plan</title>
<path fill="none" stroke="#333333" d="M159.739,-367.239C176.771,-351.565 203.209,-327.235 222.107,-309.843"/>
<polygon fill="#333333" stroke="#333333" points="224.707,-312.207 229.695,-302.86 219.966,-307.056 224.707,-312.207"/>
</g>
<!-- i -->
<g id="node2" class="node"><title>i</title>
<ellipse fill="#eebbcc" stroke="black" cx="244.896" cy="-383.74" rx="46.2923" ry="18"/>
<text text-anchor="middle" x="244.896" y="-380.04" font-family="Times,serif" font-size="14.00">Invariants</text>
</g>
<!-- i&#45;&gt;plan -->
<g id="edge4" class="edge"><title>i&#45;&gt;plan</title>
<path fill="none" stroke="#333333" d="M244.896,-365.523C244.896,-351.761 244.896,-332.21 244.896,-316.297"/>
<polygon fill="#333333" stroke="#333333" points="248.396,-315.978 244.896,-305.978 241.396,-315.978 248.396,-315.978"/>
</g>
<!-- is -->
<g id="node3" class="node"><title>is</title>
<ellipse fill="#eebbcc" stroke="black" cx="362.896" cy="-287.87" rx="34.7971" ry="26.7407"/>
<text text-anchor="middle" x="362.896" y="-291.67" font-family="Times,serif" font-size="14.00">Initial</text>
<text text-anchor="middle" x="362.896" y="-276.67" font-family="Times,serif" font-size="14.00">State</text>
</g>
<!-- planS -->
<g id="node9" class="node"><title>planS</title>
<ellipse fill="lightblue" stroke="black" cx="271.896" cy="-192" rx="83.3857" ry="18"/>
<text text-anchor="middle" x="271.896" y="-188.3" font-family="Times,serif" font-size="14.00">PlanWithInitialState</text>
</g>
<!-- is&#45;&gt;planS -->
<g id="edge5" class="edge"><title>is&#45;&gt;planS</title>
<path fill="none" stroke="#333333" d="M361.735,-260.863C360.054,-249.709 356.442,-237.165 348.896,-228 343.462,-221.4 336.517,-215.992 329.03,-211.575"/>
<polygon fill="#333333" stroke="#333333" points="330.527,-208.407 320.049,-206.833 327.258,-214.597 330.527,-208.407"/>
</g>
<!-- o -->
<g id="node4" class="node"><title>o</title>
<ellipse fill="#eebbcc" stroke="black" cx="42.8962" cy="-287.87" rx="42.7926" ry="18"/>
<text text-anchor="middle" x="42.8962" y="-284.17" font-family="Times,serif" font-size="14.00">Observer</text>
</g>
<!-- test -->
<g id="node10" class="node"><title>test</title>
<ellipse fill="lightblue" stroke="black" cx="143.896" cy="-192" rx="27" ry="18"/>
<text text-anchor="middle" x="143.896" y="-188.3" font-family="Times,serif" font-size="14.00">Test</text>
</g>
<!-- o&#45;&gt;test -->
<g id="edge6" class="edge"><title>o&#45;&gt;test</title>
<path fill="none" stroke="#333333" d="M60.0295,-270.946C76.8715,-255.293 102.676,-231.311 121.212,-214.082"/>
<polygon fill="#333333" stroke="#333333" points="123.722,-216.528 128.664,-207.157 118.957,-211.401 123.722,-216.528"/>
</g>
<!-- ref -->
<g id="node5" class="node"><title>ref</title>
<ellipse fill="#eebbcc" stroke="black" cx="341.896" cy="-105" rx="32.4942" ry="18"/>
<text text-anchor="middle" x="341.896" y="-101.3" font-family="Times,serif" font-size="14.00">⇒ Ref</text>
</g>
<!-- run -->
<g id="node12" class="node"><title>run</title>
<ellipse fill="lightgreen" stroke="black" cx="298.896" cy="-18" rx="34.394" ry="18"/>
<text text-anchor="middle" x="298.896" y="-14.3" font-family="Times,serif" font-size="14.00">Report</text>
</g>
<!-- ref&#45;&gt;run -->
<g id="edge11" class="edge"><title>ref&#45;&gt;run</title>
<path fill="none" stroke="#333333" d="M333.401,-87.2067C327.236,-75.0205 318.786,-58.3176 311.792,-44.491"/>
<polygon fill="#333333" stroke="#333333" points="314.865,-42.8124 307.228,-35.4692 308.619,-45.9723 314.865,-42.8124"/>
</g>
<!-- r -->
<g id="node6" class="node"><title>r</title>
<ellipse fill="#dddddd" stroke="black" cx="143.896" cy="-287.87" rx="40.0939" ry="18"/>
<text text-anchor="middle" x="143.896" y="-284.17" font-family="Times,serif" font-size="14.00">Recover</text>
</g>
<!-- r&#45;&gt;test -->
<g id="edge1" class="edge"><title>r&#45;&gt;test</title>
<path fill="none" stroke="#888888" stroke-dasharray="5,2" d="M143.896,-269.653C143.896,-255.891 143.896,-236.34 143.896,-220.427"/>
<polygon fill="#888888" stroke="#888888" points="147.396,-220.108 143.896,-210.108 140.396,-220.108 147.396,-220.108"/>
<text text-anchor="middle" x="167.396" y="-231.8" font-family="Times,serif" font-size="14.00" fill="#666666"> implicit</text>
</g>
<!-- em -->
<g id="node7" class="node"><title>em</title>
<ellipse fill="#dddddd" stroke="black" cx="378.896" cy="-383.74" rx="69.5877" ry="18"/>
<text text-anchor="middle" x="378.896" y="-380.04" font-family="Times,serif" font-size="14.00">ExecutionModel</text>
</g>
<!-- em&#45;&gt;plan -->
<g id="edge2" class="edge"><title>em&#45;&gt;plan</title>
<path fill="none" stroke="#888888" stroke-dasharray="5,2" d="M355.861,-366.603C332.402,-350.17 296.068,-324.717 271.422,-307.452"/>
<polygon fill="#888888" stroke="#888888" points="273.114,-304.364 262.916,-301.493 269.098,-310.097 273.114,-304.364"/>
<text text-anchor="middle" x="351.396" y="-336.54" font-family="Times,serif" font-size="14.00" fill="#666666"> implicit</text>
</g>
<!-- plan&#45;&gt;planS -->
<g id="edge7" class="edge"><title>plan&#45;&gt;planS</title>
<path fill="none" stroke="#333333" d="M249.274,-270.073C252.396,-258.27 256.758,-242.128 260.896,-228 261.675,-225.341 262.507,-222.575 263.351,-219.815"/>
<polygon fill="#333333" stroke="#333333" points="266.761,-220.637 266.391,-210.049 260.077,-218.557 266.761,-220.637"/>
<text text-anchor="middle" x="304.896" y="-231.8" font-family="Times,serif" font-size="14.00">.withInitialState</text>
</g>
<!-- plan&#45;&gt;test -->
<g id="edge8" class="edge"><title>plan&#45;&gt;test</title>
<path fill="none" stroke="#333333" d="M232.626,-271.557C222.362,-259.178 207.01,-241.632 191.896,-228 185.542,-222.269 178.265,-216.576 171.33,-211.499"/>
<polygon fill="#333333" stroke="#333333" points="173.001,-208.392 162.825,-205.441 168.94,-214.093 173.001,-208.392"/>
<text text-anchor="middle" x="218.396" y="-231.8" font-family="Times,serif" font-size="14.00">.test</text>
</g>
<!-- testS -->
<g id="node11" class="node"><title>testS</title>
<ellipse fill="lightblue" stroke="black" cx="208.896" cy="-105" rx="82.5854" ry="18"/>
<text text-anchor="middle" x="208.896" y="-101.3" font-family="Times,serif" font-size="14.00">TestWithInitialState</text>
</g>
<!-- planS&#45;&gt;testS -->
<g id="edge9" class="edge"><title>planS&#45;&gt;testS</title>
<path fill="none" stroke="#333333" d="M263.897,-174.08C258.801,-164.045 251.702,-151.312 243.896,-141 241.078,-137.277 237.879,-133.557 234.588,-130.007"/>
<polygon fill="#333333" stroke="#333333" points="236.832,-127.294 227.348,-122.571 231.816,-132.178 236.832,-127.294"/>
<text text-anchor="middle" x="265.396" y="-144.8" font-family="Times,serif" font-size="14.00">.test</text>
</g>
<!-- test&#45;&gt;testS -->
<g id="edge10" class="edge"><title>test&#45;&gt;testS</title>
<path fill="none" stroke="#333333" d="M143.169,-173.961C143.521,-163.638 145.446,-150.646 151.896,-141 155.412,-135.742 160.012,-131.137 165.076,-127.145"/>
<polygon fill="#333333" stroke="#333333" points="167.14,-129.973 173.326,-121.371 163.126,-124.238 167.14,-129.973"/>
<text text-anchor="middle" x="195.896" y="-144.8" font-family="Times,serif" font-size="14.00">.withInitialState</text>
</g>
<!-- testS&#45;&gt;run -->
<g id="edge12" class="edge"><title>testS&#45;&gt;run</title>
<path fill="none" stroke="#333333" d="M226.677,-87.2067C240.637,-74.0226 260.194,-55.5518 275.437,-41.1563"/>
<polygon fill="#333333" stroke="#333333" points="278.095,-43.4603 282.961,-34.0495 273.288,-38.3712 278.095,-43.4603"/>
<text text-anchor="middle" x="270.896" y="-57.8" font-family="Times,serif" font-size="14.00">.run</text>
</g>
</g>
</svg>
